<svg id="Layer_1" data-name="Layer 1" xmlns="http://www.w3.org/2000/svg" viewBox="0 0 453.57 454.21"><defs><style>.cls-1{fill:#dcdbdb;}.cls-2{fill:#f6c6c6;}.cls-3{fill:#29445c;}.cls-4{fill:#436484;}.cls-5{fill:#fff;}.cls-6{fill:#332d2a;}</style></defs><path class="cls-1" d="M210.1,21.91c-9.88,3.07-53.71,17.35-97.47,55.25-10.6,9.18-53.46,46.29-71.77,96.18C9.7,258.26,47,387.45,154.4,439.37c125.12,60.47,283.16-14,319.2-113.58,16-44.18,16.71-117.44-23.56-165.76-32.42-38.88-80.29-59.38-78.15-96.16,1-17.71,6.88-20.58,3.16-31.74-8.8-26.45-95.13-31.94-165-10.22" transform="translate(-30.24 -7.71)"/><path class="cls-2" d="M405.29,86.54A26.9,26.9,0,1,1,417,122.73a26.87,26.87,0,0,1-11.7-36.19Zm-5.32,58,9.3,4.76,7.3-8.76a43.41,43.41,0,0,0,7.11,1.54l3.07,11,10.43-.52,1.94-11.24A44.29,44.29,0,0,0,446,139l8.15,8,8.77-5.67L459,130.63a42.66,42.66,0,0,0,4.87-5.41L475,128.06l4.76-9.29-8.77-7.31a43.41,43.41,0,0,0,1.54-7.11l11-3.06-.53-10.43-11.24-2A44.29,44.29,0,0,0,469.45,82l8-8.15-5.67-8.77L461.07,69a43.43,43.43,0,0,0-5.41-4.88l2.83-11.05-9.3-4.76-7.3,8.76a44.48,44.48,0,0,0-7.11-1.54l-3.07-11-10.43.52-1.94,11.24a44.29,44.29,0,0,0-6.92,2.23l-8.16-8-8.77,5.67,3.93,10.69a43.36,43.36,0,0,0-4.87,5.41L383.5,69.5l-4.76,9.3,8.77,7.3A44.48,44.48,0,0,0,386,93.21l-11,3.06.53,10.44,11.24,1.94a44.29,44.29,0,0,0,2.23,6.92l-8,8.15,5.67,8.77,10.69-3.93a42.73,42.73,0,0,0,5.41,4.88L400,144.49" transform="translate(-30.24 -7.71)"/><path class="cls-2" d="M339.38,42.83a17.56,17.56,0,1,1,17.39,17.71,17.55,17.55,0,0,1-17.39-17.71Zm13.8,35.4,6.82.07,1.71-7.24a28.2,28.2,0,0,0,4.6-1.18l5,5.52,5.94-3.35-2.15-7.13a29.53,29.53,0,0,0,3.39-3.32l7.09,2.29L389,58l-5.42-5.1a28.07,28.07,0,0,0,1.27-4.57l7.28-1.57.06-6.82L385,38.25a29.26,29.26,0,0,0-1.18-4.6l5.52-5L386,22.72l-7.14,2.14a28.73,28.73,0,0,0-3.32-3.39l2.28-7.09-5.88-3.47-5.1,5.42a28.18,28.18,0,0,0-4.58-1.27l-1.57-7.28-6.82-.07L352.14,15a28.2,28.2,0,0,0-4.6,1.18l-5-5.52L336.61,14l2.15,7.13a29.53,29.53,0,0,0-3.39,3.32l-7.09-2.29L324.81,28l5.42,5.1A28.07,28.07,0,0,0,329,37.66l-7.28,1.57-.06,6.82,7.24,1.71a28.2,28.2,0,0,0,1.18,4.6l-5.52,5,3.35,5.94L335,61.15a30.38,30.38,0,0,0,3.32,3.39l-2.28,7.09,5.88,3.47,5.1-5.42A27.91,27.91,0,0,0,351.61,71l1.57,7.28" transform="translate(-30.24 -7.71)"/><path class="cls-3" d="M472.36,412.88l-3.85,3.54a13,13,0,0,1-10.66,3.37L49.6,358.25c-5.43-.82-8.06-6.46-8.11-12L38.77,64.83c0-3.32,2-16.56,2-16.56s9.93-7.15,15.86-9.91a15.07,15.07,0,0,1,8.54-1.27L469.4,96.9a8.3,8.3,0,0,1,7.11,8.31l.91,296.27a15.49,15.49,0,0,1-5.06,11.39" transform="translate(-30.24 -7.71)"/><path class="cls-4" d="M460,419.09,50.91,358.57A12.76,12.76,0,0,1,40,345.79l-.9-292.42a5.77,5.77,0,0,1,6.48-5.7l410.16,60.68a8.3,8.3,0,0,1,7.11,8.31l.92,299.12a3.35,3.35,0,0,1-3.76,3.31" transform="translate(-30.24 -7.71)"/><path class="cls-2" d="M99.12,366.52H99l-48.21-7.14A13.62,13.62,0,0,1,39.16,345.8L38.25,53.37a6.55,6.55,0,0,1,2.3-5,6.4,6.4,0,0,1,5.13-1.54l211,31.21a.82.82,0,0,1-.24,1.62L45.44,48.48a4.79,4.79,0,0,0-3.81,1.16,4.94,4.94,0,0,0-1.73,3.73l.9,292.43a12,12,0,0,0,10.23,12l48.21,7.13a.82.82,0,0,1-.12,1.63" transform="translate(-30.24 -7.71)"/><path class="cls-2" d="M460.44,419.94a3.56,3.56,0,0,1-.57,0L217,384a.82.82,0,1,1,.25-1.62l242.83,35.92a2.39,2.39,0,0,0,1.93-.59,2.51,2.51,0,0,0,.89-1.91L462,116.66a7.53,7.53,0,0,0-6.41-7.5L393.81,100a.83.83,0,0,1-.7-.93.81.81,0,0,1,.94-.69l61.8,9.14a9.17,9.17,0,0,1,7.81,9.12l.92,299.13a4.15,4.15,0,0,1-1.45,3.15,4.08,4.08,0,0,1-2.68,1" transform="translate(-30.24 -7.71)"/><path class="cls-5" d="M245.3,281.77l-187-29.42a9.25,9.25,0,0,1-7.83-9.28V72.49a10.59,10.59,0,0,1,12-10.43l187,29.41a9.25,9.25,0,0,1,7.84,9.28V271.34a10.61,10.61,0,0,1-12,10.43" transform="translate(-30.24 -7.71)"/><path class="cls-1" d="M70.33,236.78l-5.32-1a5.46,5.46,0,0,1-4.19-5.34l0-27.84c0-2.61,2-4.41,4.36-4l5.27.93a5.47,5.47,0,0,1,4.22,5.34v27.88c0,2.62-2,4.42-4.38,4" transform="translate(-30.24 -7.71)"/><path class="cls-1" d="M89.15,239.74l-5.32-1a5.48,5.48,0,0,1-4.2-5.34L79.69,188c0-2.61,2-4.41,4.36-4l5.26.92a5.47,5.47,0,0,1,4.22,5.34v45.45c0,2.63-2,4.42-4.38,4" transform="translate(-30.24 -7.71)"/><path class="cls-1" d="M108,242.7l-5.32-1a5.46,5.46,0,0,1-4.19-5.34l.05-36.05c0-2.61,2-4.41,4.36-4l5.26.92a5.47,5.47,0,0,1,4.22,5.34v36.08c0,2.63-2,4.42-4.38,4" transform="translate(-30.24 -7.71)"/><path class="cls-1" d="M126.8,245.66l-5.32-1a5.48,5.48,0,0,1-4.2-5.34l.06-70.91a3.74,3.74,0,0,1,4.36-4l5.26.93a5.47,5.47,0,0,1,4.22,5.34v71c0,2.63-2,4.42-4.38,4" transform="translate(-30.24 -7.71)"/><path class="cls-1" d="M145.62,248.63l-5.32-1a5.47,5.47,0,0,1-4.2-5.34l.06-89.17a3.74,3.74,0,0,1,4.36-4l5.26.92a5.46,5.46,0,0,1,4.22,5.34v89.21a3.75,3.75,0,0,1-4.38,4" transform="translate(-30.24 -7.71)"/><path class="cls-2" d="M164.44,251.58l-5.32-1a5.48,5.48,0,0,1-4.2-5.34L155,142.53c0-2.61,2-4.41,4.36-4l5.26.92a5.47,5.47,0,0,1,4.22,5.34V247.59c0,2.63-2,4.43-4.38,4" transform="translate(-30.24 -7.71)"/><path class="cls-1" d="M183.27,254.55l-5.32-1a5.48,5.48,0,0,1-4.2-5.34l.06-73c0-2.61,2-4.41,4.36-4l5.26.92a5.46,5.46,0,0,1,4.21,5.34v73c0,2.63-2,4.42-4.38,4" transform="translate(-30.24 -7.71)"/><path class="cls-1" d="M202.09,257.51l-5.32-1a5.47,5.47,0,0,1-4.2-5.34l.06-96.86c0-2.61,2-4.41,4.36-4l5.26.92a5.47,5.47,0,0,1,4.22,5.34v96.9c0,2.63-2,4.42-4.38,4" transform="translate(-30.24 -7.71)"/><path class="cls-1" d="M220.91,260.47l-5.32-1a5.48,5.48,0,0,1-4.2-5.34l.06-125.95c0-2.61,2-4.41,4.36-4l5.26.92a5.46,5.46,0,0,1,4.21,5.34v126c0,2.63-2,4.42-4.38,4" transform="translate(-30.24 -7.71)"/><path class="cls-2" d="M240,263.47l-5.32-1a5.48,5.48,0,0,1-4.2-5.34l.06-145.49c0-2.61,2-4.41,4.36-4l5.26.92a5.46,5.46,0,0,1,4.21,5.34V259.49c0,2.63-2,4.42-4.38,4" transform="translate(-30.24 -7.71)"/><path class="cls-5" d="M257.28,375.89l-74.92-12a5.43,5.43,0,0,1-4.32-5.27V284.14a3.7,3.7,0,0,1,4.32-3.89l74.92,12a5.42,5.42,0,0,1,4.32,5.27V372a3.7,3.7,0,0,1-4.32,3.89" transform="translate(-30.24 -7.71)"/><path class="cls-2" d="M198,360.06l-7.49-1.2V305.07l7.49,1.2v53.79" transform="translate(-30.24 -7.71)"/><path class="cls-1" d="M198,360.06l-7.49-1.2v-34.7l7.49,1.2v34.7" transform="translate(-30.24 -7.71)"/><path class="cls-2" d="M212,362.31l-7.48-1.2V315.25l7.48,1.2v45.86" transform="translate(-30.24 -7.71)"/><path class="cls-1" d="M212,362.31l-7.48-1.2V334.83L212,336v26.28" transform="translate(-30.24 -7.71)"/><path class="cls-2" d="M225.1,364.65l-7.49-1.2V321.8l7.49,1.2v41.65" transform="translate(-30.24 -7.71)"/><path class="cls-1" d="M225.1,364.65l-7.49-1.2V344.12l7.49,1.2v19.33" transform="translate(-30.24 -7.71)"/><path class="cls-2" d="M238.55,367.3l-7.48-1.2V312.31l7.48,1.2V367.3" transform="translate(-30.24 -7.71)"/><path class="cls-1" d="M238.55,367.3l-7.48-1.2V321.24l7.48,1.2V367.3" transform="translate(-30.24 -7.71)"/><path class="cls-2" d="M252.13,369.22,244.64,368V318l7.49,1.2v50.07" transform="translate(-30.24 -7.71)"/><path class="cls-1" d="M252.13,369.22,244.64,368v-33l7.49,1.2v33" transform="translate(-30.24 -7.71)"/><path class="cls-3" d="M256.81,370.73h-.13l-72.56-11.6a3.26,3.26,0,0,1-2.65-3.2l.28-63.57a.82.82,0,0,1,.82-.82.83.83,0,0,1,.82.83l-.28,63.57a1.63,1.63,0,0,0,1.26,1.58l72.57,11.6a.82.82,0,0,1,.68.94.82.82,0,0,1-.81.69" transform="translate(-30.24 -7.71)"/><path class="cls-2" d="M212.73,294.75l-22.5-3.59v-4.22l22.5,3.6v4.21" transform="translate(-30.24 -7.71)"/><path class="cls-2" d="M212.81,301.21l-22.5-3.6V293.4l22.5,3.6v4.21" transform="translate(-30.24 -7.71)"/><path class="cls-2" d="M164.63,300.57,49.16,282.05V270.12l115.47,18.52v11.93" transform="translate(-30.24 -7.71)"/><path class="cls-2" d="M165.17,319.71,49.7,301.18V289.25l115.47,18.53v11.93" transform="translate(-30.24 -7.71)"/><path class="cls-2" d="M165.34,339.55,49.87,321V309.1l115.47,18.52v11.93" transform="translate(-30.24 -7.71)"/><path class="cls-2" d="M165.34,358,49.87,339.5V327.57L165.34,346.1V358" transform="translate(-30.24 -7.71)"/><path class="cls-2" d="M358.62,215.58l-89.13-12.29v-9.76l89.13,12.29v9.77" transform="translate(-30.24 -7.71)"/><path class="cls-2" d="M358.82,233.73l-89.13-12.29v-9.76L358.82,224v9.77" transform="translate(-30.24 -7.71)"/><path class="cls-2" d="M451.43,383.44,362.3,371.15v-9.76l89.13,12.29v9.77" transform="translate(-30.24 -7.71)"/><path class="cls-2" d="M451.63,401.59,362.5,389.3v-9.77l89.13,12.29v9.76" transform="translate(-30.24 -7.71)"/><path class="cls-2" d="M450.86,344.8l-89.12-12.29v-9.77L450.86,335v9.76" transform="translate(-30.24 -7.71)"/><path class="cls-2" d="M451.06,363l-89.12-12.29v-9.76l89.12,12.29V363" transform="translate(-30.24 -7.71)"/><path class="cls-2" d="M423.52,252.69A19.72,19.72,0,0,1,421.69,225a19.45,19.45,0,0,1,27.55-1.84,19.71,19.71,0,0,1,1.83,27.71,19.45,19.45,0,0,1-27.55,1.84" transform="translate(-30.24 -7.71)"/><path class="cls-3" d="M443.29,234.26a7.19,7.19,0,1,1-7.19-7.19,7.19,7.19,0,0,1,7.19,7.19" transform="translate(-30.24 -7.71)"/><path class="cls-3" d="M450.77,250.9a17.33,17.33,0,0,0-14.64-8,17.15,17.15,0,0,0-14.46,7.76c.41.49.84,1,1.3,1.42,8.13,8.09,20.32,7.48,27.81-1.15" transform="translate(-30.24 -7.71)"/><path class="cls-6" d="M424.06,252.08a18.63,18.63,0,0,0,26.39-1.77,18.91,18.91,0,0,0-1.76-26.56,18.63,18.63,0,0,0-26.39,1.77A18.92,18.92,0,0,0,424.06,252.08Zm12.29,6.3A20.13,20.13,0,0,1,423,253.31a20.56,20.56,0,0,1-1.91-28.86,20.27,20.27,0,0,1,28.71-1.92,20.55,20.55,0,0,1,1.91,28.86,20.18,20.18,0,0,1-14,6.94c-.46,0-.92,0-1.38,0" transform="translate(-30.24 -7.71)"/><path class="cls-2" d="M413.75,203.06a19.72,19.72,0,0,1-1.83-27.71,19.46,19.46,0,0,1,27.56-1.84,19.72,19.72,0,0,1,1.83,27.71,19.45,19.45,0,0,1-27.55,1.84" transform="translate(-30.24 -7.71)"/><path class="cls-3" d="M433.52,184.63a7.19,7.19,0,1,1-7.19-7.19,7.19,7.19,0,0,1,7.19,7.19" transform="translate(-30.24 -7.71)"/><path class="cls-3" d="M441,201.27a17.33,17.33,0,0,0-14.64-8A17.15,17.15,0,0,0,411.9,201c.41.49.84,1,1.3,1.42,8.13,8.08,20.32,7.47,27.8-1.15" transform="translate(-30.24 -7.71)"/><path class="cls-3" d="M414.29,202.45a18.63,18.63,0,0,0,26.39-1.77,18.9,18.9,0,0,0-1.76-26.55,18.63,18.63,0,0,0-26.39,1.77,18.92,18.92,0,0,0,1.76,26.56Zm12.29,6.29a20.16,20.16,0,0,1-13.38-5.07,20.55,20.55,0,0,1-1.91-28.86A20.27,20.27,0,0,1,440,172.89a20.55,20.55,0,0,1,1.91,28.86,20.14,20.14,0,0,1-14,6.94c-.46,0-.92.05-1.37.05" transform="translate(-30.24 -7.71)"/><path class="cls-2" d="M373.64,172.76a19.71,19.71,0,0,1-1.83-27.71,19.45,19.45,0,0,1,27.56-1.84,19.72,19.72,0,0,1,1.83,27.71,19.44,19.44,0,0,1-27.55,1.84" transform="translate(-30.24 -7.71)"/><path class="cls-3" d="M393.4,154.32a7.19,7.19,0,1,1-7.19-7.19,7.19,7.19,0,0,1,7.19,7.19" transform="translate(-30.24 -7.71)"/><path class="cls-3" d="M400.89,171a17.37,17.37,0,0,0-29.11-.27c.41.49.84,1,1.3,1.42,8.13,8.08,20.33,7.48,27.81-1.15" transform="translate(-30.24 -7.71)"/><path class="cls-3" d="M374.18,172.14a18.63,18.63,0,0,0,26.39-1.77,18.9,18.9,0,0,0-1.76-26.55,18.61,18.61,0,0,0-26.39,1.77A18.9,18.9,0,0,0,374.18,172.14Zm12.28,6.3a20.13,20.13,0,0,1-13.37-5.06,20.56,20.56,0,0,1-1.91-28.87,20.27,20.27,0,0,1,28.71-1.92,20.55,20.55,0,0,1,1.91,28.86,20.18,20.18,0,0,1-14,6.94c-.46,0-.92,0-1.38,0" transform="translate(-30.24 -7.71)"/><path class="cls-2" d="M358.45,149.37a46.86,46.86,0,1,1-46.86-46.85,46.85,46.85,0,0,1,46.86,46.85" transform="translate(-30.24 -7.71)"/><path class="cls-3" d="M352.68,149.37a46.85,46.85,0,1,1-46.85-46.85,46.84,46.84,0,0,1,46.85,46.85" transform="translate(-30.24 -7.71)"/><path class="cls-3" d="M305.82,103.34a46,46,0,1,0,46,46A46.08,46.08,0,0,0,305.82,103.34Zm0,93.71a47.68,47.68,0,1,1,47.68-47.68,47.74,47.74,0,0,1-47.68,47.68" transform="translate(-30.24 -7.71)"/><path class="cls-2" d="M337.06,149.38a31.24,31.24,0,1,1-31.24-31.24,31.23,31.23,0,0,1,31.24,31.24" transform="translate(-30.24 -7.71)"/><path class="cls-3" d="M321.44,149.37a15.62,15.62,0,1,1-15.62-15.61,15.62,15.62,0,0,1,15.62,15.61" transform="translate(-30.24 -7.71)"/><path class="cls-5" d="M305.64,148.49,315.88,137l1.53,1.53-11.47,10.24a.21.21,0,0,1-.3-.3" transform="translate(-30.24 -7.71)"/><path d="M315.91,138.21,313.4,141l2.81-2.51Zm-10.27,10.28h0Zm.16,1.17a1,1,0,0,1-.77-1.72l10.24-11.47a.85.85,0,0,1,.59-.28.81.81,0,0,1,.6.24L318,138a.81.81,0,0,1,.24.6.78.78,0,0,1-.27.59L306.49,149.4a1,1,0,0,1-.69.27" transform="translate(-30.24 -7.71)"/><path class="cls-5" d="M316.6,139.3l-1.48-1.48a.48.48,0,0,1,0-.67l5-5,2.15,2.15-5,4.95a.47.47,0,0,1-.67,0" transform="translate(-30.24 -7.71)"/><path d="M320.08,133.35,316.44,137a.7.7,0,1,0,1,1l3.64-3.64-1-1Zm-3.14,6.48a2.36,2.36,0,0,1-2.35-2.35,2.27,2.27,0,0,1,.69-1.65l4.22-4.22a.84.84,0,0,1,1.16,0l2.15,2.15a.8.8,0,0,1,.24.58.84.84,0,0,1-.24.58l-4.22,4.22a2.33,2.33,0,0,1-1.65.69" transform="translate(-30.24 -7.71)"/><path class="cls-5" d="M319.64,136.19l-1.41-1.4a1.61,1.61,0,0,1,0-2.28l50.59-50.58a1.61,1.61,0,0,1,2.28,0l1.41,1.4a1.61,1.61,0,0,1,0,2.28l-50.59,50.58a1.61,1.61,0,0,1-2.28,0" transform="translate(-30.24 -7.71)"/><path d="M370,82.69a1.79,1.79,0,0,0-1.27.52l-49.18,49.18a1.79,1.79,0,0,0,0,2.52,1.83,1.83,0,0,0,2.52,0l49.19-49.19a1.79,1.79,0,0,0,0-2.52,1.76,1.76,0,0,0-1.26-.52Zm-49.18,54.38a3.42,3.42,0,0,1-2.42-5.84l49.18-49.18a3.42,3.42,0,1,1,4.84,4.84L323.2,136.08a3.4,3.4,0,0,1-2.42,1" transform="translate(-30.24 -7.71)"/><path class="cls-3" d="M353.74,97l-1.52-7.41a8.85,8.85,0,0,1,2.41-8l9.44-9.43a.61.61,0,0,1,1,.31l2.26,11L353.75,97" transform="translate(-30.24 -7.71)"/><path d="M364.38,73l-9.16,9.16a8,8,0,0,0-2.19,7.3l1.22,5.91,12.22-12.22ZM353.74,97.82a.58.58,0,0,1-.23,0,.8.8,0,0,1-.57-.62l-1.52-7.4a9.66,9.66,0,0,1,2.64-8.8l9.44-9.43a1.43,1.43,0,0,1,2.41.72l2.26,11A.81.81,0,0,1,368,84L354.34,97.57a.83.83,0,0,1-.58.23" transform="translate(-30.24 -7.71)"/><path class="cls-3" d="M357.43,100.68l7.4,1.53a8.89,8.89,0,0,0,8.05-2.41l9.44-9.44a.61.61,0,0,0-.31-1l-11-2.26-13.61,13.61" transform="translate(-30.24 -7.71)"/><path d="M359.09,100.18,365,101.4a8,8,0,0,0,7.3-2.19l9.16-9.16L371.31,88Zm7.54,3a9.32,9.32,0,0,1-2-.2l-7.41-1.53a.82.82,0,0,1-.41-1.39l13.61-13.61a.81.81,0,0,1,.74-.22l11,2.26a1.43,1.43,0,0,1,.72,2.41l-9.43,9.43a9.65,9.65,0,0,1-6.83,2.84" transform="translate(-30.24 -7.71)"/><path class="cls-5" d="M369.5,90.91l8.92,1.67-8.92-1.67" transform="translate(-30.24 -7.71)"/><path class="cls-4" d="M378.41,93.4h-.15l-8.91-1.67a.82.82,0,1,1,.3-1.62l8.91,1.67a.82.82,0,0,1-.15,1.63" transform="translate(-30.24 -7.71)"/><path class="cls-5" d="M365.88,94.54l8.91,1.66-8.91-1.66" transform="translate(-30.24 -7.71)"/><path class="cls-4" d="M374.79,97a.39.39,0,0,1-.15,0l-8.92-1.67a.82.82,0,1,1,.3-1.62l8.91,1.67a.82.82,0,0,1-.15,1.62" transform="translate(-30.24 -7.71)"/><path class="cls-5" d="M352.31,100.28l1.84,1.84-1.84-1.84" transform="translate(-30.24 -7.71)"/><path d="M354.14,102.94a.82.82,0,0,1-.58-.24l-1.84-1.84a.82.82,0,0,1,1.16-1.16l1.84,1.84a.82.82,0,0,1-.58,1.4" transform="translate(-30.24 -7.71)"/><path class="cls-5" d="M354.43,98.16l1.84,1.84-1.84-1.84" transform="translate(-30.24 -7.71)"/><path d="M356.27,100.82a.82.82,0,0,1-.58-.24l-1.84-1.84A.82.82,0,0,1,355,97.58l1.84,1.84a.82.82,0,0,1,0,1.16.84.84,0,0,1-.58.24" transform="translate(-30.24 -7.71)"/><path class="cls-5" d="M356.56,96l1.83,1.84L356.56,96" transform="translate(-30.24 -7.71)"/><path d="M358.4,98.69a.82.82,0,0,1-.58-.24L356,96.61a.82.82,0,0,1,1.16-1.16L359,97.29a.82.82,0,0,1-.58,1.4" transform="translate(-30.24 -7.71)"/><path class="cls-3" d="M284,17.88a3.85,3.85,0,1,0,3.85,3.85A3.86,3.86,0,0,0,284,17.88Zm0,9.35a5.5,5.5,0,1,1,5.49-5.5,5.51,5.51,0,0,1-5.49,5.5" transform="translate(-30.24 -7.71)"/><path class="cls-3" d="M205.67,428.3a.64.64,0,0,1-.24,0c-4.7-1.48-9.39-3.19-13.94-5.07a.82.82,0,0,1,.62-1.52c4.51,1.86,9.16,3.56,13.81,5a.82.82,0,0,1-.25,1.6" transform="translate(-30.24 -7.71)"/><path class="cls-3" d="M259.23,436.56h-1.79a177.39,177.39,0,0,1-52-8.29.82.82,0,1,1,.49-1.57,177.47,177.47,0,0,0,84.3,5.49.82.82,0,0,1,.29,1.61,179.46,179.46,0,0,1-31.28,2.75" transform="translate(-30.24 -7.71)"/><path class="cls-3" d="M185,438a.8.8,0,0,1-.3-.06c-2.38-.95-4.77-2-7.12-3a.82.82,0,0,1-.41-1.08.81.81,0,0,1,1.08-.41c2.33,1,4.7,2.05,7.06,3A.82.82,0,0,1,185,438" transform="translate(-30.24 -7.71)"/><path class="cls-3" d="M254.15,451.29h-1.87a186,186,0,0,1-67.61-13.35.83.83,0,0,1-.46-1.07.81.81,0,0,1,1.07-.45,185.89,185.89,0,0,0,106.29,9.44.82.82,0,0,1,.33,1.61,187.67,187.67,0,0,1-37.74,3.83" transform="translate(-30.24 -7.71)"/><path class="cls-3" d="M307.19,435.4a4.32,4.32,0,0,0-.62.05,4,4,0,1,0,.62-.05Zm0,9.78a5.69,5.69,0,1,1,.86-.06,5.07,5.07,0,0,1-.86.07" transform="translate(-30.24 -7.71)"/><path class="cls-3" d="M156.42,425.72l10.68,4.53-1.68-11-9,6.47Zm11.72,6.69a.71.71,0,0,1-.32-.07l-13.38-5.67a.82.82,0,0,1-.5-.67.85.85,0,0,1,.34-.76l11.27-8.11a.82.82,0,0,1,1.29.54L169,431.45a.84.84,0,0,1-.31.78.87.87,0,0,1-.51.17" transform="translate(-30.24 -7.71)"/><path class="cls-3" d="M179.37,46.13a.83.83,0,0,1-.42-1.54,179.69,179.69,0,0,1,58.74-22.11.82.82,0,1,1,.3,1.62A178.22,178.22,0,0,0,179.78,46a.8.8,0,0,1-.42.11" transform="translate(-30.24 -7.71)"/><path class="cls-3" d="M215,43.71a.82.82,0,0,1-.35-1.56,171.31,171.31,0,0,1,43-14.07.81.81,0,0,1,.95.66.82.82,0,0,1-.66,1,169.81,169.81,0,0,0-42.56,13.94.76.76,0,0,1-.36.08" transform="translate(-30.24 -7.71)"/><path class="cls-5" d="M66.22,425.1l1.32,12.56,8.49,1v-14.9l-9.81,1.34" transform="translate(-30.24 -7.71)"/><path d="M68.29,436.92l6.93.81v-13l-8.09,1.1,1.17,11.11ZM76,439.48h-.09l-8.49-1a.82.82,0,0,1-.72-.73l-1.32-12.57a.83.83,0,0,1,.71-.9L75.93,423a.82.82,0,0,1,.65.2.8.8,0,0,1,.28.61v14.9a.81.81,0,0,1-.28.61.79.79,0,0,1-.55.21" transform="translate(-30.24 -7.71)"/><path class="cls-4" d="M77.37,460.53a59.33,59.33,0,0,1-16.16,0A3.8,3.8,0,0,1,58,455.86c1.5-6.1,4.08-17.67,8.52-23l1.1,2.91L69.18,433a1.36,1.36,0,0,1,1-.69l3.33-.42A1.35,1.35,0,0,1,75,433l.53,2.52,1.16-3.31,3.88,24.12a3.79,3.79,0,0,1-3.22,4.25" transform="translate(-30.24 -7.71)"/><path d="M66.32,434.52c-3.52,5.19-5.78,14.49-7.17,20.21l-.32,1.32a3,3,0,0,0,2.49,3.66,58.2,58.2,0,0,0,15.93,0,3,3,0,0,0,2.52-3.33l-3.36-20.9-.09.26a.84.84,0,0,1-.83.55.82.82,0,0,1-.75-.65l-.53-2.52a.54.54,0,0,0-.58-.42l-3.33.42a.54.54,0,0,0-.4.27l-1.52,2.74a.82.82,0,0,1-.78.42.84.84,0,0,1-.71-.53l-.57-1.51Zm11.05,26Zm-8,1.37a60.23,60.23,0,0,1-8.24-.56,4.62,4.62,0,0,1-3.87-5.67l.32-1.32c1.54-6.32,4.11-16.9,8.37-22a.81.81,0,0,1,.77-.29.83.83,0,0,1,.64.52l.47,1.26.67-1.19a2.18,2.18,0,0,1,1.62-1.1l3.33-.42a2.18,2.18,0,0,1,2.31,1.4l.21-.58a.82.82,0,0,1,1.58.14l3.88,24.12a4.62,4.62,0,0,1-3.92,5.19,57.93,57.93,0,0,1-8.15.56" transform="translate(-30.24 -7.71)"/><path class="cls-5" d="M67.53,457.86a32.26,32.26,0,0,1-7.23-.77.82.82,0,1,1,.36-1.6c8.23,1.88,16.88-.54,17-.56a.82.82,0,1,1,.46,1.58,41.83,41.83,0,0,1-10.55,1.35" transform="translate(-30.24 -7.71)"/><path class="cls-5" d="M65.5,448.52a.83.83,0,0,1,0-1.65l8-.26a.82.82,0,0,1,.06,1.64l-8,.26h0" transform="translate(-30.24 -7.71)"/><path class="cls-5" d="M106,418.41l1.27,18.33H117.5l.47-18.33H106" transform="translate(-30.24 -7.71)"/><path d="M108.05,435.92h8.65l.44-16.69H106.89Zm9.46,1.65H107.29a.82.82,0,0,1-.82-.77l-1.27-18.33a.8.8,0,0,1,.22-.62.81.81,0,0,1,.6-.26h12a.82.82,0,0,1,.59.25.78.78,0,0,1,.23.59l-.47,18.33a.83.83,0,0,1-.82.8" transform="translate(-30.24 -7.71)"/><path class="cls-4" d="M104.61,447.09a3.68,3.68,0,0,0,2.85,3.65c5.88,1.37,19.11,4.42,22.89,5,4.9.72,10.92-.78,13.52-3.64s-5.8-9.71-9.78-12.2c-5.92-3.7-11.6-11-14-11.34s-6.83,6.58-6.83,6.58L106,432.06a89.77,89.77,0,0,0-1.4,15" transform="translate(-30.24 -7.71)"/><path d="M105.43,447.11a2.88,2.88,0,0,0,2.21,2.84c5.61,1.3,19.06,4.4,22.83,5,4.73.7,10.46-.81,12.79-3.38a1.12,1.12,0,0,0,.26-1c-.38-2.71-6-7.52-9.86-10a56.3,56.3,0,0,1-8.42-7c-2.11-2-4.3-4.08-5.23-4.21-1.1-.16-4,3.09-6,6.21a.83.83,0,0,1-1,.31l-6.33-2.66a95.61,95.61,0,0,0-1.2,13.89Zm27.47,9.61a18.14,18.14,0,0,1-2.67-.19c-3.83-.57-17.33-3.68-23-5a4.52,4.52,0,0,1-3.48-4.46,90.63,90.63,0,0,1,1.42-15.18.8.8,0,0,1,.42-.56.82.82,0,0,1,.7,0L113,434.1c1.44-2.14,4.81-6.71,7.26-6.37,1.39.19,3.15,1.8,6.14,4.64a55.17,55.17,0,0,0,8.16,6.82c2.58,1.61,10.06,7.11,10.62,11.13a2.76,2.76,0,0,1-.66,2.32c-2.25,2.48-7,4.09-11.58,4.09" transform="translate(-30.24 -7.71)"/><path class="cls-5" d="M132.82,453.35c-10.73,0-25-5.78-25.84-6.11a.82.82,0,1,1,.62-1.52c.26.1,26,10.48,33.41,3.74a.82.82,0,1,1,1.1,1.22c-2.15,1.94-5.49,2.66-9.29,2.66" transform="translate(-30.24 -7.71)"/><path class="cls-5" d="M121.48,442.26a.82.82,0,0,1-.55-1.43l5.2-4.69a.82.82,0,0,1,1.16.06.81.81,0,0,1-.06,1.16l-5.2,4.69a.82.82,0,0,1-.55.21" transform="translate(-30.24 -7.71)"/><path class="cls-4" d="M63.32,298.88S60.15,356.2,58.49,376s3.88,51.59,3.88,51.59l15.78-.83s1.08-38.67,2.26-49.41c0,0,6.66-14.56,8.64-27.54s8.71-33.49,8.71-33.49,5.46,102.36,6,110.41c0,0,12.38.55,16.81-2.24,0,0,7.86-37.33,6.73-57.64s.11-70.76.11-70.76l-64.07,2.81" transform="translate(-30.24 -7.71)"/><path class="cls-3" d="M77.5,378.16H72.68a.82.82,0,0,1,0-1.64H77.5a.82.82,0,0,1,0,1.64" transform="translate(-30.24 -7.71)"/><path class="cls-3" d="M111.85,407.93h0a.82.82,0,0,1-.8-.84c.17-9.55,10.6-26.59,11-27.31a.82.82,0,0,1,1.4.86c-.1.18-10.64,17.38-10.81,26.48a.83.83,0,0,1-.82.81" transform="translate(-30.24 -7.71)"/><path class="cls-5" d="M132.39,207.21c1.15-.09,6.79,11.46,24.43,11S188.62,198,188.62,198s6.09-10.28,10.72-14,5.35-4.2,5.35-4.2a3.76,3.76,0,0,1,0,4.2,65.55,65.55,0,0,1-5.45,6.53,5.86,5.86,0,0,1,2.42,7.47c-2.29,5.8-8.73,5.33-8.73,5.33s-13.08,57.92-67.15,30.4l6.61-26.48" transform="translate(-30.24 -7.71)"/><path class="cls-3" d="M126.73,233.25c15.66,7.83,29.3,9.13,40.55,3.85,19-8.9,24.78-33.74,24.84-34a.82.82,0,0,1,.86-.64c.24,0,5.88.34,7.91-4.81a5,5,0,0,0-2-6.44.85.85,0,0,1-.42-.59.83.83,0,0,1,.21-.69,65.11,65.11,0,0,0,5.36-6.4,3,3,0,0,0,.39-2.51c-.72.55-2.06,1.61-4.53,3.59-4.46,3.58-10.47,13.67-10.53,13.77a.21.21,0,0,1,0,.06c-.59.82-14.6,20.08-32.45,20.57-14.36.41-20.92-6.9-23.71-10l-.27-.3-6.14,24.56Zm25.85,8.68c-8.27,0-17.35-2.51-27.18-7.51a.83.83,0,0,1-.43-.93L131.58,207a.82.82,0,0,1,.73-.62c.64-.06,1.08.43,2,1.49,2.64,3,8.83,9.84,22.44,9.47,16.73-.46,30.54-19,31.14-19.86s6.29-10.48,10.89-14.18,5.38-4.22,5.41-4.24a.82.82,0,0,1,1.11.19,4.58,4.58,0,0,1,0,5.14,57,57,0,0,1-4.9,6,6.58,6.58,0,0,1,1.93,7.9c-2,5.11-7,5.78-8.85,5.85-1.07,4-7.64,26-25.58,34.48a35.8,35.8,0,0,1-15.4,3.34" transform="translate(-30.24 -7.71)"/><path class="cls-3" d="M44.94,233.69s5.29-34.18,24-42.59,44-7.23,51-3,25.17,23.18,25.17,23.18L129,233.68s3.67,60.41.77,76.35c0,0-17.88,2.08-25.47-.9s-32.52-7.17-44.44-1.7L62.06,231l-17.12,2.72" transform="translate(-30.24 -7.71)"/><path class="cls-4" d="M76.09,304c11.36,0,23.63,2.48,28.54,4.42,6.53,2.57,21.28,1.24,24.46.92,2.66-16.54-.85-75-.89-75.56a.78.78,0,0,1,.15-.53L144,211.33c-2.91-3-18.34-18.84-24.53-22.56-6.51-3.92-31.61-5.29-50.23,3.09-16.2,7.28-22.21,34.92-23.33,40.84l16-2.54a.81.81,0,0,1,.67.19.83.83,0,0,1,.28.64l-2.13,75.2c4.2-1.61,9.66-2.23,15.34-2.23Zm41.1,7.62c-4.79,0-9.87-.38-13.16-1.68-7.82-3.08-32.47-6.92-43.8-1.71a.87.87,0,0,1-.8-.06.82.82,0,0,1-.37-.71l2.14-75.49-16.15,2.56a.81.81,0,0,1-.94-.93c.22-1.42,5.58-34.72,24.47-43.21,18.53-8.33,44.17-7.56,51.76-3,7,4.2,24.59,22.54,25.34,23.32a.81.81,0,0,1,.07,1l-15.9,22.2c.3,5.09,3.55,60.8.74,76.26a.83.83,0,0,1-.71.67,121.77,121.77,0,0,1-12.7.72" transform="translate(-30.24 -7.71)"/><path class="cls-4" d="M76.32,292.51a.83.83,0,0,1-.81-.68.81.81,0,0,1,.67-.95c28.23-5,36.47-24.51,36.56-24.7a.82.82,0,0,1,1.07-.45.81.81,0,0,1,.45,1.07c-.08.2-8.63,20.55-37.79,25.7l-.15,0" transform="translate(-30.24 -7.71)"/><path class="cls-2" d="M127.67,257.57H91.27l11.4-40.66h36.4l-11.4,40.66" transform="translate(-30.24 -7.71)"/><path class="cls-5" d="M48.15,233.82l18.42-8.23s-2.59,31.22,34.68,16.8a26.7,26.7,0,0,1-1.18-8.7c.19-4.69,3-.15,3.39,3.66s9.14,2.27,14.4.76,12.16-.52,0,6.19S103,248,103,248,87.5,269.74,68.18,265.12c-23.77-5.68-20-31.31-20-31.31" transform="translate(-30.24 -7.71)"/><path class="cls-3" d="M48.91,234.38a35.69,35.69,0,0,0,1.15,12.79c2.63,9.11,8.79,14.89,18.32,17.16,18.57,4.44,33.84-16.58,34-16.79a.83.83,0,0,1,1.29-.06s2.73,2.23,13.82-3.89c6.47-3.57,6.35-4.87,6.35-4.88-.24-.42-2.67-.68-5.73.2-2.5.71-10.91,2.88-14.13.7a2.94,2.94,0,0,1-1.32-2.17,10.54,10.54,0,0,0-1.65-4.67,5.18,5.18,0,0,0-.11,1,26.32,26.32,0,0,0,1.14,8.4.82.82,0,0,1-.48,1c-12.85,5-22.51,5.14-28.7.51-6.49-4.86-7.15-13.46-7.14-16.79l-16.8,7.51Zm24.66,32.2a23.6,23.6,0,0,1-5.58-.66c-24.22-5.79-20.69-32-20.65-32.23a.81.81,0,0,1,.47-.63l18.43-8.23a.81.81,0,0,1,.81.08.8.8,0,0,1,.34.74c0,.11-.83,11.27,6.44,16.7,5.6,4.19,14.48,4,26.41-.46a27.09,27.09,0,0,1-1-8.24c0-.68.11-2.74,1.54-2.78h0c1.83,0,3.22,4.15,3.45,6.39a1.24,1.24,0,0,0,.6,1c2,1.32,7.81.49,12.76-.92,2.65-.76,6.9-1.18,7.69.76.71,1.71-1.47,3.85-7.07,6.94-9.37,5.17-13.45,4.74-15,4.08-2.45,3.16-14.47,17.49-29.67,17.49" transform="translate(-30.24 -7.71)"/><path class="cls-6" d="M97.32,175.53c-1.59,1.46-4.7,3.23-7.14,2-1.81-.91-2.82-3.28-2.76-6a3.66,3.66,0,0,1-2.73-.68c-1.21-1.07-1-3-.93-4.33.22-6-3.24-6.88-2.4-10.93A9.65,9.65,0,0,1,85,150.18c2.35-1.79,4-1.21,7.92-2.25,6.67-1.75,6.88-4.63,11.28-4.64.25,0,6.23.07,8.27,4.2,1.65,3.36-.28,7.45-2.27,9.6-2.58,2.78-4.44,1.41-7,3.73-4.55,4.09-1.11,10.38-5.84,14.7" transform="translate(-30.24 -7.71)"/><path class="cls-5" d="M110.64,164.89l-.26-.23c-1.32-1.14-2.7-2.46-3-4.17-1.49-7.26-8.14-9.89-8.44-3.22-.08,1.68-6.22,1.59-5.49,3.35,1.9,4.6,1.94,3.37-.74,5.06a2.36,2.36,0,0,0-.89.21,3.08,3.08,0,0,0-1.09,4.17A3.54,3.54,0,0,0,92.87,172v7.27a6.73,6.73,0,0,1-4.17,6.22l-2.46,1s11.45,7.47,23.07-.73l-1.55-.69a7.82,7.82,0,0,1-4.62-6.9v-1.42a5.91,5.91,0,0,0,2.23-.19c3.25-.94,4.33-4.69,3.78-9.34l1.32-.71a1,1,0,0,0,.18-1.64" transform="translate(-30.24 -7.71)"/><path class="cls-6" d="M88.13,186.63a20,20,0,0,0,19.47-.71l-.19-.08a8.67,8.67,0,0,1-5.1-7.62l0-1.44a.8.8,0,0,1,.27-.61.82.82,0,0,1,.63-.22,5.09,5.09,0,0,0,1.94-.16c3.66-1.06,3.45-6.27,3.19-8.46a.82.82,0,0,1,.43-.82l1.32-.71a.15.15,0,0,0,.09-.14.19.19,0,0,0-.06-.16l-.27-.22c-1.39-1.2-2.91-2.64-3.31-4.63-.89-4.31-3.59-6.53-5.11-6.4s-1.67,2.17-1.71,3.05c-.06,1.4-1.79,1.88-3.46,2.35a8.2,8.2,0,0,0-2.06.74c.26.63.48,1.14.66,1.56.91,2.09,1.21,2.79-.63,3.78-.3.16-.68.36-1.13.65a1,1,0,0,1-.41.13,1.24,1.24,0,0,0-.58.14,1.69,1.69,0,0,0-.9,1.17,2.85,2.85,0,0,0,.21,1.91,2.72,2.72,0,0,0,1.67,1.51.83.83,0,0,1,.59.79v7.27a7.5,7.5,0,0,1-4.68,7l-.86.36Zm9.43,3.79a23.83,23.83,0,0,1-11.78-3.22.82.82,0,0,1,.14-1.45l2.45-1A5.88,5.88,0,0,0,92,179.29v-6.71a4.63,4.63,0,0,1-2.41-5.19,3.34,3.34,0,0,1,1.8-2.24,3.18,3.18,0,0,1,1-.27c.42-.26.77-.44,1.06-.6l.47-.26a13.27,13.27,0,0,0-.57-1.41c-.19-.45-.43-1-.71-1.67a1.42,1.42,0,0,1,0-1.21c.43-.9,1.69-1.25,3.15-1.66a6.93,6.93,0,0,0,2.26-.88c.2-4,2.52-4.52,3.22-4.57,2.49-.17,5.82,2.7,6.85,7.71.3,1.48,1.59,2.69,2.78,3.71l.26.23a1.78,1.78,0,0,1,.62,1.57,1.83,1.83,0,0,1-.94,1.41l-.84.45c.48,5.2-1.11,8.71-4.42,9.67a6.25,6.25,0,0,1-1.64.24v.57a7.05,7.05,0,0,0,4.14,6.15l1.55.7a.83.83,0,0,1,.48.67.81.81,0,0,1-.34.75,20.76,20.76,0,0,1-12.22,4" transform="translate(-30.24 -7.71)"/><path class="cls-6" d="M103.12,177.59H103A10.35,10.35,0,0,1,95.86,173a.83.83,0,0,1,.3-1.12.84.84,0,0,1,1.13.3,8.8,8.8,0,0,0,5.95,3.81.82.82,0,0,1-.12,1.63" transform="translate(-30.24 -7.71)"/><path class="cls-3" d="M365.11,364.53a8,8,0,0,0,2.65-5.65c0-6.71-10.4-12.15-23.22-12.15s-23.22,5.44-23.22,12.15a8,8,0,0,0,2.65,5.65,8,8,0,0,0-2.65,5.64c0,3.19,2.34,6.08,6.17,8.26a5,5,0,0,0-.14,1.1c0,5,7.7,9,17.19,9s17.19-4,17.19-9a4.48,4.48,0,0,0-.14-1.1c3.83-2.17,6.17-5.07,6.17-8.26a8,8,0,0,0-2.65-5.64" transform="translate(-30.24 -7.71)"/><path class="cls-5" d="M406.86,264.83A62.32,62.32,0,1,0,300.7,309.12,64.86,64.86,0,0,1,318,338.84l.14.55A24.9,24.9,0,0,0,342.22,358h4.65A24.9,24.9,0,0,0,371,339.39l.08-.33a63.67,63.67,0,0,1,17-29.62,62.15,62.15,0,0,0,18.8-44.61" transform="translate(-30.24 -7.71)"/><path class="cls-3" d="M344.54,203.33A61.66,61.66,0,0,0,283,264.41a61,61,0,0,0,18.24,44.13,65.75,65.75,0,0,1,17.51,30.1l.14.55a24.08,24.08,0,0,0,23.3,18h4.65a24.06,24.06,0,0,0,23.29-18l.09-.33a64.44,64.44,0,0,1,17.24-30,61.5,61.5,0,0,0-42.95-105.53Zm2.32,155.51h-4.65a25.72,25.72,0,0,1-24.89-19.24l-.14-.54a64.16,64.16,0,0,0-17.07-29.35,63.15,63.15,0,1,1,88.52.31,62.87,62.87,0,0,0-16.8,29.24l-.09.33a25.72,25.72,0,0,1-24.88,19.24" transform="translate(-30.24 -7.71)"/><path class="cls-2" d="M348.87,349a.82.82,0,0,1-.82-.74c-3.14-33.94,13.15-87.67,13.31-88.21a.83.83,0,0,1,1.58.49c-.17.53-16.36,54-13.25,87.57a.82.82,0,0,1-.74.89h-.08" transform="translate(-30.24 -7.71)"/><path class="cls-2" d="M341.17,347.55a.83.83,0,0,1-.82-.81c-1.18-64.85-14-83.37-14.09-83.55a.82.82,0,0,1,1.33-1c.54.74,13.21,18.95,14.4,84.49a.81.81,0,0,1-.81.83h0" transform="translate(-30.24 -7.71)"/><path class="cls-2" d="M349.81,253.4c-.66.47-1.95,3.34-1.82,6.33a12.39,12.39,0,0,0,1.38,5,15.89,15.89,0,0,0,1.45-4.89c.34-3-.44-5.91-1-6.48Zm-9.89,2c-.54.13-1.65,3-1.29,6.11a12.62,12.62,0,0,0,1.61,4.76,9.73,9.73,0,0,0,1.89-6.28c-.21-2.5-1.71-4.59-2.21-4.59ZM344.34,271h-.21a5.86,5.86,0,0,1-4.08-2.26,6,6,0,0,1-3.54,1.27c-3.27.05-6.42-2.54-7.66-6.34a.81.81,0,0,1,.53-1,.83.83,0,0,1,1,.53c1,3,3.49,5.21,6,5.21h.08a4.4,4.4,0,0,0,2.6-.95,14.35,14.35,0,0,1-2.07-5.77c-.3-2.63.32-5.75,1.4-7.1a2,2,0,0,1,1.34-.82,2.06,2.06,0,0,1,1.54.55,8.85,8.85,0,0,1,2.49,5.53,11.21,11.21,0,0,1-2.54,7.81,4.37,4.37,0,0,0,3,1.74c1.6.08,3.08-1.17,4.23-2.93a14,14,0,0,1-2.08-6.62c-.14-3.17,1.06-6.37,2.26-7.52a1.55,1.55,0,0,1,2.48.09c1.08,1.31,1.68,4.76,1.35,7.69a17.57,17.57,0,0,1-2,6.26,3,3,0,0,0,2.22,1.21c1.6,0,3.43-2,4.44-4.74a.81.81,0,0,1,1.05-.49.83.83,0,0,1,.49,1.05c-1.28,3.5-3.62,5.79-6,5.82a4.35,4.35,0,0,1-3.16-1.42c-1.37,1.9-3.13,3.24-5.16,3.24" transform="translate(-30.24 -7.71)"/><path class="cls-2" d="M363.63,230.72c2,1.92,4.2,3.56,6.1,5.56a51.79,51.79,0,0,1,5.42,7.16,45.84,45.84,0,0,1,4.14,7.6,38.92,38.92,0,0,1,1.13,3.82c.55,1.94,1.45,6.32,4.08,6.49,1.46.09,2.51-1.4,3.18-2.47a14.3,14.3,0,0,0,1.9-6.42,29.38,29.38,0,0,0-2.7-13.68,40.13,40.13,0,0,0-8-12,29.77,29.77,0,0,0-4.66-4l-.15-.12c-2-1.49-4.13-3-6.66-3.22a7.76,7.76,0,0,0-5.48,1.63c-3.66,3-.95,7.09,1.71,9.67" transform="translate(-30.24 -7.71)"/><path class="cls-2" d="M358.22,220.7a6.62,6.62,0,0,0-.76-6.22.52.52,0,0,0-.06-.16,4.82,4.82,0,0,0-8.87,1.54c-.86,4.58,7.18,10,9.69,4.83" transform="translate(-30.24 -7.71)"/><path class="cls-2" d="M363.13,310.19a.83.83,0,0,1-.76-.49.82.82,0,0,1,.43-1.08,49,49,0,0,0,26.32-27.76.83.83,0,0,1,1.06-.48.82.82,0,0,1,.48,1.06,50.58,50.58,0,0,1-27.21,28.69.71.71,0,0,1-.32.07" transform="translate(-30.24 -7.71)"/><path class="cls-2" d="M307,298.21a.8.8,0,0,1-.6-.27,50.33,50.33,0,0,1,15.11-79.28.82.82,0,0,1,1.1.38.8.8,0,0,1-.39,1.09,48.68,48.68,0,0,0-14.61,76.69.81.81,0,0,1,0,1.16.85.85,0,0,1-.56.21" transform="translate(-30.24 -7.71)"/><path class="cls-2" d="M316.38,299.28a.76.76,0,0,1-.47-.16,42.13,42.13,0,0,1-1.75-67.52.83.83,0,0,1,1.16.14.82.82,0,0,1-.14,1.15,40.47,40.47,0,0,0,1.68,64.88.83.83,0,0,1-.47,1.5" transform="translate(-30.24 -7.71)"/><path class="cls-2" d="M335.79,368.43a70,70,0,0,1-10-.64.81.81,0,0,1-.68-.94.82.82,0,0,1,.94-.68c.2,0,20.29,3.13,36.81-4.83a.82.82,0,1,1,.71,1.48c-9.53,4.59-20.2,5.6-27.76,5.6" transform="translate(-30.24 -7.71)"/><path class="cls-2" d="M338.28,379.36a51.69,51.69,0,0,1-7.43-.49.81.81,0,0,1-.68-.94.82.82,0,0,1,.94-.68c.15,0,14.69,2.26,26.64-3.49a.83.83,0,0,1,1.1.39.82.82,0,0,1-.39,1.09c-7,3.38-14.69,4.13-20.18,4.13" transform="translate(-30.24 -7.71)"/></svg>