<svg id="Layer_1" data-name="Layer 1" xmlns="http://www.w3.org/2000/svg" viewBox="0 0 445.66 454.73"><defs><style>.cls-1{fill:#f6c6c6;}.cls-2{fill:#29445c;}.cls-3{fill:#fff;}.cls-4{fill:#436484;}.cls-5{fill:#332d2a;}.cls-6{fill:#d4d3d2;}.cls-7{fill:#d9c4a1;}.cls-8{fill:#070707;}</style></defs><path class="cls-1" d="M139.33,397.76c8.85-6.32,18-12.21,27.33-17.83,18.9-11.41,38.5-21.6,58.23-31.48,10.38-5.2,21-9.9,31.59-14.74s21.25-9.69,31.89-14.51q14.58-6.6,29.15-13.23c32.33-68.55,68-146.27,63.65-146.27L50,150.32a14.22,14.22,0,0,0-14.21,14.19V394.24A14.22,14.22,0,0,0,50,408.44H124c5-3.68,10.24-7.07,15.3-10.68" transform="translate(-34.92 -25.05)"/><path class="cls-2" d="M381.14,160.54h0Zm-331.2-9.39a13.38,13.38,0,0,0-13.35,13.36V394.24A13.38,13.38,0,0,0,50,407.6h73.8c2.77-2,5.63-4,8.41-5.89,2.2-1.51,4.47-3.07,6.68-4.64,8.18-5.84,17.14-11.68,27.38-17.86,20-12,40.67-22.69,58.29-31.51,8.05-4,16.39-7.82,24.45-11.48l7.17-3.27c10.55-4.84,21.11-9.62,31.89-14.51,9.39-4.24,19.08-8.64,28.88-13.1,55.15-116.93,63.9-141.27,63.83-144.82L50,151.14Zm74.37,258.12H50a15.05,15.05,0,0,1-15-15V164.51a15.05,15.05,0,0,1,15-15l331.23,9.39a1.11,1.11,0,0,1,.94.53c.85,1.35,3.13,4.93-63.86,146.93l-.13.28-.28.13c-9.89,4.51-19.68,8.95-29.15,13.24-10.78,4.89-21.33,9.67-31.89,14.5l-7.17,3.27c-8.05,3.66-16.38,7.44-24.39,11.45C207.67,358,187,368.63,167.09,380.65c-10.21,6.16-19.14,12-27.28,17.79l-.48-.68.48.68c-2.22,1.58-4.5,3.15-6.71,4.66-2.83,1.95-5.77,3.95-8.58,6l-.22.16" transform="translate(-34.92 -25.05)"/><path class="cls-3" d="M392.18,152.29H56.72a13.4,13.4,0,0,0-13.41,13.39V395.41A13.4,13.4,0,0,0,56.72,408.8H392.17a13.39,13.39,0,0,0,13.41-13.39V165.68a13.39,13.39,0,0,0-13.41-13.39" transform="translate(-34.92 -25.05)"/><path class="cls-4" d="M56.72,152a12.58,12.58,0,0,0-12.57,12.56V394.25a12.58,12.58,0,0,0,12.57,12.56H392.17a12.58,12.58,0,0,0,12.57-12.56V164.52A12.58,12.58,0,0,0,392.17,152ZM392.18,408.47H56.72a14.25,14.25,0,0,1-14.24-14.22V164.52A14.25,14.25,0,0,1,56.72,150.3H392.17a14.25,14.25,0,0,1,14.24,14.22V394.25a14.25,14.25,0,0,1-14.24,14.22" transform="translate(-34.92 -25.05)"/><path class="cls-4" d="M192.39,408.66H55.44a10,10,0,1,0,0,20h141c5.53,0-4.09-20-4.09-20" transform="translate(-34.92 -25.05)"/><path class="cls-5" d="M55.44,409.49a9.17,9.17,0,1,0,0,18.34h141a.59.59,0,0,0,.6-.29c1.39-2.21-2.38-12-5.22-18.05Zm141,20h-141a10.83,10.83,0,1,1,0-21.66H192.91l.22.47c1.3,2.71,7.68,16.43,5.35,20.13a2.27,2.27,0,0,1-2,1.07" transform="translate(-34.92 -25.05)"/><path class="cls-3" d="M469.74,408.66H146.48a10,10,0,1,0,0,20H469.74a10,10,0,1,0,0-20" transform="translate(-34.92 -25.05)"/><path class="cls-5" d="M146.47,409.49a9.17,9.17,0,1,0,0,18.34H469.74a9.17,9.17,0,1,0,0-18.34Zm323.27,20H146.47a10.83,10.83,0,1,1,0-21.66H469.74a10.83,10.83,0,1,1,0,21.66" transform="translate(-34.92 -25.05)"/><path class="cls-1" d="M382.64,263.73a.83.83,0,0,1-.83-.83V174.23a5.82,5.82,0,0,0-5.82-5.81H334a.83.83,0,0,1,0-1.66h42a7.48,7.48,0,0,1,7.48,7.48v88.67a.83.83,0,0,1-.83.83" transform="translate(-34.92 -25.05)"/><path class="cls-1" d="M64.37,206.36a.83.83,0,0,1-.83-.83v-31.3A7.49,7.49,0,0,1,71,166.75H172.91a.83.83,0,1,1,0,1.66H71a5.82,5.82,0,0,0-5.82,5.81v31.3a.83.83,0,0,1-.83.83" transform="translate(-34.92 -25.05)"/><path class="cls-1" d="M293.6,396.08H116a.83.83,0,0,1,0-1.66H293.6a.83.83,0,0,1,0,1.66" transform="translate(-34.92 -25.05)"/><path class="cls-4" d="M249.53,386.72H196.46a7.49,7.49,0,0,1-7.48-7.48V213.93a7.49,7.49,0,0,1,7.48-7.48h17a.83.83,0,1,1,0,1.66h-17a5.82,5.82,0,0,0-5.82,5.81V379.23a5.82,5.82,0,0,0,5.82,5.81h53.07a.83.83,0,1,1,0,1.66" transform="translate(-34.92 -25.05)"/><path class="cls-4" d="M368.61,259.35a.83.83,0,0,1-.83-.83V213.93a5.82,5.82,0,0,0-5.82-5.81l-57.58.13h0a.83.83,0,0,1-.83-.83.82.82,0,0,1,.83-.83l57.58-.13a7.49,7.49,0,0,1,7.49,7.48v44.59a.83.83,0,0,1-.83.83" transform="translate(-34.92 -25.05)"/><path class="cls-1" d="M235.31,373l-16.08,0L219,256.35l16.08,0L235.32,373" transform="translate(-34.92 -25.05)"/><path class="cls-4" d="M235.31,373l-16.08,0-.17-75.3,16.08,0,.17,75.3" transform="translate(-34.92 -25.05)"/><path class="cls-1" d="M265.45,372.94l-16.08.05-.22-99.5,16.08-.05.22,99.5" transform="translate(-34.92 -25.05)"/><path class="cls-4" d="M265.45,372.94l-16.08.05-.13-57,16.08-.05.13,57" transform="translate(-34.92 -25.05)"/><path class="cls-1" d="M293.6,373.4l-16.08,0-.2-90.35,16.08,0,.2,90.35" transform="translate(-34.92 -25.05)"/><path class="cls-4" d="M293.6,373.4l-16.08,0-.09-41.95,16.08-.05.09,41.95" transform="translate(-34.92 -25.05)"/><path class="cls-6" d="M322.49,374.4l-16.08.05L306.15,271l16.08,0,.27,103.42" transform="translate(-34.92 -25.05)"/><path class="cls-7" d="M322.49,374.4l-16.08.05-.22-97.35,16.08,0,.22,97.34" transform="translate(-34.92 -25.05)"/><path class="cls-6" d="M351.64,373.78l-16.08,0-.24-92,16.08,0,.25,92" transform="translate(-34.92 -25.05)"/><path class="cls-7" d="M351.64,373.78l-16.08,0-.16-16.16,16.08,0,.17,16.16" transform="translate(-34.92 -25.05)"/><path class="cls-5" d="M207.23,374.31a5.25,5.25,0,0,1-5.09-5.31l.35-137.36a.83.83,0,0,1,.83-.83h0a.84.84,0,0,1,.83.84L203.8,369a3.57,3.57,0,0,0,3.42,3.65h0L363,372.23h0a.83.83,0,0,1,0,1.66l-155.83.42h0" transform="translate(-34.92 -25.05)"/><path class="cls-1" d="M351.69,243.12H303.25V234h48.44v9.11" transform="translate(-34.92 -25.05)"/><path class="cls-1" d="M351.69,229.28H303.25v-9.11h48.44v9.11" transform="translate(-34.92 -25.05)"/><path class="cls-1" d="M128.91,217.13H95.56a3.79,3.79,0,0,1-3.78-3.78V212a3.79,3.79,0,0,1,3.78-3.78h33.35a3.79,3.79,0,0,1,3.78,3.78v1.32a3.79,3.79,0,0,1-3.78,3.78" transform="translate(-34.92 -25.05)"/><path class="cls-1" d="M164.08,217.13H147.53a3.79,3.79,0,0,1-3.78-3.78V212a3.79,3.79,0,0,1,3.78-3.78h16.55a3.79,3.79,0,0,1,3.78,3.78v1.32a3.79,3.79,0,0,1-3.78,3.78" transform="translate(-34.92 -25.05)"/><path class="cls-1" d="M164.08,236.84H95.56a3.79,3.79,0,0,1-3.78-3.78v-1.32A3.79,3.79,0,0,1,95.56,228h68.52a3.79,3.79,0,0,1,3.78,3.78v1.32a3.79,3.79,0,0,1-3.78,3.78" transform="translate(-34.92 -25.05)"/><path class="cls-1" d="M149.23,257.09H95.56a3.79,3.79,0,0,1-3.78-3.78V252a3.79,3.79,0,0,1,3.78-3.78h53.67A3.79,3.79,0,0,1,153,252v1.32a3.79,3.79,0,0,1-3.78,3.78" transform="translate(-34.92 -25.05)"/><path class="cls-1" d="M149.23,276.21H95.56a3.79,3.79,0,0,1-3.78-3.78v-1.32a3.79,3.79,0,0,1,3.78-3.78h53.67a3.79,3.79,0,0,1,3.78,3.78v1.32a3.79,3.79,0,0,1-3.78,3.78" transform="translate(-34.92 -25.05)"/><path class="cls-2" d="M163.43,337.29a33,33,0,0,1,0,7.56c-.46,5.06-1.22,8.85-3.58,13.16-1.89,3.44-3,7.13-5.92,9.79a35.61,35.61,0,0,1-59.62-22.06,36.25,36.25,0,0,1,31-40.54A35.45,35.45,0,0,1,133,305c1,.09,1.85,1,2.84,1.15a31.49,31.49,0,0,1,10.66,3.64,37,37,0,0,1,14.22,14.46c2.07,3.84,2.1,8.43,2.67,13" transform="translate(-34.92 -25.05)"/><path class="cls-4" d="M130.46,341.16l22.59,27.42a36.56,36.56,0,0,0,12.12-32.09,36.06,36.06,0,0,0-9.49-20.3l-25.22,25" transform="translate(-34.92 -25.05)"/><path class="cls-1" d="M133,305l-2.57,36.14,25.23-25A35.56,35.56,0,0,0,133,305" transform="translate(-34.92 -25.05)"/><path class="cls-3" d="M140.64,339.69A11,11,0,0,1,131.19,352,10.9,10.9,0,0,1,119,342.5a11,11,0,0,1,9.46-12.35,10.89,10.89,0,0,1,12.18,9.54" transform="translate(-34.92 -25.05)"/><path class="cls-3" d="M388.85,447l-2.31,16.22h-5l-.28-16,7.6-.27" transform="translate(-34.92 -25.05)"/><path class="cls-5" d="M382.35,462.4h3.47l2.07-14.52-5.79.2.25,14.32Zm4.19,1.67h-5a.83.83,0,0,1-.83-.82l-.28-15.95a.85.85,0,0,1,.81-.85l7.6-.27a.8.8,0,0,1,.65.28.79.79,0,0,1,.2.67l-2.31,16.22a.84.84,0,0,1-.83.72" transform="translate(-34.92 -25.05)"/><path class="cls-3" d="M386.74,478.74a40.08,40.08,0,0,1-10.88-.36,2.56,2.56,0,0,1-2-3.21c1.15-4.07,3.61-11.78,6.72-15.29l.68,2,1.09-1.81a.92.92,0,0,1,.69-.44l2.26-.21a.9.9,0,0,1,1,.74l.3,1.71.86-2.2,1.6,16.29a2.55,2.55,0,0,1-2.27,2.79" transform="translate(-34.92 -25.05)"/><path class="cls-2" d="M380.26,461.61c-2.55,3.7-4.59,10.07-5.64,13.78a1.73,1.73,0,0,0,1.37,2.17,39.07,39.07,0,0,0,10.65.35,1.73,1.73,0,0,0,1.53-1.88l-1.32-13.4a.89.89,0,0,1-.4.06.83.83,0,0,1-.73-.68l-.3-1.71s-.05-.07-.08-.06l-2.26.21s-.05,0-.06,0l-1.08,1.81a.82.82,0,0,1-.8.4.86.86,0,0,1-.7-.56l-.18-.52Zm6.48,17.13Zm-4.08,1a42,42,0,0,1-6.94-.58,3.4,3.4,0,0,1-2.7-4.26c1.21-4.28,3.71-12,6.9-15.61a.86.86,0,0,1,.79-.27.83.83,0,0,1,.62.55l.1.29.17-.27a1.74,1.74,0,0,1,1.33-.84l2.25-.21a1.77,1.77,0,0,1,1.52.63.84.84,0,0,1,.81-.38.83.83,0,0,1,.72.74l1.6,16.29a3.39,3.39,0,0,1-3,3.7,39.79,39.79,0,0,1-4.17.21" transform="translate(-34.92 -25.05)"/><path class="cls-2" d="M381.05,477a22.72,22.72,0,0,1-5.8-.7.83.83,0,1,1,.43-1.61,26.15,26.15,0,0,0,11.3,0,.83.83,0,1,1,.4,1.61,27.77,27.77,0,0,1-6.32.7" transform="translate(-34.92 -25.05)"/><path class="cls-2" d="M384.41,470.67H379a.83.83,0,0,1-.83-.83A.84.84,0,0,1,379,469h5.37a.84.84,0,0,1,0,1.67" transform="translate(-34.92 -25.05)"/><path class="cls-3" d="M431.33,448.46l2.08,18.9,8,1.67-.48-22.17-9.56,1.6" transform="translate(-34.92 -25.05)"/><path class="cls-5" d="M434.17,466.67l6.34,1.33-.44-20.16-7.83,1.31,1.93,17.52Zm7.2,3.19a.52.52,0,0,1-.17,0l-8-1.67a.84.84,0,0,1-.66-.72l-2.08-18.9a.83.83,0,0,1,.69-.91l9.56-1.6a.85.85,0,0,1,.67.18.79.79,0,0,1,.3.62L442.2,469a.84.84,0,0,1-.3.66.8.8,0,0,1-.53.19" transform="translate(-34.92 -25.05)"/><path class="cls-3" d="M430.05,477.28s-1-9.1,1.83-13.25l6.37,2.27v-1.36a.79.79,0,0,1,.71-.82l3.55-.2a7.8,7.8,0,0,1,3.85.79c4.26,2.09,14.05,7.47,13.73,12.64,0,0-7.7,1.91-30-.06" transform="translate(-34.92 -25.05)"/><path class="cls-2" d="M430.82,476.51c17.95,1.54,26.19.53,28.43.15-.43-3.17-5.28-7.3-13.24-11.21a6.92,6.92,0,0,0-3.44-.71l-3.47.2v1.35a.85.85,0,0,1-.36.68.79.79,0,0,1-.76.1l-5.73-2c-1.85,3.37-1.58,9.45-1.42,11.47Zm17.29,2.5c-4.52,0-10.46-.22-18.13-.9a.84.84,0,0,1-.76-.74c-.05-.38-1-9.45,2-13.81a.84.84,0,0,1,1-.32l5.26,1.87v-.18a1.62,1.62,0,0,1,1.49-1.65l3.56-.21a8.6,8.6,0,0,1,4.27.88c5.44,2.67,14.53,8,14.2,13.43a.84.84,0,0,1-.63.76c-.21.05-3.62.86-12.2.86" transform="translate(-34.92 -25.05)"/><path class="cls-2" d="M440.89,476.2a84.46,84.46,0,0,1-9.58-.53.83.83,0,1,1,.19-1.65,94.46,94.46,0,0,0,26-.91.83.83,0,1,1,.33,1.63,95.43,95.43,0,0,1-16.92,1.47" transform="translate(-34.92 -25.05)"/><path class="cls-2" d="M448.47,471.4a.82.82,0,0,1-.49-.16l-6.13-4.4a.84.84,0,0,1,1-1.36l6.13,4.41a.82.82,0,0,1,.19,1.16.84.84,0,0,1-.67.34" transform="translate(-34.92 -25.05)"/><path class="cls-4" d="M433.81,325.81s11.42,72.51,9,124.7l-12.7.33s-13.62-73.6-20.41-86.76c0,0-18.46,67.1-19.17,86.2,0,0-8.21.82-11.48-.35-1.76-18.44-2.29-34.11-2.38-46.09-.26-34.28,3-49.85,4.82-57.24,1.65-6.78,3.42-12.3,4.72-16l4.32-12.31,43.29,7.55" transform="translate(-34.92 -25.05)"/><path class="cls-2" d="M409.69,363.24a.81.81,0,0,1,.73.45c6.5,12.59,18.88,78.29,20.36,86.29l11.21-.29c2.14-49-7.86-116.18-8.93-123.17l-42-7.33L387,330.84c-1.81,5.2-3.39,10.57-4.7,15.94-2.18,8.94-5,24.58-4.8,57,.11,15,.89,30.32,2.32,45.46,2.72.71,8,.37,9.91.22,1.12-19.85,18.42-82.94,19.17-85.65a.85.85,0,0,1,.72-.61h.1Zm20.41,88.43a.84.84,0,0,1-.82-.68c-.13-.7-12.49-67.25-19.4-84.45-3.2,11.83-17.91,66.95-18.53,83.77a.84.84,0,0,1-.75.8c-.34,0-8.44.83-11.85-.4a.85.85,0,0,1-.55-.7c-1.46-15.38-2.27-30.91-2.38-46.17-.24-32.64,2.65-48.41,4.85-57.44,1.32-5.43,2.91-10.85,4.73-16.1L389.72,318a.83.83,0,0,1,.93-.54L433.94,325a.83.83,0,0,1,.68.69c.11.73,11.41,73.19,9,124.86a.83.83,0,0,1-.81.8l-12.7.33h0" transform="translate(-34.92 -25.05)"/><path class="cls-2" d="M410.36,363.39l-.21,0a.83.83,0,0,1-.59-1l2-7.55a.82.82,0,0,1,.64-.61l4.85-1a.83.83,0,1,1,.34,1.63l-4.34.9-1.83,7.06a.84.84,0,0,1-.8.63" transform="translate(-34.92 -25.05)"/><path class="cls-2" d="M432.69,261.49c-7.43-.84-23.15-2.32-34.21-1.41a16.37,16.37,0,0,0-9.23,3.81c-7.85,6.63-24.87,23.22-25.09,42.88l17.43-2.53s-6.16,22-5.73,25.57,11.21,9.56,24.7,4.63,32.92-4.34,39.2,0l.6-27.18h26.53S458.11,278.75,441.1,265a16.21,16.21,0,0,0-8.42-3.49" transform="translate(-34.92 -25.05)"/><path class="cls-3" d="M466.9,307.26s2.07,9.48-7.36,12.33-18.39-14.31-18.39-14.31l6.56-3.8,19.19,5.78" transform="translate(-34.92 -25.05)"/><path class="cls-5" d="M442.27,305.59c1.78,3.11,9.4,15.5,17,13.2s7.13-9,6.86-10.88l-18.34-5.53Zm15.1,15.14c-9,0-16.62-14.41-17-15.07a.83.83,0,0,1,.32-1.11l6.57-3.8a.84.84,0,0,1,.66-.07l19.18,5.78a.83.83,0,0,1,.57.62c0,.1,2.13,10.27-7.93,13.3a8.42,8.42,0,0,1-2.41.35" transform="translate(-34.92 -25.05)"/><path class="cls-1" d="M405.71,328.85h46.36a2.56,2.56,0,0,0,2.48-1.94l9.36-37.7a2.55,2.55,0,0,0-2.48-3.16H415.07a2.55,2.55,0,0,0-2.48,1.94l-9.36,37.69a2.56,2.56,0,0,0,2.48,3.17" transform="translate(-34.92 -25.05)"/><path class="cls-4" d="M415.07,286.89a1.71,1.71,0,0,0-1.67,1.31L404,325.89a1.68,1.68,0,0,0,.31,1.47,1.71,1.71,0,0,0,1.36.66h46.36a1.73,1.73,0,0,0,1.68-1.31L463.1,289a1.65,1.65,0,0,0-.31-1.47,1.71,1.71,0,0,0-1.36-.66Zm37,42.8H405.71a3.35,3.35,0,0,1-2.67-1.3,3.39,3.39,0,0,1-.62-2.9l9.36-37.69a3.38,3.38,0,0,1,3.29-2.57h46.36a3.35,3.35,0,0,1,2.67,1.3,3.4,3.4,0,0,1,.62,2.9l-9.36,37.7a3.39,3.39,0,0,1-3.29,2.57" transform="translate(-34.92 -25.05)"/><path class="cls-3" d="M460.47,304.79l-1.36,3.77L448,303.26s-6.13,5.3,8.73,12.1c6.19,2.83,3.78-10.57,3.78-10.57" transform="translate(-34.92 -25.05)"/><path class="cls-5" d="M448.17,304.28a3.13,3.13,0,0,0-.59,2.36c.27,1.78,2.13,4.6,9.46,7.95,1.28.59,1.76.21,1.92.09,1.07-.83,1.27-3.62,1.1-6.3l-.16.46a.8.8,0,0,1-.47.48.82.82,0,0,1-.67,0l-10.58-5Zm10.07,12.3a4.66,4.66,0,0,1-1.9-.46c-6.46-2.95-10-6.07-10.42-9.26a4.86,4.86,0,0,1,1.49-4.22.84.84,0,0,1,.9-.12l10.32,4.91,1.05-2.91a.84.84,0,0,1,.85-.55.82.82,0,0,1,.74.68c.17.93,1.55,9.13-1.31,11.35a2.78,2.78,0,0,1-1.73.58" transform="translate(-34.92 -25.05)"/><path class="cls-3" d="M394.9,285.6S374.06,297.28,369.76,301s-9,6.45-2.9,14.47,31.9-24.11,31.9-24.11,5,.82,6.7-5.93c0,0,8.38.3,8.68-2.33l-11.82-2.11a4.65,4.65,0,0,0-4.18,1.34l-3.24,3.31" transform="translate(-34.92 -25.05)"/><path class="cls-5" d="M394.9,285.6Zm6.59-3.89a3.87,3.87,0,0,0-2.76,1.16l-3.24,3.31a.9.9,0,0,1-.19.15c-.21.12-20.82,11.69-25,15.26-.34.29-.67.57-1,.84-4,3.33-6.88,5.73-1.77,12.5a2.35,2.35,0,0,0,2,1h.06c6.88,0,22.94-18.09,28.56-25.09a.83.83,0,0,1,.78-.3c.17,0,4.24.57,5.76-5.32a.79.79,0,0,1,.83-.62c2.78.09,5.85-.26,7.17-.92l-10.48-1.88a3.82,3.82,0,0,0-.68-.06Zm-31.95,35.84h-.08a4,4,0,0,1-3.27-1.61c-6.07-8-1.95-11.46,2-14.78l1-.83c4.2-3.58,23.39-14.39,25.17-15.39l3.16-3.23a5.48,5.48,0,0,1,4.92-1.57l11.82,2.11a.84.84,0,0,1,.68.91c-.33,2.88-6.24,3.12-8.89,3.08-1.68,5.48-5.55,6-6.94,5.94-2.56,3.15-21,25.38-29.59,25.38" transform="translate(-34.92 -25.05)"/><path class="cls-4" d="M424.3,247.91c.38.65-.4,1.92-.41,1.92s.38-3.71,2.44-4.64c1.19-.54,1.82.36,3.6.11a6.19,6.19,0,0,0,4.76-3.71c.95-2.48-.42-4.84-1.27-6.32a7.89,7.89,0,0,0-3.83-3.84c-2.46-.93-3.48.5-6.3-.38-2.29-.71-2.12-1.81-4.16-2.39-1.7-.48-6.59-.21-7.69,2.39-.7,1.65.8,2.65.06,5.09-.45,1.47-1.16,1.65-1.67,2.78-1.28,2.81.32,7.74,3.36,9.4,4.14,2.24,10.2-1.95,11.09-.41" transform="translate(-34.92 -25.05)"/><path class="cls-3" d="M422.54,249.9l1,7.88a3.69,3.69,0,0,0,2.73,3.12l4.06,1.06-12.51,9.52-14.06-10.66,5-1.12a3.67,3.67,0,0,0,2.82-2.94l2.1-11.61,8.85,4.76" transform="translate(-34.92 -25.05)"/><path class="cls-4" d="M405.65,261.23l12.13,9.19,10.65-8.09-2.4-.63a4.48,4.48,0,0,1-3.35-3.83l-.91-7.45-7.47-4-1.89,10.48A4.53,4.53,0,0,1,409,260.5l-3.29.73Zm12.13,11.07a.82.82,0,0,1-.51-.17l-14-10.65a.83.83,0,0,1-.31-.84.84.84,0,0,1,.63-.63l5-1.13a2.86,2.86,0,0,0,2.19-2.28l2.1-11.61a.82.82,0,0,1,.45-.6.85.85,0,0,1,.76,0l8.86,4.76a.82.82,0,0,1,.43.63l1,7.89a2.87,2.87,0,0,0,2.11,2.42l4.06,1.05a.82.82,0,0,1,.6.65.83.83,0,0,1-.31.82l-12.51,9.52a.87.87,0,0,1-.51.17" transform="translate(-34.92 -25.05)"/><path class="cls-3" d="M414.69,246.73s-3.11-1.17-1.94-3.74a1.76,1.76,0,0,1,3.07-.67s1.77-6.33,5.49-3.83a26.15,26.15,0,0,0,7.24,3.41,45.32,45.32,0,0,1-3.66,10.62c-1.42,2.56-3.21,4.34-5.33,3.47-5.8-2.35-4.86-9.25-4.86-9.25" transform="translate(-34.92 -25.05)"/><path class="cls-4" d="M415.52,246.85c0,.27-.76,6.3,4.35,8.37,1.4.56,2.84-.48,4.3-3.11a42.19,42.19,0,0,0,3.41-9.64,28.18,28.18,0,0,1-6.73-3.29,1.81,1.81,0,0,0-1.7-.35c-1.35.49-2.28,2.85-2.52,3.72a.82.82,0,0,1-.59.58.84.84,0,0,1-.8-.21,1.36,1.36,0,0,0-1-.42c-.35.06-.62.56-.75.85a1.51,1.51,0,0,0-.09,1.27A3.13,3.13,0,0,0,415,246a.83.83,0,0,1,.53.89ZM420.63,257a3.67,3.67,0,0,1-1.39-.28c-5.25-2.14-5.49-7.66-5.42-9.52a4.23,4.23,0,0,1-1.94-2,3.24,3.24,0,0,1,.11-2.6,2.79,2.79,0,0,1,2-1.8,2.44,2.44,0,0,1,1.42.19c.5-1.24,1.52-3.17,3.18-3.78a3.43,3.43,0,0,1,3.21.53,25.19,25.19,0,0,0,7,3.29.83.83,0,0,1,.61,1,45.37,45.37,0,0,1-3.75,10.85c-1.78,3.21-3.55,4.13-5,4.13" transform="translate(-34.92 -25.05)"/><path class="cls-3" d="M336.81,430.39c.28.43,10.81,15.47,10.81,15.47s-.27,3.83-3,4.58L332.1,436.9l4.71-6.52" transform="translate(-34.92 -25.05)"/><path class="cls-5" d="M333.17,436.83l11.68,12.63c1.38-.71,1.79-2.67,1.9-3.39-1.42-2-7.83-11.18-10-14.24l-3.63,5Zm11.46,14.44A.8.8,0,0,1,344,451L331.5,437.46a.82.82,0,0,1-.07-1l4.71-6.52a.81.81,0,0,1,.7-.34.84.84,0,0,1,.68.38c.26.4,7.88,11.29,10.79,15.45a.85.85,0,0,1,.15.54c0,.18-.34,4.43-3.6,5.32a.83.83,0,0,1-.22,0" transform="translate(-34.92 -25.05)"/><path class="cls-3" d="M353.36,448.51s-.9,11.88-6.15,18.13-13.68,4.25-13.68,4.25-.64-5.29.45-6.66,7.14-8.72,7.12-15.33l3.21-4.37L346.2,447l.81-4,6.34,5.53" transform="translate(-34.92 -25.05)"/><path class="cls-2" d="M334.3,470.18c1.91.29,8.19.79,12.28-4.08,4.48-5.33,5.7-15.13,5.92-17.25l-4.94-4.31-.53,2.6a.84.84,0,0,1-.63.65.82.82,0,0,1-.85-.3l-1.22-1.58-2.4,3.26c-.07,3.09-1.41,8.2-7.18,15.42l-.12.15c-.49.62-.56,3.18-.34,5.43Zm2.43,1.86a16,16,0,0,1-3.39-.34.83.83,0,0,1-.64-.71c-.12-.94-.62-5.71.63-7.28l.11-.15c5.65-7.07,6.83-11.88,6.82-14.66a.84.84,0,0,1,.16-.49l3.21-4.36a.83.83,0,0,1,.66-.34h0a.81.81,0,0,1,.66.32l.78,1,.45-2.22a.83.83,0,0,1,1.36-.46l6.34,5.53a.83.83,0,0,1,.28.69c0,.49-1,12.22-6.34,18.6a14.13,14.13,0,0,1-11.12,4.87" transform="translate(-34.92 -25.05)"/><path class="cls-3" d="M351.24,449s-1.36,19.74-16,19.31l16-19.31" transform="translate(-34.92 -25.05)"/><path class="cls-2" d="M335.68,469.11h-.49a.82.82,0,0,1-.8-.85.83.83,0,0,1,.83-.81h.46c13.28,0,14.68-17.78,14.73-18.55a.83.83,0,1,1,1.66.12c0,.2-1.56,20.09-16.39,20.09" transform="translate(-34.92 -25.05)"/><path class="cls-4" d="M313.23,325.36s-12.4,36.43-12.46,60.42,33.92,55.81,33.92,55.81l7-6.08s-12.5-13.23-14.9-31.15,4.88-51.73,4.88-51.73l2.71-23.89-21.17-3.39" transform="translate(-34.92 -25.05)"/><path class="cls-3" d="M331.5,443.3c.06.64-.6,9.66-3.41,15.32,0,0,1.29,4.15,5.25,3.41,0,0,6.08-11.56,7.36-19l-9.2.32" transform="translate(-34.92 -25.05)"/><path class="cls-5" d="M329,458.66a3.84,3.84,0,0,0,3.8,2.61c1-1.94,5.48-10.93,6.89-17.42l-7.38.26c-.16,2.55-1,9.67-3.31,14.56Zm3.43,4.29c-3,0-4.66-2.57-5.13-4.08a.85.85,0,0,1,.05-.61c2.73-5.53,3.35-14.32,3.32-14.89a.84.84,0,0,1,.21-.62.87.87,0,0,1,.58-.28l9.2-.32a.84.84,0,0,1,.66.29.79.79,0,0,1,.19.69c-1.28,7.53-7.19,18.82-7.44,19.3a.85.85,0,0,1-.58.43,5.84,5.84,0,0,1-1.07.1" transform="translate(-34.92 -25.05)"/><path class="cls-3" d="M335.55,457.7s1,11.82-.48,15.18a59.53,59.53,0,0,1-24.35,5.77A1.67,1.67,0,0,1,309,477a12.91,12.91,0,0,1,4.19-9.56c5.2-4.7,16.37-12.42,16.37-12.42l2.26,2.72-.95,4.31,4.65-4.32" transform="translate(-34.92 -25.05)"/><path class="cls-2" d="M329.44,456.11c-2.42,1.69-11.26,7.94-15.66,11.92a12.08,12.08,0,0,0-3.91,9,.82.82,0,0,0,.24.59.9.9,0,0,0,.66.25c11.6,0,21.85-4.68,23.64-5.54.86-2.46.67-9,.43-12.78l-3.37,3.14a.82.82,0,0,1-1,.11.83.83,0,0,1-.4-.9l.85-3.91-1.51-1.82Zm-18.66,23.37h-.06a2.51,2.51,0,0,1-1.79-.75,2.44,2.44,0,0,1-.72-1.77,13.78,13.78,0,0,1,4.46-10.17c5.18-4.68,16-12.17,16.45-12.49a.83.83,0,0,1,1.11.16l2.26,2.72a.86.86,0,0,1,.17.71l-.37,1.7,2.69-2.51a.83.83,0,0,1,1.39.53c0,.49,1,12.08-.55,15.59a.87.87,0,0,1-.38.4,59.85,59.85,0,0,1-24.67,5.86" transform="translate(-34.92 -25.05)"/><path class="cls-3" d="M334.2,469.38s-10.72,6.76-23.54,6l23.54-6" transform="translate(-34.92 -25.05)"/><path class="cls-2" d="M312.74,476.26c-.7,0-1.42,0-2.14-.06a.83.83,0,0,1,.1-1.66c12.42.73,22.94-5.79,23-5.86a.83.83,0,1,1,.89,1.41,45,45,0,0,1-21.9,6.18" transform="translate(-34.92 -25.05)"/><path class="cls-4" d="M351.26,325.36s7.85,52.58-10.56,122.08l-11.1-1.59s6-60.76-8.36-92.88l-3.2-29,33.22,1.42" transform="translate(-34.92 -25.05)"/><path class="cls-4" d="M347.7,244.69c1.49,3-.63,4,.41,9.83.76,4.26,2.29,5.88,1.27,8-.91,1.91-3.12,2.59-4.58,3.05-6.61,2.06-13-1.29-16.89-3.34-3.17-1.67-7.51-3.94-7.21-6.26s4.76-2,6.86-5.79c1.69-3.08-.25-5,1.53-7.61,2.3-3.37,7.68-3.23,8.54-3.21,3.46.09,8.24,1.66,10.07,5.33" transform="translate(-34.92 -25.05)"/><path class="cls-3" d="M310.76,262.32l17.39,4.35a.65.65,0,0,0,.75-.41c1.18-3.33-.66-7.05-1.2-8a.59.59,0,0,0-.39-.3A11.17,11.17,0,0,1,325,257a1.85,1.85,0,0,1-.82-2.4c.63-1.44,1.32-3.38,1.71-4.17a.59.59,0,0,0,0-.6c-.3-.44-.76-.78-.7-1.43a.61.61,0,0,1,.43-.54c2.18-.65,3.88-3.92,5.33-4.91a17.84,17.84,0,0,1,1.95-1,.65.65,0,0,1,.43-.07c3.71.8-2,5.41,2.89,8.1a.64.64,0,0,1,.33.68,5.7,5.7,0,0,0,0,1.44v0a.64.64,0,0,0,1,.43,1.87,1.87,0,0,1,1.93-.52c.63.36.59,1.58.36,2.31a4.08,4.08,0,0,1-2.82,2.39.63.63,0,0,0-.42.78c.57,2,2.31,8.23,2.44,11.07a.65.65,0,0,0,.5.6l3.32.72a35.65,35.65,0,0,1,14.74,7.51l4.94,4.14c.38.34,2.11,1.36,1.75,1.72-10.33,10.49-30.62,3.93-38.13.6-7.29-3.22-14.54-18.29-17.22-15.28-1.77,2,1.36-6.35,1.85-6.25" transform="translate(-34.92 -25.05)"/><path class="cls-4" d="M328.34,265.86Zm-18.61,1.48h0c1.76,0,3.65,2.29,6.85,6.26,2.88,3.56,6.45,8,9.83,9.49,2.59,1.15,25.34,10.77,36.77,0-.24-.2-.55-.41-.71-.54a6.19,6.19,0,0,1-.56-.42L357.05,278a34.76,34.76,0,0,0-14.39-7.33l-3.32-.72a1.48,1.48,0,0,1-1.16-1.37c-.13-2.77-1.88-9-2.41-10.88a1.46,1.46,0,0,1,1-1.81,3.33,3.33,0,0,0,2.28-1.84,1.94,1.94,0,0,0,0-1.35,1.53,1.53,0,0,0-1,.44,1.46,1.46,0,0,1-2.38-1,5.68,5.68,0,0,1,0-1.55c-3.07-1.77-2.48-4.32-2.09-6a3.31,3.31,0,0,0,.16-1.65.92.92,0,0,0-.54-.28c-.3.16-.55.28-.79.39a6.53,6.53,0,0,0-1,.56,10.13,10.13,0,0,0-1.62,1.71c-1.06,1.28-2.27,2.73-3.77,3.26a1.58,1.58,0,0,0,.27.4,3.27,3.27,0,0,1,.28.37,1.46,1.46,0,0,1,.09,1.43c-.19.39-.47,1.11-.78,1.88s-.61,1.56-.93,2.27a1,1,0,0,0,.45,1.33,10.41,10.41,0,0,0,2.17.84,1.51,1.51,0,0,1,.91.71c.62,1.12,2.54,5.07,1.25,8.69a1.49,1.49,0,0,1-1.71.95l-16.9-4.22a27.94,27.94,0,0,0-1.6,4.1l.27,0Zm38.63,22.44c-10.45,0-20.84-4.4-22.57-5.17-3.75-1.66-7.31-6.07-10.45-10-2.13-2.63-4.53-5.6-5.6-5.64-.05,0-.11,0-.22.12-.66.73-1.19.65-1.52.44s-1.09-.68.85-5.45c.84-2.07,1.28-2.77,2.07-2.6h0l17.2,4.3c.93-2.92-.7-6.27-1.15-7.1a12.5,12.5,0,0,1-2.44-1,2.71,2.71,0,0,1-1.19-3.48c.3-.67.61-1.49.9-2.2s.56-1.44.78-1.88l-.11-.14a2.26,2.26,0,0,1-.65-1.71,1.49,1.49,0,0,1,1-1.27c1.1-.33,2.18-1.64,3.14-2.78a11.25,11.25,0,0,1,2-2,8.26,8.26,0,0,1,1.26-.7c.23-.1.47-.22.76-.37a1.43,1.43,0,0,1,1-.16,2.47,2.47,0,0,1,1.68,1,3.75,3.75,0,0,1,.06,2.91c-.39,1.66-.71,3.09,1.38,4.25a1.46,1.46,0,0,1,.74,1.58,3,3,0,0,0,0,.84,2.43,2.43,0,0,1,2.58-.36c1.17.69,1,2.44.74,3.28a4.8,4.8,0,0,1-3.19,2.88c.71,2.49,2.24,8.08,2.42,10.93l3.18.69a36.8,36.8,0,0,1,15.12,7.7l4.92,4.11c.1.09.26.19.43.32,1,.71,1.6,1.18,1.66,1.83a1,1,0,0,1-.28.8c-4.41,4.47-10.46,5.94-16.49,5.94" transform="translate(-34.92 -25.05)"/><path class="cls-3" d="M332.73,258.12a7.41,7.41,0,0,1-5-.06l5,.06" transform="translate(-34.92 -25.05)"/><path class="cls-5" d="M330.32,259.35a8,8,0,0,1-2.86-.52.83.83,0,1,1,.59-1.55,6.77,6.77,0,0,0,4.38.07.83.83,0,1,1,.62,1.54,7.81,7.81,0,0,1-2.72.46" transform="translate(-34.92 -25.05)"/><path class="cls-4" d="M345.14,243.15s1.12-6.77,6.49-4.94.17,7.4-3.9,7.83-2.59-2.89-2.59-2.89" transform="translate(-34.92 -25.05)"/><path class="cls-3" d="M242.44,217.54l-6.64-6.42a1.32,1.32,0,0,0-2,1.71l2.1,3L234.2,220a3.3,3.3,0,0,0,.84,3.7l2.73,2.47a4.49,4.49,0,0,0,5,.69l1.11-.55a4.46,4.46,0,0,0,2.44-4.58l-.29-2.23a2.45,2.45,0,0,0-2.89-2.09l-.7.14" transform="translate(-34.92 -25.05)"/><path class="cls-5" d="M234.87,211.58a.52.52,0,0,0-.29.09.48.48,0,0,0-.11.68l2.11,3a.85.85,0,0,1,.09.79L235,220.31a2.49,2.49,0,0,0,.63,2.77l2.73,2.47a3.64,3.64,0,0,0,4.07.56l1.1-.55a3.62,3.62,0,0,0,2-3.72l-.29-2.23a1.58,1.58,0,0,0-.66-1.1,1.65,1.65,0,0,0-1.26-.28l-.7.14a.81.81,0,0,1-.73-.22l-6.64-6.43a.52.52,0,0,0-.35-.14Zm5.9,16.58a5.25,5.25,0,0,1-3.55-1.38l-2.73-2.47a4.15,4.15,0,0,1-1.06-4.63l1.52-3.77-1.84-2.61a2.16,2.16,0,0,1,3.27-2.79l6.34,6.13.28-.06a3.27,3.27,0,0,1,3.87,2.79l.3,2.23a5.32,5.32,0,0,1-2.9,5.44l-1.11.55a5.3,5.3,0,0,1-2.38.56" transform="translate(-34.92 -25.05)"/><path class="cls-3" d="M242.44,217.54,240,219.37s.82,2.4,2.48,1.41v-3.24" transform="translate(-34.92 -25.05)"/><path class="cls-5" d="M241.66,221.85a1.93,1.93,0,0,1-.69-.13,3.57,3.57,0,0,1-1.8-2.08.85.85,0,0,1,.29-.94l2.48-1.83a.84.84,0,0,1,1,1.35L241,219.64a1.33,1.33,0,0,0,.54.54c.05,0,.19.06.47-.1a.84.84,0,0,1,.85,1.44,2.34,2.34,0,0,1-1.2.35" transform="translate(-34.92 -25.05)"/><path class="cls-3" d="M235.44,216.94l2.8,3.46-2.8-3.46" transform="translate(-34.92 -25.05)"/><path class="cls-5" d="M238.24,221.23a.83.83,0,0,1-.65-.31l-2.8-3.46a.83.83,0,0,1,1.3-1l2.8,3.46a.83.83,0,0,1-.13,1.17.87.87,0,0,1-.53.18" transform="translate(-34.92 -25.05)"/><path class="cls-3" d="M234.59,219.66l2.26,2.73-2.26-2.73" transform="translate(-34.92 -25.05)"/><path class="cls-5" d="M236.84,223.22a.81.81,0,0,1-.64-.3l-2.26-2.73a.83.83,0,0,1,1.28-1.06l2.25,2.73a.84.84,0,0,1-.11,1.17.8.8,0,0,1-.53.19" transform="translate(-34.92 -25.05)"/><path class="cls-3" d="M354,340.08s-5.92-4.44-9.32-5.18-6.75,1.53-6.75,1.53,3.66,2,5.43,2.27,6.39,8.73,11.9,6L354,340.09" transform="translate(-34.92 -25.05)"/><path class="cls-5" d="M339.69,336.42a15.93,15.93,0,0,0,3.76,1.45c.83.11,1.63.94,2.84,2.2,2.09,2.18,4.91,5.11,7.95,4.14l-1-3.63c-1.11-.81-5.95-4.25-8.78-4.87a8,8,0,0,0-4.8.71ZM353,346.06c-3.3,0-6.12-2.93-8-4.84a10,10,0,0,0-1.88-1.71c-1.86-.24-5.32-2.15-5.71-2.36a.81.81,0,0,1-.43-.69.84.84,0,0,1,.36-.73c.15-.1,3.69-2.46,7.4-1.66,3.54.77,9.4,5.14,9.65,5.33a.84.84,0,0,1,.31.45l1.25,4.62a.82.82,0,0,1-.44,1,5.67,5.67,0,0,1-2.57.62" transform="translate(-34.92 -25.05)"/><path class="cls-1" d="M348.76,270.86l-2.87-1.1S328.5,280.88,321,264l-4-1.15-8,22.81,40.49,10.78-.65-25.61" transform="translate(-34.92 -25.05)"/><path class="cls-2" d="M242.13,229.42l8.44-2.65c11.84,13.77,23.42,20.84,32.21,24.77,10.82,4.85,29.45,10.34,29.45,10.34s0,8.82,14.55,18.88,36.91.07,36.91.07,24.74,21.1,26.17,33.78c2.38,21.06-34.33,31.17-34.33,31.17l-1.55-5.7s14.77-12,11.57-24.19-11.45-17.57-11.45-17.57c-2.46,14.06-1.41,30.43-1.41,30.43-24.26,6.17-45.18-1.78-54.42-6.32a8,8,0,0,1-4.36-8.42c2-13,7.15-29.47,7.15-29.47a57.23,57.23,0,0,1-17.79-3.74c-30-11.63-39.58-45.53-41.15-51.38" transform="translate(-34.92 -25.05)"/><path class="cls-1" d="M325.18,322.26a.85.85,0,0,1-.31-.06c-18.58-7.61-21.3-28.55-21.32-28.77a.83.83,0,0,1,.72-.92.84.84,0,0,1,.93.72c0,.2,2.65,20.19,20.3,27.42a.84.84,0,0,1-.32,1.61" transform="translate(-34.92 -25.05)"/><path class="cls-3" d="M328.2,385.38h0a.83.83,0,0,1-.83-.83c.05-7.86-2.17-22.86-5.33-27.47a.83.83,0,0,1,1.38-.94c3.45,5,5.66,20.44,5.61,28.42a.83.83,0,0,1-.83.82" transform="translate(-34.92 -25.05)"/><path class="cls-3" d="M330.39,431.22h-.05a.84.84,0,0,1-.79-.88c.41-7.31-.77-19.4-.78-19.52a.83.83,0,0,1,.74-.91.84.84,0,0,1,.91.75c0,.12,1.2,12.33.79,19.78a.84.84,0,0,1-.83.79" transform="translate(-34.92 -25.05)"/><path class="cls-1" d="M337.84,129.2a80,80,0,1,1-80-79.94,80,80,0,0,1,80,79.94" transform="translate(-34.92 -25.05)"/><path class="cls-4" d="M257.82,50.09A79.1,79.1,0,1,0,337,129.19,79.24,79.24,0,0,0,257.82,50.09Zm0,159.87a80.77,80.77,0,1,1,80.86-80.77A80.9,80.9,0,0,1,257.82,210" transform="translate(-34.92 -25.05)"/><path class="cls-2" d="M328,129.2a80,80,0,1,1-80-79.94,80,80,0,0,1,80,79.94" transform="translate(-34.92 -25.05)"/><path class="cls-4" d="M248,50.09a79.1,79.1,0,1,0,79.19,79.1A79.24,79.24,0,0,0,248,50.09ZM248,210a80.77,80.77,0,1,1,80.86-80.77A80.9,80.9,0,0,1,248,210" transform="translate(-34.92 -25.05)"/><path class="cls-1" d="M301.31,129.2A53.35,53.35,0,1,1,248,75.91a53.32,53.32,0,0,1,53.35,53.29" transform="translate(-34.92 -25.05)"/><path class="cls-2" d="M274.64,129.2A26.68,26.68,0,1,1,248,102.55a26.67,26.67,0,0,1,26.68,26.65" transform="translate(-34.92 -25.05)"/><path class="cls-3" d="M249.6,131.54l14.15-15.83,2.11,2.11L250,132a.29.29,0,0,1-.41-.41" transform="translate(-34.92 -25.05)"/><path d="M263.79,116.92,256.58,125l8.09-7.2ZM249.6,131.54Zm.22,1.32a1.15,1.15,0,0,1-.8-.33,1.11,1.11,0,0,1,0-1.54l14.15-15.83a.81.81,0,0,1,.6-.28.75.75,0,0,1,.61.24l2.11,2.11a.84.84,0,0,1,.24.61.78.78,0,0,1-.28.6l-15.85,14.13a1.12,1.12,0,0,1-.74.29" transform="translate(-34.92 -25.05)"/><path class="cls-3" d="M263.73,117.83a2.09,2.09,0,0,1,0-3l5.83-5.82,3,3-5.83,5.82a2.1,2.1,0,0,1-3,0" transform="translate(-34.92 -25.05)"/><path d="M269.57,110.22l-5.24,5.23a1.27,1.27,0,0,0-.38.9,1.25,1.25,0,0,0,.38.89,1.27,1.27,0,0,0,1.79,0l5.24-5.23Zm-4.35,9.06a2.92,2.92,0,0,1-2.07-.86,2.92,2.92,0,0,1,0-4.14l5.83-5.82a.83.83,0,0,1,1.18,0l3,3a.85.85,0,0,1,0,1.18l-5.82,5.82a2.93,2.93,0,0,1-2.08.86" transform="translate(-34.92 -25.05)"/><path class="cls-3" d="M268,113.6a3.59,3.59,0,0,1,0-5.07l68-67.89A3.59,3.59,0,1,1,341,45.71l-68,67.89a3.61,3.61,0,0,1-5.09,0" transform="translate(-34.92 -25.05)"/><path d="M338.48,40.42a2.76,2.76,0,0,0-2,.81l-68,67.89a2.75,2.75,0,0,0,0,3.9,2.78,2.78,0,0,0,3.92,0l68-67.89a2.76,2.76,0,0,0-2-4.7Zm-68,75.07a4.41,4.41,0,0,1-3.13-1.3,4.35,4.35,0,0,1-1.3-3.13,4.4,4.4,0,0,1,1.3-3.13l68-67.89a4.44,4.44,0,0,1,7.57,3.13,4.4,4.4,0,0,1-1.3,3.13l-68,67.89a4.44,4.44,0,0,1-3.14,1.3" transform="translate(-34.92 -25.05)"/><path class="cls-2" d="M316.08,60.47,314,50.26a12.22,12.22,0,0,1,3.33-11.11l13-13a.85.85,0,0,1,1.42.43l3.12,15.14L316.08,60.48" transform="translate(-34.92 -25.05)"/><path class="cls-8" d="M331,26.72l-13.06,13a11.34,11.34,0,0,0-3.1,10.35l1.79,8.71L334,41.42l-3-14.69ZM316.08,61.31a.67.67,0,0,1-.24,0,.8.8,0,0,1-.57-.63l-2.11-10.21a13,13,0,0,1,3.56-11.86l13-13a1.68,1.68,0,0,1,2.83.85l3.11,15.14a.84.84,0,0,1-.22.76L316.67,61.07a.84.84,0,0,1-.59.24" transform="translate(-34.92 -25.05)"/><path class="cls-2" d="M321.16,65.56l10.23,2.1a12.22,12.22,0,0,0,11.11-3.33l13-13a.84.84,0,0,0-.43-1.42L340,46.77,321.14,65.56" transform="translate(-34.92 -25.05)"/><path d="M322.84,65.05l8.71,1.79a11.37,11.37,0,0,0,10.36-3.1l13-13-14.72-3-17.4,17.38Zm11,3.69a13.24,13.24,0,0,1-2.65-.27L321,66.36a.83.83,0,0,1-.63-.57.85.85,0,0,1,.21-.83l18.81-18.79a.81.81,0,0,1,.75-.22l15.16,3.11a1.7,1.7,0,0,1,1.27,1.16,1.67,1.67,0,0,1-.41,1.66l-13,13a13,13,0,0,1-9.23,3.82" transform="translate(-34.92 -25.05)"/><path class="cls-3" d="M337.84,52.07l12.32,2.3-12.32-2.3" transform="translate(-34.92 -25.05)"/><path class="cls-4" d="M350.16,55.2a.54.54,0,0,1-.15,0l-12.32-2.3a.83.83,0,0,1,.31-1.63l12.32,2.3a.84.84,0,0,1,.67,1,.83.83,0,0,1-.82.68" transform="translate(-34.92 -25.05)"/><path class="cls-3" d="M332.84,57.07l12.32,2.3-12.32-2.3" transform="translate(-34.92 -25.05)"/><path class="cls-4" d="M345.16,60.2H345l-12.31-2.3a.83.83,0,1,1,.3-1.63l12.32,2.3a.83.83,0,0,1-.15,1.65" transform="translate(-34.92 -25.05)"/><path class="cls-3" d="M314.08,65l2.54,2.54L314.08,65" transform="translate(-34.92 -25.05)"/><path class="cls-5" d="M316.63,68.38a.84.84,0,0,1-.59-.24L313.5,65.6a.85.85,0,0,1,0-1.18.83.83,0,0,1,1.18,0L317.22,67a.83.83,0,0,1,0,1.18.84.84,0,0,1-.59.24" transform="translate(-34.92 -25.05)"/><path class="cls-3" d="M317,62.07l2.54,2.54L317,62.07" transform="translate(-34.92 -25.05)"/><path class="cls-5" d="M319.56,65.44a.82.82,0,0,1-.58-.24l-2.54-2.54a.85.85,0,0,1,0-1.18.83.83,0,0,1,1.18,0L320.16,64a.83.83,0,0,1-.59,1.42" transform="translate(-34.92 -25.05)"/><path class="cls-3" d="M320,59.14l2.54,2.54L320,59.14" transform="translate(-34.92 -25.05)"/><path class="cls-5" d="M322.5,62.51a.84.84,0,0,1-.58-.24l-2.54-2.54a.83.83,0,0,1,0-1.18.85.85,0,0,1,1.18,0l2.54,2.54a.83.83,0,0,1-.59,1.42" transform="translate(-34.92 -25.05)"/><path class="cls-4" d="M165.8,68.84c-4.08,7-13.68,8.33-15.83,8.57A25.18,25.18,0,0,1,133,73a33.63,33.63,0,0,1-19.94,5c-7.57-.58-20.33-4.35-22.8-13.2-3-10.59,10.38-22.88,21.82-27.22,9.59-3.64,24.22-4.1,31.22,3.27,2.57,2.71,3,5.27,6,6.15,5.45,1.59,9.46-5.11,16.53-4.78,4.23.21,7.55,2.85,9.59,4.9,5.22,1.72,8.41,5.18,8,8s-4.65,4.65-5.47,5c-4.29,1.78-6.57,0-9.11,1.84-2.26,1.65-1.34,3.95-3.08,6.91" transform="translate(-34.92 -25.05)"/><path class="cls-3" d="M160.19,76s21.46,6.85,31.89,0c4.91-3.22,23.16-25.95,27.13-28.06,2.41-1.28,6.15-3.2,8.71-4.51a7,7,0,0,1,5.74-.27l10.67,4.23a10.37,10.37,0,0,1-8.16,1.49A15.51,15.51,0,0,0,226.53,50l-.2.09,9.58,3s-1.45,2.41-6.59,1.48a20.36,20.36,0,0,0-8.46.81l-.17.09s-9.16,25.39-22.59,33.34C178.56,100.34,158,93.07,158,93.07L160.21,76" transform="translate(-34.92 -25.05)"/><path class="cls-4" d="M158.93,92.51c3.58,1.07,21.66,5.68,38.73-4.43,13-7.7,22.14-32.66,22.23-32.91l.11-.31.63-.31a21.65,21.65,0,0,1,8.83-.82,7.48,7.48,0,0,0,4.72-.33L224,50.24l2.14-1a16.26,16.26,0,0,1,10.16-1.17,10.21,10.21,0,0,0,6.07-.55l-9.05-3.59a6.13,6.13,0,0,0-5.06.23c-2.66,1.36-6.32,3.24-8.7,4.5-1.86,1-7.56,7.38-13.08,13.55-5.88,6.58-11.44,12.81-14,14.47-9.49,6.23-27.29,1.65-31.65.38l-2,15.43Zm14.48,3.64a51.81,51.81,0,0,1-15.67-2.27l-.64-.22,2.39-18.76.95.31c.21.07,21.2,6.65,31.18.09,2.34-1.54,8.09-8,13.65-14.18,5.87-6.57,11.42-12.79,13.54-13.91,2.39-1.27,6.06-3.15,8.72-4.52a7.8,7.8,0,0,1,6.43-.3l12,4.76-1.12.9A11.13,11.13,0,0,1,236,49.71a14.84,14.84,0,0,0-7.18.3l8.33,2.59-.54.91c-.07.12-1.82,2.9-7.45,1.88a19.6,19.6,0,0,0-7.83.71c-1.22,3.27-10,25.83-22.81,33.42a48.92,48.92,0,0,1-25.1,6.63" transform="translate(-34.92 -25.05)"/><path class="cls-5" d="M114.89,118.57s18.67,12.66,44.7,8.93c0,0-3.52-6.79-9.54-9.23s-35.17.3-35.17.3" transform="translate(-34.92 -25.05)"/><path class="cls-4" d="M89.21,150.5c1.16-28.39,17.55-38.86,17.55-38.86l33.77,8.42,13.93,30.44H89.22" transform="translate(-34.92 -25.05)"/><path class="cls-2" d="M159.46,73.33,141.7,64.47A11.23,11.23,0,0,0,128.38,67c-7.75,8.54-21.09,25.05-27.8,43.84,0,0,12.06,15.38,28,14.3s25.35-2.09,31,2.38c0,0,4.7-23.56,5.65-44.38a10.43,10.43,0,0,0-5.78-9.79" transform="translate(-34.92 -25.05)"/><path class="cls-4" d="M131.19,121.67h-.08a.83.83,0,0,1-.75-.91c.64-6.82,2.83-11.71,6.51-14.54,2.85-2.19,5.88-2.63,8.8-3s5.82-.84,8.73-3c3.09-2.23,5.3-5.73,6.57-10.4a.83.83,0,0,1,1.61.44c-1.38,5-3.8,8.84-7.2,11.31-3.24,2.35-6.41,2.81-9.47,3.24-2.83.41-5.52.79-8,2.72-3.3,2.54-5.28,7-5.87,13.38a.83.83,0,0,1-.82.76" transform="translate(-34.92 -25.05)"/><path class="cls-3" d="M103.27,149.53,140.76,73a6.26,6.26,0,0,0-10.92-6.09c-5,7.92-14.58,23.85-16.73,33a63.43,63.43,0,0,1-9.83,22.81c-1.69,2.59-3.81,11.77-5.1,18a5.41,5.41,0,0,1-6.93,4.06h0a8.94,8.94,0,0,0-8,1.35l-4,3a.56.56,0,0,0,.35,1l23.74-.56" transform="translate(-34.92 -25.05)"/><path class="cls-4" d="M88.55,145.15a8.1,8.1,0,0,0-4.84,1.6l-3.34,2.48,22.38-.53L140,72.6a5.43,5.43,0,0,0-9.47-5.28c-5.31,8.4-14.53,23.83-16.63,32.79-2.87,12.27-7,18.51-9.67,22.64l-.28.43c-1.22,1.88-3,8.15-5,17.67a6.26,6.26,0,0,1-8,4.68,8.22,8.22,0,0,0-2.44-.38Zm-9,5.77a1.4,1.4,0,0,1-.83-2.51l4-3a9.82,9.82,0,0,1,8.77-1.48,4.59,4.59,0,0,0,5.87-3.44c1.43-6.88,3.49-15.61,5.21-18.24l.28-.43a61.8,61.8,0,0,0,9.44-22.1c2.15-9.19,11.47-24.81,16.84-33.3a7.1,7.1,0,0,1,12.38,6.9l-37.71,77-24.24.57h0" transform="translate(-34.92 -25.05)"/><path class="cls-3" d="M159.42,58.52s-1.84-2.1-.85-3.63,3,.5,3,.5a6.27,6.27,0,0,1,5.53-2.81,6.55,6.55,0,0,0,5.83,3.7,51.46,51.46,0,0,1-2.37,4.6l-.46,2.6a.57.57,0,0,1-.85.39.58.58,0,0,0-.77.16,9.55,9.55,0,0,1-3.27,3c-1.54.69-2.92,0-4-1.34-2.45,3-6.06,8-4.38,10.19,0,0-5.51,1.59-11-5.89l13.51-11.46" transform="translate(-34.92 -25.05)"/><path class="cls-4" d="M147.05,70.1c3.57,4.57,7,5.14,8.62,5.08-.43-2.18,1.22-5.54,4.93-10l.66-.8.64.81c.93,1.19,1.93,1.56,3,1.1a8.9,8.9,0,0,0,2.94-2.74,1.43,1.43,0,0,1,1.52-.51l.43-2.43.08-.13c.78-1.33,1.41-2.59,1.82-3.44a7.34,7.34,0,0,1-5.06-3.6,5.46,5.46,0,0,0-4.31,2.39l-.55,1L161,56a2.61,2.61,0,0,0-1.45-.81c-.05,0-.14,0-.25.19-.53.81.41,2.2.78,2.62l.55.64-.64.55-12.91,11Zm8.47,6.75c-2.18,0-6.27-.86-10.28-6.38l-.45-.63L158.3,58.38c-.58-.9-1.34-2.53-.41-4a2,2,0,0,1,1.48-.94,3.19,3.19,0,0,1,2.07.69,7.14,7.14,0,0,1,5.68-2.44l.53,0,.21.48a5.67,5.67,0,0,0,5,3.21h1.31l-.52,1.17c0,.09-1,2.17-2.34,4.55l-.43,2.45a1.43,1.43,0,0,1-.79,1,1.4,1.4,0,0,1-1.1,0,9.9,9.9,0,0,1-3.47,3.1,3.75,3.75,0,0,1-4.26-.83c-3.22,4.06-4.66,7.24-3.76,8.41l.75,1-1.18.34a6.06,6.06,0,0,1-1.58.18" transform="translate(-34.92 -25.05)"/><path class="cls-5" d="M161.24,66.51a.83.83,0,0,1-.64-.3A11.24,11.24,0,0,1,159,62.82a.83.83,0,1,1,1.59-.47,9.75,9.75,0,0,0,1.29,2.79.84.84,0,0,1-.1,1.18.85.85,0,0,1-.54.19" transform="translate(-34.92 -25.05)"/><path class="cls-1" d="M71.64,264.94a.78.78,0,0,1-.46-.14.83.83,0,0,1-.24-1.15c1.22-1.86,2.49-3.71,3.79-5.52a.82.82,0,0,1,1.16-.19.83.83,0,0,1,.19,1.16c-1.28,1.78-2.54,3.62-3.75,5.46a.82.82,0,0,1-.69.37Zm-6.8,11.46a.78.78,0,0,1-.39-.1.83.83,0,0,1-.34-1.13c1-1.95,2.16-3.92,3.29-5.83a.83.83,0,0,1,1.43.85c-1.12,1.89-2.21,3.83-3.25,5.77a.83.83,0,0,1-.73.44Zm-5.78,12a.83.83,0,0,1-.34-.07.84.84,0,0,1-.42-1.1L60,283.53c.34-.76.71-1.55,1.1-2.38a.84.84,0,0,1,1.51.72c-.39.82-.76,1.6-1.09,2.34l-1.68,3.69a.82.82,0,0,1-.76.48Zm-5.27,12.22a.8.8,0,0,1-.3-.06.83.83,0,0,1-.47-1.08c.73-1.88,1.58-3.9,2.57-6.18a.84.84,0,0,1,1.53.67c-1,2.26-1.82,4.26-2.55,6.11a.83.83,0,0,1-.78.53Zm-4,12.68a.52.52,0,0,1-.18,0,.84.84,0,0,1-.64-1c.46-2.07,1-4.2,1.79-6.49a.83.83,0,1,1,1.59.51c-.73,2.24-1.3,4.32-1.75,6.34A.82.82,0,0,1,49.77,313.29ZM69.65,326a.83.83,0,0,1-.34-1.59,8.94,8.94,0,0,1,1.72-.58,10.32,10.32,0,0,1,5.36.3.83.83,0,1,1-.49,1.59,8.69,8.69,0,0,0-4.51-.27,7.78,7.78,0,0,0-1.41.47.8.8,0,0,1-.34.07Zm-20.93.57a.84.84,0,0,1-.83-.76c-.09-1.07-.14-2.16-.14-3.26s0-2.34.15-3.54a.83.83,0,1,1,1.66.14c-.1,1.15-.15,2.29-.15,3.4s0,2.09.13,3.11a.83.83,0,0,1-.76.9h-.06Zm37.8,7.21a.82.82,0,0,1-.67-.34,25.54,25.54,0,0,0-4.44-4.66.85.85,0,0,1-.13-1.17.83.83,0,0,1,1.17-.13,27.52,27.52,0,0,1,4.73,5,.82.82,0,0,1-.17,1.16.83.83,0,0,1-.49.17Zm-25,2.37a.85.85,0,0,1-.31-.06.83.83,0,0,1-.46-1.08,27.84,27.84,0,0,1,3.26-6,.83.83,0,1,1,1.34,1,26,26,0,0,0-3.06,5.66.82.82,0,0,1-.77.52Zm-9.26,3.18a.83.83,0,0,1-.75-.47,38,38,0,0,1-1.76-4.27c-.24-.69-.46-1.4-.65-2.09a.82.82,0,0,1,.58-1,.83.83,0,0,1,1,.57c.18.67.4,1.33.62,2A37.55,37.55,0,0,0,53,338.08a.83.83,0,0,1-.39,1.11.76.76,0,0,1-.36.08Zm38.84,6.78a.84.84,0,0,1-.83-.76A24.43,24.43,0,0,0,88.88,339a.84.84,0,0,1,1.57-.58,27,27,0,0,1,1.48,6.7.83.83,0,0,1-.76.9H91.1Zm-31.38,4.2a.84.84,0,0,1-.63-.28l-.89-1a.79.79,0,0,1-.38-.46c-1.06-1.28-2-2.54-2.9-3.83a.84.84,0,0,1,1.38-1c.54.78,1.1,1.55,1.69,2.32.19-1.55.45-3.09.78-4.58a.82.82,0,0,1,1-.63.84.84,0,0,1,.64,1,47.93,47.93,0,0,0-.92,6.05l.87,1a.83.83,0,0,1-.62,1.39Zm28,8.29a.81.81,0,0,1-.56-.22.84.84,0,0,1,0-1.18,12.13,12.13,0,0,0,2.79-5.49.82.82,0,0,1,1-.62.83.83,0,0,1,.61,1,13.82,13.82,0,0,1-3.18,6.24.82.82,0,0,1-.61.27Zm-18.39.9a.78.78,0,0,1-.46-.14,37,37,0,0,1-5.15-4.46.83.83,0,1,1,1.18-1.18,33.83,33.83,0,0,0,4.9,4.26.84.84,0,0,1,.22,1.16A.85.85,0,0,1,69.31,359.45Zm9,2.81c-.88,0-1.55-.07-1.88-.1s-.79-.09-1.17-.16a.83.83,0,1,1,.28-1.64c.34.06.69.11,1,.14a17.2,17.2,0,0,0,1.72.09,14.89,14.89,0,0,0,3.52-.41.85.85,0,0,1,1,.61.83.83,0,0,1-.61,1A16.55,16.55,0,0,1,78.3,362.26Zm-18.83,0a.83.83,0,0,1-.81-.65,42.17,42.17,0,0,1-.94-6.72.83.83,0,0,1,.78-.88.85.85,0,0,1,.89.78,40.21,40.21,0,0,0,.91,6.46.83.83,0,0,1-.63,1l-.18,0Zm5.37,12.1a.82.82,0,0,1-.68-.36,35.89,35.89,0,0,1-3.35-5.92.83.83,0,0,1,1.52-.68,33.69,33.69,0,0,0,3.2,5.64.83.83,0,0,1-.21,1.16.84.84,0,0,1-.47.15Zm9.27,9.47a.84.84,0,0,1-.5-.17,47,47,0,0,1-5.1-4.45.85.85,0,0,1,0-1.18.84.84,0,0,1,1.18,0,43.72,43.72,0,0,0,4.92,4.29.83.83,0,0,1-.5,1.5Zm11.52,6.61a1,1,0,0,1-.33-.07,60.69,60.69,0,0,1-6-3,.84.84,0,0,1-.31-1.14.82.82,0,0,1,1.13-.31A57.47,57.47,0,0,0,86,388.86a.84.84,0,0,1-.34,1.6Zm12.67,4.06a.55.55,0,0,1-.18,0c-2.21-.49-4.4-1.08-6.5-1.74a.83.83,0,0,1,.51-1.59c2.05.66,4.19,1.23,6.35,1.71a.85.85,0,0,1,.64,1,.83.83,0,0,1-.81.65Zm9.79,1.55H108c-1.09-.11-2.19-.24-3.28-.39a.82.82,0,0,1-.71-.94A.84.84,0,0,1,105,394c1.06.15,2.14.27,3.21.38a.83.83,0,0,1-.08,1.66" transform="translate(-34.92 -25.05)"/><path class="cls-3" d="M86.22,207l-4-2.78a8,8,0,0,0-10.31.88L58.11,219l16.36,11.52,4-5.72L86.22,207" transform="translate(-34.92 -25.05)"/><path class="cls-5" d="M59.39,218.87l14.88,10.47,3.51-5,7.41-17-3.4-2.39a7.18,7.18,0,0,0-9.24.8L59.4,218.87Zm15.07,12.46a.85.85,0,0,1-.48-.15L57.62,219.66a.83.83,0,0,1-.11-1.27l13.85-13.84a8.85,8.85,0,0,1,11.38-1l4,2.78a.83.83,0,0,1,.28,1L79.26,225.1l-.08.15-4,5.73a.84.84,0,0,1-.68.35" transform="translate(-34.92 -25.05)"/><path class="cls-7" d="M74.46,230.49c-.47.67-4.52-1.36-9-4.55s-7.8-6.3-7.33-7,4.52,1.37,9,4.55,7.8,6.3,7.33,7" transform="translate(-34.92 -25.05)"/><path class="cls-5" d="M59.59,220a41.15,41.15,0,0,0,6.32,5.24A41.46,41.46,0,0,0,73,229.46a40.56,40.56,0,0,0-6.32-5.24A41.19,41.19,0,0,0,59.59,220Zm14.55,11.43a7.72,7.72,0,0,1-3-1.05A52.65,52.65,0,0,1,65,226.63c-.76-.53-7.35-5.23-7.71-7.27a1.1,1.1,0,0,1,.18-.86c.55-.78,1.69-.63,4.06.57a52.65,52.65,0,0,1,6.14,3.78c.76.53,7.35,5.23,7.71,7.27a1.11,1.11,0,0,1-.18.86,1.15,1.15,0,0,1-1,.48" transform="translate(-34.92 -25.05)"/><path class="cls-2" d="M66.64,224.24c-1.29-.91-2.54-1.72-3.68-2.41a46.76,46.76,0,0,0-3.33,4.78A47.62,47.62,0,0,0,53.48,243a38.8,38.8,0,0,0,5.18-3.24,38.15,38.15,0,0,0,6-5.52,13.74,13.74,0,0,0-3.07,6.68A43.21,43.21,0,0,0,72,228.47a51.66,51.66,0,0,0-5.33-4.23" transform="translate(-34.92 -25.05)"/><path class="cls-3" d="M107.33,221.9l4,2.78a8,8,0,0,1,2.63,10l-8.4,17.68L89.15,240.84l4-5.73,14.13-13.22" transform="translate(-34.92 -25.05)"/><path class="cls-5" d="M90.32,240.65l14.87,10.47,8-16.79a7.17,7.17,0,0,0-2.35-9l-3.4-2.39L93.84,235.67l-3.51,5Zm15.2,12.55a.83.83,0,0,1-.48-.15L88.68,241.53a.85.85,0,0,1-.34-.54.81.81,0,0,1,.14-.62l4-5.73.11-.13,14.13-13.22a.83.83,0,0,1,1-.07l4,2.79a8.84,8.84,0,0,1,2.9,11l-8.39,17.68a.85.85,0,0,1-.54.44.76.76,0,0,1-.21,0" transform="translate(-34.92 -25.05)"/><path class="cls-7" d="M89.16,240.85c-.47.67,2.81,3.79,7.33,7s8.56,5.22,9,4.55-2.81-3.79-7.33-7-8.56-5.22-9-4.55" transform="translate(-34.92 -25.05)"/><path class="cls-5" d="M90.65,241.89A41.15,41.15,0,0,0,97,247.13a41.19,41.19,0,0,0,7.07,4.18,41.15,41.15,0,0,0-6.32-5.24A41.19,41.19,0,0,0,90.65,241.89Zm14.54,11.43a7.69,7.69,0,0,1-3-1A52.65,52.65,0,0,1,96,248.49,50.39,50.39,0,0,1,90.38,244c-1.92-1.82-2.45-2.84-1.9-3.63s1.69-.62,4.06.57a51.32,51.32,0,0,1,6.14,3.78c.76.53,7.35,5.22,7.71,7.26a1.11,1.11,0,0,1-.18.86,1.13,1.13,0,0,1-1,.48" transform="translate(-34.92 -25.05)"/><path class="cls-2" d="M97.69,246.1c1.29.91,2.48,1.81,3.51,2.65a44.48,44.48,0,0,1-3.39,4.74,47.57,47.57,0,0,1-13.38,11.29,38.7,38.7,0,0,1,1.31-6,38.25,38.25,0,0,1,3.19-7.5,13.9,13.9,0,0,1-2.87,3.46,13.69,13.69,0,0,1-2.4,1.67,43.24,43.24,0,0,1,3.7-7.76,42.74,42.74,0,0,1,4.55-6.18,52.35,52.35,0,0,1,5.78,3.59" transform="translate(-34.92 -25.05)"/><path class="cls-3" d="M124.73,198.6,128,175.21a3.24,3.24,0,0,0-4.7-3.31l-21,10.92A40.94,40.94,0,0,0,82.1,207.18l-5.57,17.3c-.51.71,3,4.07,7.89,7.5s9.21,5.61,9.72,4.9l14.44-11.06a40.9,40.9,0,0,0,16.17-27.22" transform="translate(-34.92 -25.05)"/><path class="cls-5" d="M77.2,225Zm.13-.28c.33.72,2.72,3.22,7.56,6.63s8,4.81,8.78,4.88l14.39-11a39.66,39.66,0,0,0,8.9-9.11,40.24,40.24,0,0,0,7-17.57l.82.11-.82-.11,3.25-23.39a2.34,2.34,0,0,0-1-2.29,2.38,2.38,0,0,0-2.5-.17l-21,10.92A40.07,40.07,0,0,0,82.9,207.43l-5.56,17.25Zm16.12,11.72Zm.33,1.39c-2.07,0-6.31-2.65-9.84-5.13-.81-.57-7.9-5.61-8.27-7.78a1.24,1.24,0,0,1,.09-.73l5.55-17.22a41.59,41.59,0,0,1,5.82-11.89,42,42,0,0,1,14.82-13l21-10.92a4.06,4.06,0,0,1,5.91,4.16l-3.26,23.39a41.69,41.69,0,0,1-16.5,27.78l-14.38,11a1.31,1.31,0,0,1-.91.29" transform="translate(-34.92 -25.05)"/><path class="cls-7" d="M93.44,236.54c-.47.67-4.52-1.37-9-4.55s-7.8-6.3-7.33-7,4.52,1.37,9,4.55,7.8,6.3,7.33,7" transform="translate(-34.92 -25.05)"/><path class="cls-5" d="M78.57,226.07a41.76,41.76,0,0,0,6.32,5.24A41.19,41.19,0,0,0,92,235.49a41.15,41.15,0,0,0-6.32-5.24A40.52,40.52,0,0,0,78.57,226.07Zm14.87,10.47Zm-.33,1a7.89,7.89,0,0,1-3-1,52.65,52.65,0,0,1-6.14-3.78c-.76-.53-7.35-5.23-7.71-7.27a1.11,1.11,0,0,1,.18-.86c.55-.78,1.69-.62,4.06.57a52.65,52.65,0,0,1,6.14,3.78,50.39,50.39,0,0,1,5.63,4.51c1.92,1.82,2.45,2.84,1.9,3.63a1.15,1.15,0,0,1-1,.48" transform="translate(-34.92 -25.05)"/><path class="cls-2" d="M90.47,234.23a54.31,54.31,0,0,0-5-4,54.37,54.37,0,0,0-5.53-3.46A58,58,0,0,0,73,235.74a60.5,60.5,0,0,0-8.8,26.19q9-12.6,10.16-11.9c.52.3,0,2.45-1.68,6.45a39.61,39.61,0,0,0,17.77-22.25" transform="translate(-34.92 -25.05)"/><path class="cls-5" d="M124.9,194a.86.86,0,0,1-.66-.32c-.74-.95-1.53-1.86-2.33-2.72a.83.83,0,1,1,1.21-1.14c.84.89,1.66,1.85,2.43,2.84a.84.84,0,0,1-.66,1.35" transform="translate(-34.92 -25.05)"/><path class="cls-5" d="M118.67,187.65a.86.86,0,0,1-.52-.18,35.35,35.35,0,0,0-11-5.84.84.84,0,0,1-.53-1,.82.82,0,0,1,1-.53,37.19,37.19,0,0,1,11.49,6.12.83.83,0,0,1-.52,1.48" transform="translate(-34.92 -25.05)"/><path class="cls-2" d="M112.23,210.53a10.36,10.36,0,1,1-2.5-14.42,10.35,10.35,0,0,1,2.5,14.42" transform="translate(-34.92 -25.05)"/><path class="cls-5" d="M112.23,210.53Zm-8.45-15.47a9.53,9.53,0,0,0-7.8,4,9.51,9.51,0,0,0,2.3,13.26,9.55,9.55,0,0,0,13.27-2.29,9.5,9.5,0,0,0-7.77-15Zm0,20.68a11.17,11.17,0,0,1-9.13-17.61,11.19,11.19,0,1,1,9.13,17.61" transform="translate(-34.92 -25.05)"/><path class="cls-4" d="M97.3,204.12a.84.84,0,0,1-.82-.69.82.82,0,0,1,.68-1l13-2.25a.82.82,0,0,1,1,.68.83.83,0,0,1-.68,1l-13,2.25h-.15" transform="translate(-34.92 -25.05)"/><path class="cls-4" d="M95.81,208.14a.84.84,0,0,1-.82-.69.82.82,0,0,1,.68-1l9.51-1.65a.82.82,0,0,1,1,.68.83.83,0,0,1-.68,1L96,208.13h-.14" transform="translate(-34.92 -25.05)"/><path class="cls-3" d="M70.61,248.71a.85.85,0,0,1-.48-.15.83.83,0,0,1-.2-1.16L81,231.67a.83.83,0,1,1,1.36,1l-11.1,15.73a.83.83,0,0,1-.68.35" transform="translate(-34.92 -25.05)"/><path class="cls-3" d="M80.14,238.87a.85.85,0,0,1-.48-.15.83.83,0,0,1-.2-1.16L84,231.17a.83.83,0,1,1,1.36,1l-4.51,6.39a.83.83,0,0,1-.68.35" transform="translate(-34.92 -25.05)"/><path class="cls-3" d="M58.37,234.79a.87.87,0,0,1-.48-.15.83.83,0,0,1-.2-1.16l6.51-9.22a.83.83,0,1,1,1.36,1l-6.51,9.22a.83.83,0,0,1-.68.35" transform="translate(-34.92 -25.05)"/><path class="cls-3" d="M61.93,233a.79.79,0,0,1-.48-.16.82.82,0,0,1-.2-1.16l3.3-4.67a.83.83,0,0,1,1.16-.2.84.84,0,0,1,.2,1.16l-3.3,4.67a.83.83,0,0,1-.68.35" transform="translate(-34.92 -25.05)"/><path class="cls-3" d="M92.52,249.8a.83.83,0,0,1-.67-1.31l1.88-2.66a.83.83,0,0,1,1.16-.2.82.82,0,0,1,.2,1.16l-1.88,2.66a.83.83,0,0,1-.68.35" transform="translate(-34.92 -25.05)"/><path class="cls-3" d="M89.31,259.76a.85.85,0,0,1-.48-.15.83.83,0,0,1-.2-1.16l6.8-9.64a.83.83,0,0,1,1.36,1L90,259.41a.83.83,0,0,1-.68.35" transform="translate(-34.92 -25.05)"/><path class="cls-2" d="M379.64,59.1a.84.84,0,0,1-.63-.28l-2.85-3.21a.84.84,0,1,1,1.25-1.11l2.85,3.21a.83.83,0,0,1-.62,1.39" transform="translate(-34.92 -25.05)"/><path class="cls-2" d="M386.29,66.58a.84.84,0,0,1-.63-.28l-2.85-3.21a.83.83,0,0,1,.07-1.18.85.85,0,0,1,1.18.07l2.85,3.21a.83.83,0,0,1-.62,1.38" transform="translate(-34.92 -25.05)"/><path class="cls-2" d="M376.18,66a.87.87,0,0,1-.63-.28.84.84,0,0,1,.07-1.18l3.22-2.85a.82.82,0,0,1,1.17.07.83.83,0,0,1-.07,1.17l-3.22,2.85a.82.82,0,0,1-.55.21" transform="translate(-34.92 -25.05)"/><path class="cls-2" d="M383.68,59.34a.84.84,0,0,1-.63-.28.85.85,0,0,1,.07-1.18L386.34,55a.83.83,0,0,1,1.17.07.83.83,0,0,1-.07,1.17l-3.21,2.85a.78.78,0,0,1-.55.21" transform="translate(-34.92 -25.05)"/><path class="cls-3" d="M449,175.89a5,5,0,0,0-2.42.62,4.89,4.89,0,0,0-2.38,3,5.19,5.19,0,0,0,3.55,6.35,5,5,0,0,0,3.92-.4,4.89,4.89,0,0,0,2.38-3,5.19,5.19,0,0,0-3.55-6.35A5.14,5.14,0,0,0,449,175.89Zm.26,11.85a7.13,7.13,0,0,1-2-.29,6.89,6.89,0,0,1-4.68-8.41,6.56,6.56,0,0,1,3.18-4,6.68,6.68,0,0,1,5.2-.54,6.88,6.88,0,0,1,4.68,8.41,6.56,6.56,0,0,1-3.18,4,6.66,6.66,0,0,1-3.22.83" transform="translate(-34.92 -25.05)"/><path class="cls-2" d="M442.21,151.18a.85.85,0,0,1-.8-.59c-10-32.66-33-55.49-50.45-68.9a.85.85,0,0,1-.16-1.17.83.83,0,0,1,1.17-.15c17.69,13.55,40.9,36.65,51,69.72a.82.82,0,0,1-.55,1,.67.67,0,0,1-.24,0" transform="translate(-34.92 -25.05)"/><path class="cls-2" d="M456.67,162.35a.84.84,0,0,1-.82-.69c-4.89-28.94-21.24-52.17-34.11-66.55a165.87,165.87,0,0,0-27-24.53.83.83,0,1,1,.94-1.38A168.85,168.85,0,0,1,423,94c13,14.55,29.56,38.05,34.51,67.39a.83.83,0,0,1-.68,1h-.14" transform="translate(-34.92 -25.05)"/><path class="cls-2" d="M253.53,460.52h0c-19.59-.47-40.13-5.34-59.39-14.07a.83.83,0,1,1,.68-1.51c19.06,8.64,39.38,13.46,58.74,13.93a.83.83,0,0,1,0,1.66" transform="translate(-34.92 -25.05)"/><path class="cls-2" d="M263.49,469.79c-32.85,0-62.24-8-87.38-23.84a.83.83,0,1,1,.89-1.41c25.51,16.06,55.45,24,89,23.57a.83.83,0,0,1,0,1.66l-2.53,0" transform="translate(-34.92 -25.05)"/><path class="cls-2" d="M278.22,466.09Zm4-2.15a3.38,3.38,0,0,0-1.61.41,3.25,3.25,0,0,0-1.57,2,3.45,3.45,0,0,0,2.36,4.22,3.32,3.32,0,0,0,2.6-.27,3.25,3.25,0,0,0,1.57-2,3.45,3.45,0,0,0-2.36-4.22,3.4,3.4,0,0,0-1-.15Zm.18,8.42a5,5,0,0,1-1.47-.22,5.13,5.13,0,0,1-3.49-6.27,4.89,4.89,0,0,1,2.38-3,5,5,0,0,1,3.89-.4,5.12,5.12,0,0,1,3.48,6.28,4.84,4.84,0,0,1-2.38,3,5,5,0,0,1-2.41.62" transform="translate(-34.92 -25.05)"/></svg>