<?xml version="1.0" encoding="UTF-8"?>
<svg id="Layer_1" data-name="Layer 1" xmlns="http://www.w3.org/2000/svg" viewBox="0 0 500 500">
  <defs>
    <style>
      .cls-1 {
        fill: #d9c4a1;
      }

      .cls-1, .cls-2, .cls-3, .cls-4, .cls-5 {
        stroke-width: 0px;
      }

      .cls-2 {
        fill: #dcdbdb;
      }

      .cls-3 {
        fill: #fff;
      }

      .cls-4 {
        fill: #7a5443;
      }

      .cls-5 {
        fill: #332d2a;
      }
    </style>
  </defs>
  <path class="cls-2" d="M210.1,21.91c-9.88,3.07-53.71,17.35-97.47,55.25-10.6,9.18-53.46,46.29-71.77,96.18-31.16,84.92,6.13,214.11,113.54,266.03,125.12,60.47,283.16-13.96,319.2-113.58,15.99-44.18,16.71-117.44-23.56-165.76-32.42-38.88-80.29-59.38-78.15-96.16,1.04-17.71,6.88-20.58,3.16-31.74C366.25,5.68,279.92.19,210.1,21.91"/>
  <path class="cls-1" d="M405.29,86.54c6.76-13.22,22.96-18.44,36.18-11.67,13.22,6.77,18.46,22.97,11.7,36.19s-22.96,18.44-36.18,11.67c-13.22-6.77-18.46-22.97-11.7-36.18ZM399.97,144.49l9.3,4.76,7.3-8.76c2.35.72,4.73,1.23,7.11,1.54l3.07,10.97,10.43-.52,1.94-11.24c2.36-.55,4.68-1.3,6.92-2.23l8.15,7.99,8.77-5.67-3.93-10.7c1.76-1.64,3.38-3.45,4.87-5.41l11.05,2.84,4.76-9.29-8.77-7.31c.72-2.35,1.23-4.73,1.54-7.11l10.97-3.06-.53-10.43-11.24-1.95c-.55-2.36-1.3-4.68-2.23-6.92l7.98-8.15-5.67-8.77-10.69,3.93c-1.65-1.76-3.45-3.39-5.41-4.88l2.83-11.05-9.3-4.76-7.3,8.76c-2.35-.71-4.73-1.23-7.11-1.54l-3.07-10.97-10.43.52-1.94,11.24c-2.36.55-4.68,1.3-6.92,2.23l-8.16-7.98-8.77,5.67,3.93,10.69c-1.76,1.65-3.38,3.45-4.87,5.41l-11.05-2.84-4.76,9.3,8.77,7.3c-.71,2.35-1.23,4.73-1.54,7.11l-10.97,3.06.53,10.44,11.24,1.94c.55,2.36,1.3,4.68,2.23,6.92l-7.97,8.15,5.67,8.77,10.69-3.93c1.64,1.76,3.45,3.39,5.41,4.88l-2.83,11.05"/>
  <path class="cls-1" d="M339.38,42.83c.09-9.69,8.03-17.47,17.72-17.38,9.7.1,17.48,8.03,17.39,17.72-.09,9.69-8.03,17.46-17.72,17.37-9.7-.1-17.48-8.03-17.39-17.72ZM353.18,78.23l6.82.07,1.71-7.24c1.58-.27,3.12-.66,4.6-1.18l4.99,5.52,5.94-3.35-2.15-7.13c1.22-1.02,2.35-2.12,3.39-3.32l7.09,2.29,3.47-5.87-5.42-5.1c.55-1.47.97-3,1.27-4.57l7.28-1.57.06-6.82-7.24-1.71c-.27-1.58-.67-3.12-1.18-4.6l5.52-4.99-3.35-5.94-7.14,2.14c-1.01-1.22-2.12-2.35-3.32-3.39l2.28-7.09-5.88-3.47-5.1,5.42c-1.47-.55-3.01-.97-4.58-1.27l-1.57-7.28-6.82-.07-1.71,7.24c-1.58.27-3.12.66-4.6,1.18l-4.99-5.52-5.94,3.35,2.15,7.13c-1.22,1.01-2.35,2.13-3.39,3.32l-7.09-2.29-3.47,5.87,5.42,5.1c-.55,1.47-.97,3-1.27,4.57l-7.28,1.57-.06,6.82,7.24,1.71c.27,1.58.66,3.12,1.18,4.6l-5.52,4.99,3.35,5.94,7.14-2.14c1.02,1.22,2.13,2.35,3.32,3.39l-2.28,7.09,5.88,3.47,5.1-5.42c1.47.55,3,.97,4.58,1.27l1.57,7.28"/>
  <path class="cls-4" d="M472.36,412.88l-3.85,3.54c-2.94,2.7-6.88,3.94-10.66,3.37l-408.25-61.54c-5.43-.82-8.06-6.46-8.11-12.02l-2.72-281.4c-.03-3.32,1.96-16.56,1.96-16.56,0,0,9.93-7.15,15.86-9.91,2.71-1.26,5.68-1.69,8.54-1.27l404.27,59.81c4.13.61,7.1,4.08,7.11,8.31l.91,296.27c.02,4.27-1.84,8.42-5.06,11.39"/>
  <path class="cls-1" d="M459.98,419.09l-409.07-60.52c-6.35-.94-10.91-6.27-10.93-12.78l-.9-292.42c-.01-3.44,3.13-6.2,6.48-5.7l410.16,60.68c4.13.61,7.1,4.08,7.11,8.31l.92,299.12c0,2-1.81,3.6-3.76,3.31"/>
  <path class="cls-5" d="M99.12,366.52s-.08,0-.12,0l-48.21-7.14c-6.72-.99-11.61-6.7-11.63-13.58l-.91-292.43c0-1.89.83-3.71,2.3-4.97,1.44-1.25,3.31-1.81,5.13-1.54l210.95,31.21c.45.06.76.48.69.93-.06.45-.48.76-.93.69L45.44,48.48c-1.34-.19-2.73.22-3.81,1.16-1.1.95-1.73,2.31-1.73,3.73l.9,292.43c.02,6.06,4.32,11.09,10.23,11.97l48.21,7.13c.45.06.76.48.69.93-.06.41-.41.7-.81.7"/>
  <path class="cls-5" d="M460.44,419.94c-.19,0-.39-.01-.57-.04l-242.84-35.92c-.45-.07-.76-.48-.69-.93.07-.45.48-.77.94-.69l242.83,35.92c.68.1,1.39-.11,1.93-.59.57-.49.89-1.18.89-1.91l-.92-299.12c-.02-3.8-2.71-6.95-6.41-7.5l-61.79-9.14c-.45-.07-.77-.49-.7-.93.07-.45.48-.77.94-.69l61.8,9.14c4.51.67,7.79,4.51,7.81,9.12l.92,299.13c0,1.2-.52,2.35-1.45,3.15-.76.66-1.71,1.01-2.68,1.01"/>
  <path class="cls-3" d="M245.3,281.77l-186.99-29.42c-4.57-.72-7.83-4.58-7.83-9.28V72.49c0-6.34,5.82-11.41,12-10.43l186.99,29.41c4.57.72,7.84,4.58,7.84,9.28v170.59c0,6.34-5.83,11.4-12.01,10.43"/>
  <path class="cls-2" d="M70.33,236.78l-5.32-.96c-2.33-.42-4.2-2.8-4.19-5.34l.05-27.84c0-2.61,1.97-4.41,4.36-3.98l5.27.93c2.34.41,4.22,2.79,4.22,5.34v27.88c0,2.62-1.98,4.42-4.38,3.98"/>
  <path class="cls-2" d="M89.15,239.74l-5.32-.96c-2.33-.42-4.2-2.8-4.2-5.34l.06-45.41c0-2.61,1.96-4.41,4.36-3.98l5.26.92c2.34.41,4.22,2.79,4.22,5.34v45.45c0,2.63-1.98,4.42-4.38,3.98"/>
  <path class="cls-2" d="M107.97,242.7l-5.32-.96c-2.33-.42-4.2-2.8-4.19-5.34l.05-36.05c0-2.61,1.96-4.41,4.36-3.98l5.26.92c2.34.41,4.22,2.79,4.22,5.34v36.08c0,2.63-1.98,4.42-4.38,3.98"/>
  <path class="cls-2" d="M126.8,245.66l-5.32-.96c-2.33-.42-4.2-2.8-4.2-5.34l.06-70.91c0-2.61,1.97-4.41,4.36-3.99l5.26.93c2.34.41,4.22,2.79,4.22,5.34v70.95c0,2.63-1.97,4.42-4.38,3.98"/>
  <path class="cls-2" d="M145.62,248.63l-5.32-.96c-2.33-.42-4.2-2.79-4.2-5.34l.06-89.17c0-2.61,1.97-4.41,4.36-3.99l5.26.92c2.34.41,4.22,2.78,4.22,5.34v89.21c0,2.62-1.98,4.42-4.38,3.99"/>
  <path class="cls-1" d="M164.44,251.58l-5.32-.96c-2.33-.42-4.2-2.8-4.2-5.34l.06-102.75c0-2.61,1.96-4.41,4.36-3.99l5.26.92c2.34.41,4.22,2.79,4.22,5.34v102.79c0,2.63-1.97,4.43-4.38,3.99"/>
  <path class="cls-2" d="M183.27,254.55l-5.32-.96c-2.33-.42-4.2-2.8-4.2-5.34l.06-72.99c0-2.61,1.96-4.41,4.36-3.99l5.26.92c2.34.41,4.21,2.79,4.21,5.34v73.03c0,2.63-1.97,4.42-4.38,3.99"/>
  <path class="cls-2" d="M202.09,257.51l-5.32-.96c-2.33-.42-4.2-2.79-4.2-5.34l.06-96.86c0-2.61,1.96-4.41,4.36-3.99l5.26.92c2.34.41,4.22,2.79,4.22,5.34v96.9c0,2.63-1.97,4.42-4.38,3.99"/>
  <path class="cls-2" d="M220.91,260.47l-5.32-.96c-2.33-.42-4.2-2.8-4.2-5.34l.06-125.95c0-2.61,1.96-4.41,4.36-3.99l5.26.92c2.34.41,4.21,2.79,4.21,5.34v125.98c0,2.63-1.97,4.42-4.38,3.99"/>
  <path class="cls-1" d="M239.99,263.47l-5.32-.96c-2.33-.42-4.2-2.8-4.2-5.34l.06-145.49c0-2.61,1.96-4.41,4.36-3.98l5.26.92c2.34.41,4.21,2.78,4.21,5.34v145.53c0,2.63-1.97,4.42-4.38,3.99"/>
  <path class="cls-3" d="M257.28,375.89l-74.92-11.97c-2.39-.39-4.32-2.74-4.32-5.27v-74.51c0-2.53,1.93-4.27,4.32-3.89l74.92,11.97c2.39.38,4.32,2.74,4.32,5.27v74.51c0,2.53-1.93,4.27-4.32,3.89"/>
  <path class="cls-1" d="M197.96,360.06l-7.49-1.2v-53.79l7.49,1.2v53.79"/>
  <path class="cls-2" d="M197.96,360.06l-7.49-1.2v-34.7l7.49,1.2v34.7"/>
  <path class="cls-1" d="M211.99,362.31l-7.48-1.2v-45.86l7.48,1.2v45.86"/>
  <path class="cls-2" d="M211.99,362.31l-7.48-1.2v-26.28l7.48,1.2v26.28"/>
  <path class="cls-1" d="M225.1,364.65l-7.49-1.2v-41.65l7.49,1.2v41.65"/>
  <path class="cls-2" d="M225.1,364.65l-7.49-1.2v-19.33l7.49,1.2v19.33"/>
  <path class="cls-1" d="M238.55,367.3l-7.48-1.2v-53.79l7.48,1.2v53.79"/>
  <path class="cls-2" d="M238.55,367.3l-7.48-1.2v-44.86l7.48,1.2v44.86"/>
  <path class="cls-1" d="M252.13,369.22l-7.49-1.19v-50.08l7.49,1.2v50.07"/>
  <path class="cls-2" d="M252.13,369.22l-7.49-1.19v-32.97l7.49,1.2v32.97"/>
  <path class="cls-4" d="M256.81,370.73s-.09,0-.13-.01l-72.56-11.6c-1.49-.23-2.66-1.65-2.65-3.2l.28-63.57c0-.45.37-.82.82-.82.45,0,.82.38.82.83l-.28,63.57c0,.74.57,1.47,1.26,1.58l72.57,11.6c.44.07.75.49.68.94-.07.41-.41.69-.81.69"/>
  <path class="cls-1" d="M212.73,294.75l-22.5-3.59v-4.22l22.5,3.6v4.21"/>
  <path class="cls-1" d="M212.81,301.21l-22.5-3.6v-4.21l22.5,3.6v4.21"/>
  <path class="cls-2" d="M164.63,300.57l-115.47-18.52v-11.93l115.47,18.52v11.93"/>
  <path class="cls-2" d="M165.17,319.71l-115.47-18.53v-11.93l115.47,18.53v11.93"/>
  <path class="cls-2" d="M165.34,339.55l-115.47-18.52v-11.93l115.47,18.52v11.93"/>
  <path class="cls-2" d="M165.34,358.03l-115.47-18.53v-11.93l115.47,18.53v11.93"/>
  <path class="cls-2" d="M358.62,215.58l-89.13-12.29v-9.76l89.13,12.29v9.77"/>
  <path class="cls-2" d="M358.82,233.73l-89.13-12.29v-9.76l89.13,12.29v9.77"/>
  <path class="cls-2" d="M451.43,383.44l-89.13-12.29v-9.76l89.13,12.29v9.77"/>
  <path class="cls-2" d="M451.63,401.59l-89.13-12.29v-9.77l89.13,12.29v9.76"/>
  <path class="cls-2" d="M450.86,344.8l-89.12-12.29v-9.77l89.12,12.29v9.76"/>
  <path class="cls-2" d="M451.06,362.96l-89.12-12.29v-9.76l89.12,12.29v9.76"/>
  <path class="cls-3" d="M423.52,252.69c-8.11-7.15-8.93-19.55-1.83-27.71,7.1-8.16,19.44-8.98,27.55-1.84,8.11,7.14,8.94,19.55,1.83,27.71s-19.44,8.98-27.55,1.84"/>
  <path class="cls-4" d="M443.29,234.26c0,3.97-3.22,7.19-7.19,7.19s-7.19-3.22-7.19-7.19,3.22-7.19,7.19-7.19,7.19,3.22,7.19,7.19"/>
  <path class="cls-4" d="M450.77,250.9c-3.08-4.83-8.48-8.03-14.64-8.03s-11.36,3.08-14.46,7.76c.41.49.84.97,1.3,1.42,8.13,8.09,20.32,7.48,27.81-1.15"/>
  <path class="cls-5" d="M424.06,252.08c3.76,3.31,8.57,4.94,13.56,4.61,4.98-.33,9.55-2.6,12.83-6.38,6.8-7.81,6.01-19.72-1.76-26.56-3.76-3.31-8.56-4.95-13.55-4.61-4.99.33-9.55,2.6-12.84,6.38-6.79,7.81-6.01,19.72,1.76,26.56ZM436.35,258.38c-4.93,0-9.63-1.77-13.38-5.07-8.44-7.43-9.29-20.38-1.91-28.86,3.58-4.12,8.54-6.59,13.97-6.94,5.42-.36,10.65,1.42,14.74,5.02,8.44,7.43,9.3,20.38,1.91,28.86-3.58,4.11-8.54,6.58-13.96,6.94-.46.03-.92.04-1.38.04"/>
  <path class="cls-3" d="M413.75,203.06c-8.11-7.14-8.93-19.55-1.83-27.71,7.1-8.16,19.44-8.98,27.56-1.84,8.11,7.15,8.93,19.55,1.83,27.71-7.1,8.16-19.44,8.98-27.55,1.84"/>
  <path class="cls-4" d="M433.52,184.63c0,3.97-3.22,7.19-7.19,7.19s-7.19-3.22-7.19-7.19,3.22-7.19,7.19-7.19,7.19,3.22,7.19,7.19"/>
  <path class="cls-4" d="M441,201.27c-3.08-4.83-8.48-8.03-14.64-8.03s-11.36,3.08-14.46,7.76c.41.49.84.96,1.3,1.42,8.13,8.08,20.32,7.47,27.8-1.15"/>
  <path class="cls-5" d="M414.29,202.45c3.76,3.31,8.58,4.95,13.55,4.61,4.99-.33,9.55-2.59,12.84-6.38,6.8-7.81,6.01-19.72-1.76-26.55-3.76-3.31-8.57-4.95-13.55-4.61-4.99.33-9.55,2.59-12.84,6.38-6.79,7.81-6.01,19.72,1.76,26.56ZM426.58,208.74c-4.93,0-9.64-1.78-13.38-5.07-8.44-7.43-9.3-20.38-1.91-28.86,3.58-4.12,8.55-6.58,13.97-6.94,5.43-.36,10.66,1.42,14.74,5.02,8.44,7.43,9.3,20.38,1.91,28.86-3.58,4.12-8.54,6.58-13.97,6.94-.46.03-.92.05-1.37.05"/>
  <path class="cls-3" d="M373.64,172.76c-8.11-7.14-8.94-19.55-1.83-27.71s19.44-8.99,27.56-1.84c8.11,7.14,8.93,19.55,1.83,27.71s-19.44,8.99-27.55,1.84"/>
  <path class="cls-4" d="M393.4,154.32c0,3.97-3.22,7.19-7.19,7.19s-7.19-3.22-7.19-7.19,3.22-7.19,7.19-7.19,7.19,3.22,7.19,7.19"/>
  <path class="cls-4" d="M400.89,170.96c-3.08-4.82-8.48-8.03-14.64-8.03s-11.36,3.08-14.47,7.76c.41.49.84.97,1.3,1.42,8.13,8.08,20.33,7.48,27.81-1.15"/>
  <path class="cls-5" d="M374.18,172.14c3.76,3.31,8.57,4.94,13.55,4.61,4.98-.33,9.54-2.6,12.84-6.38,6.8-7.81,6.01-19.72-1.76-26.55-3.76-3.31-8.57-4.95-13.55-4.62-4.99.33-9.55,2.6-12.84,6.39-6.8,7.8-6.01,19.72,1.76,26.55ZM386.46,178.44c-4.93,0-9.63-1.77-13.37-5.06-8.44-7.43-9.3-20.38-1.91-28.87,3.58-4.11,8.54-6.58,13.97-6.94,5.42-.36,10.66,1.42,14.74,5.02,8.44,7.43,9.3,20.38,1.91,28.86-3.58,4.11-8.54,6.58-13.96,6.94-.46.03-.92.04-1.38.04"/>
  <path class="cls-2" d="M358.45,149.37c0,25.88-20.98,46.85-46.86,46.85s-46.85-20.98-46.85-46.85,20.97-46.85,46.85-46.85,46.86,20.98,46.86,46.85"/>
  <path class="cls-4" d="M352.68,149.37c0,25.88-20.97,46.85-46.85,46.85s-46.85-20.98-46.85-46.85,20.98-46.85,46.85-46.85,46.85,20.98,46.85,46.85"/>
  <path class="cls-5" d="M305.82,103.34c-25.39,0-46.03,20.65-46.03,46.03s20.65,46.03,46.03,46.03,46.03-20.65,46.03-46.03-20.65-46.03-46.03-46.03ZM305.82,197.05c-26.29,0-47.68-21.39-47.68-47.68s21.39-47.67,47.68-47.67,47.68,21.39,47.68,47.67-21.39,47.68-47.68,47.68"/>
  <path class="cls-3" d="M337.06,149.38c0,17.25-13.98,31.23-31.24,31.23s-31.23-13.98-31.23-31.23,13.98-31.24,31.23-31.24,31.24,13.98,31.24,31.24"/>
  <path class="cls-4" d="M321.44,149.37c0,8.63-6.99,15.62-15.62,15.62s-15.62-6.99-15.62-15.62,6.99-15.61,15.62-15.61,15.62,6.99,15.62,15.61"/>
  <path class="cls-3" d="M305.64,148.49l10.24-11.47,1.53,1.53-11.47,10.24c-.2.18-.47-.1-.3-.3"/>
  <path class="cls-5" d="M315.91,138.21l-2.51,2.81,2.81-2.51-.3-.3ZM305.64,148.49h.01-.01ZM305.8,149.66c-.27,0-.53-.1-.73-.3-.39-.4-.41-1-.04-1.42l10.24-11.47c.16-.17.36-.27.59-.28.22-.01.44.08.6.24l1.53,1.54c.16.16.25.38.24.6,0,.23-.1.44-.27.59l-11.47,10.24c-.2.18-.44.27-.69.27"/>
  <path class="cls-3" d="M316.6,139.3l-1.48-1.48c-.18-.18-.18-.48,0-.67l4.96-4.96,2.15,2.15-4.95,4.95c-.19.19-.48.19-.67,0"/>
  <path class="cls-5" d="M320.08,133.35l-3.64,3.64c-.13.13-.21.31-.21.49s.08.36.21.49c.26.27.72.27.99,0l3.64-3.64-.99-.99ZM316.94,139.83c-.63,0-1.21-.24-1.66-.69s-.69-1.03-.69-1.66.24-1.21.69-1.65l4.22-4.22c.31-.31.85-.31,1.16,0l2.15,2.15c.16.16.24.36.24.58s-.09.42-.24.58l-4.22,4.22c-.44.44-1.03.69-1.65.69"/>
  <path class="cls-3" d="M319.64,136.19l-1.41-1.4c-.63-.63-.63-1.65,0-2.28l50.59-50.58c.63-.63,1.65-.63,2.28,0l1.41,1.4c.63.63.63,1.65,0,2.28l-50.59,50.58c-.63.63-1.65.63-2.28,0"/>
  <path class="cls-5" d="M369.96,82.69c-.46,0-.92.17-1.27.52l-49.18,49.18c-.34.34-.52.79-.52,1.26s.18.92.52,1.26c.67.67,1.85.67,2.52,0l49.19-49.19c.69-.69.69-1.82,0-2.52-.35-.35-.8-.52-1.26-.52ZM320.78,137.07c-.92,0-1.77-.35-2.42-1-.65-.65-1-1.51-1-2.42s.35-1.78,1-2.42l49.18-49.18c1.33-1.34,3.51-1.34,4.84,0,1.33,1.33,1.33,3.51,0,4.84l-49.18,49.19c-.65.65-1.51,1-2.42,1"/>
  <path class="cls-4" d="M353.74,97l-1.52-7.41c-.6-2.92.3-5.94,2.41-8.05l9.44-9.43c.34-.34.93-.17,1.03.31l2.26,10.97-13.61,13.61"/>
  <path class="cls-5" d="M364.38,72.97l-9.16,9.16c-1.92,1.91-2.73,4.64-2.19,7.3l1.22,5.91,12.22-12.22-2.09-10.15ZM353.74,97.82c-.08,0-.16,0-.23-.03-.29-.08-.51-.32-.57-.62l-1.52-7.4c-.66-3.2.33-6.48,2.64-8.8l9.44-9.43c.38-.38.92-.51,1.42-.36s.89.56.99,1.08l2.26,10.96c.06.27-.03.55-.22.74l-13.61,13.61c-.16.15-.36.23-.58.23"/>
  <path class="cls-4" d="M357.43,100.68l7.4,1.53c2.91.6,5.94-.31,8.05-2.41l9.44-9.44c.34-.34.16-.93-.31-1.03l-10.96-2.26-13.61,13.61"/>
  <path class="cls-5" d="M359.09,100.18l5.91,1.22c2.66.54,5.39-.27,7.3-2.19l9.16-9.16-10.15-2.09-12.22,12.22ZM366.63,103.21c-.65,0-1.31-.06-1.96-.2l-7.41-1.53c-.29-.06-.53-.28-.62-.57-.09-.29,0-.6.21-.82l13.61-13.61c.19-.19.47-.28.74-.22l10.97,2.26c.52.1.93.48,1.08.99.15.51.02,1.05-.36,1.42l-9.43,9.43c-1.84,1.84-4.3,2.84-6.83,2.84"/>
  <path class="cls-3" d="M369.5,90.91l8.92,1.67-8.92-1.67"/>
  <path class="cls-5" d="M378.41,93.4s-.1,0-.15-.01l-8.91-1.67c-.45-.08-.74-.52-.66-.96.08-.45.51-.74.96-.66l8.91,1.67c.45.08.74.51.66.96-.07.4-.42.67-.81.67"/>
  <path class="cls-3" d="M365.88,94.54l8.91,1.66-8.91-1.66"/>
  <path class="cls-5" d="M374.79,97.02c-.05,0-.1,0-.15-.02l-8.92-1.67c-.45-.08-.73-.51-.66-.96.08-.44.52-.74.96-.66l8.91,1.67c.45.08.74.51.66.95-.08.4-.42.67-.81.67"/>
  <path class="cls-3" d="M352.31,100.28l1.84,1.84-1.84-1.84"/>
  <path class="cls-5" d="M354.14,102.94c-.21,0-.42-.08-.58-.24l-1.84-1.84c-.32-.32-.32-.84,0-1.16.32-.32.84-.32,1.16,0l1.84,1.84c.32.32.32.84,0,1.16-.16.16-.37.24-.58.24"/>
  <path class="cls-3" d="M354.43,98.16l1.84,1.84-1.84-1.84"/>
  <path class="cls-5" d="M356.27,100.82c-.21,0-.42-.08-.58-.24l-1.84-1.84c-.32-.32-.32-.84,0-1.16s.84-.32,1.16,0l1.84,1.84c.32.32.32.84,0,1.16-.16.16-.38.24-.58.24"/>
  <path class="cls-3" d="M356.56,96.03l1.83,1.84-1.83-1.84"/>
  <path class="cls-5" d="M358.4,98.69c-.21,0-.42-.08-.58-.24l-1.84-1.84c-.32-.32-.32-.84,0-1.16s.84-.32,1.16,0l1.84,1.84c.32.32.32.84,0,1.16-.16.16-.37.24-.58.24"/>
  <path class="cls-5" d="M284.03,17.88c-2.13,0-3.86,1.73-3.86,3.85s1.73,3.85,3.86,3.85,3.85-1.73,3.85-3.85-1.73-3.85-3.85-3.85ZM284.03,27.23c-3.03,0-5.5-2.47-5.5-5.5s2.47-5.49,5.5-5.49,5.49,2.46,5.49,5.49-2.46,5.5-5.49,5.5"/>
  <path class="cls-5" d="M205.67,428.3c-.08,0-.17-.01-.24-.04-4.7-1.48-9.39-3.19-13.94-5.07-.42-.17-.62-.66-.45-1.07s.65-.62,1.07-.45c4.51,1.86,9.16,3.56,13.81,5.03.43.14.67.6.53,1.03-.11.35-.43.57-.78.57"/>
  <path class="cls-5" d="M259.23,436.56c-.6,0-1.19,0-1.79-.01-17.76-.18-35.26-2.96-52.02-8.29-.43-.14-.67-.59-.54-1.03.14-.43.6-.67,1.03-.54,16.61,5.27,33.95,8.03,51.54,8.2,11,.11,22.02-.8,32.76-2.71.45-.08.88.21.95.66.08.45-.21.88-.66.95-10.26,1.82-20.77,2.75-31.28,2.75"/>
  <path class="cls-5" d="M184.97,437.99c-.1,0-.2-.02-.3-.06-2.38-.95-4.77-1.96-7.12-3.02-.41-.19-.6-.67-.41-1.08.19-.42.67-.6,1.08-.41,2.33,1.04,4.7,2.05,7.06,2.99.42.17.63.65.46,1.07-.13.32-.44.52-.77.52"/>
  <path class="cls-5" d="M254.15,451.29c-.63,0-1.25,0-1.87-.01-23.32-.23-46.07-4.72-67.61-13.35-.42-.17-.63-.65-.46-1.07s.65-.63,1.07-.45c21.35,8.55,43.9,13,67.02,13.23,13.21.14,26.42-1.14,39.27-3.79.45-.09.88.2.97.64s-.2.88-.64.97c-12.35,2.54-25.04,3.83-37.74,3.83"/>
  <path class="cls-5" d="M307.19,435.4c-.21,0-.41.02-.62.05-2.22.34-3.75,2.42-3.41,4.64s2.42,3.74,4.64,3.41c2.22-.34,3.75-2.42,3.41-4.64-.31-2.02-2.05-3.46-4.02-3.46ZM307.18,445.18c-2.77,0-5.21-2.03-5.65-4.85-.47-3.11,1.67-6.03,4.79-6.51,3.11-.48,6.04,1.67,6.51,4.78.48,3.12-1.67,6.04-4.79,6.52-.29.05-.58.07-.86.07"/>
  <path class="cls-5" d="M156.42,425.72l10.68,4.53-1.68-11.01-9,6.47ZM168.14,432.41c-.11,0-.22-.02-.32-.07l-13.38-5.67c-.28-.11-.46-.37-.5-.67-.03-.29.1-.58.34-.76l11.27-8.11c.23-.17.54-.2.8-.09.26.11.45.35.49.63l2.11,13.78c.04.3-.07.59-.31.78-.15.11-.33.17-.51.17"/>
  <path class="cls-5" d="M179.37,46.13c-.28,0-.56-.15-.71-.41-.23-.39-.1-.9.29-1.13,18.43-10.87,38.19-18.31,58.74-22.11.45-.08.88.21.96.66.08.44-.21.88-.66.96-20.36,3.77-39.95,11.14-58.21,21.91-.13.08-.28.11-.42.11"/>
  <path class="cls-5" d="M215.02,43.71c-.3,0-.6-.17-.74-.47-.19-.41-.02-.9.39-1.09,13.76-6.61,28.22-11.34,42.97-14.07.45-.08.87.21.95.66s-.21.88-.66.96c-14.61,2.7-28.93,7.4-42.56,13.94-.12.06-.23.08-.36.08"/>
  <path class="cls-3" d="M66.22,425.1l1.32,12.56,8.49,1v-14.9l-9.81,1.34"/>
  <path class="cls-5" d="M68.29,436.92l6.93.81v-13.03l-8.09,1.1,1.17,11.11ZM76.03,439.48s-.06,0-.09,0l-8.49-.99c-.38-.04-.68-.35-.72-.73l-1.32-12.57c-.05-.44.27-.83.71-.9l9.81-1.34c.23-.03.47.04.65.2.18.15.28.38.28.61v14.9c0,.23-.1.45-.28.61-.15.14-.34.21-.55.21"/>
  <path class="cls-4" d="M77.37,460.53c-3.54.5-9.34.94-16.16,0-2.23-.31-3.71-2.47-3.17-4.67,1.5-6.1,4.08-17.67,8.52-23.03l1.1,2.91,1.52-2.73c.21-.38.58-.63,1.01-.69l3.33-.42c.7-.09,1.34.37,1.49,1.06l.53,2.52,1.16-3.31,3.88,24.12c.27,2.06-1.16,3.96-3.22,4.25"/>
  <path class="cls-5" d="M66.32,434.52c-3.52,5.19-5.78,14.49-7.17,20.21l-.32,1.32c-.2.83-.05,1.67.43,2.38.47.7,1.22,1.16,2.06,1.28,6.66.92,12.34.51,15.93,0,1.6-.22,2.73-1.72,2.52-3.33l-3.36-20.9-.09.26c-.13.34-.46.57-.83.55-.37-.03-.68-.29-.75-.65l-.53-2.52c-.06-.27-.31-.45-.58-.42l-3.33.42c-.17.02-.31.12-.4.27l-1.52,2.74c-.16.28-.46.45-.78.42-.32-.03-.59-.23-.71-.53l-.57-1.51ZM77.37,460.53h0,0ZM69.34,461.9c-2.49,0-5.28-.15-8.24-.56-1.3-.18-2.46-.9-3.2-1.98s-.97-2.42-.67-3.69l.32-1.32c1.54-6.32,4.11-16.9,8.37-22.04.19-.23.48-.34.77-.29.29.05.53.24.64.52l.47,1.26.67-1.19c.33-.6.94-1.01,1.62-1.1l3.33-.42c1.01-.13,1.96.47,2.31,1.4l.21-.58c.12-.35.47-.58.84-.55.38.04.68.32.74.69l3.88,24.12c.33,2.53-1.43,4.84-3.92,5.19-2.09.3-4.88.56-8.15.56"/>
  <path class="cls-5" d="M67.53,457.86c-2.29,0-4.76-.2-7.23-.77-.44-.1-.72-.54-.62-.98.1-.44.55-.72.98-.62,8.23,1.88,16.88-.54,16.96-.56.44-.13.89.13,1.02.56.13.44-.13.89-.56,1.02-.27.08-4.81,1.35-10.55,1.35"/>
  <path class="cls-5" d="M65.5,448.52c-.44,0-.8-.35-.82-.8-.02-.45.34-.83.79-.85l7.96-.26c.45-.02.83.34.85.79s-.34.83-.79.85l-7.96.26s-.02,0-.03,0"/>
  <path class="cls-3" d="M106.01,418.41l1.27,18.33h10.22l.47-18.33h-11.97"/>
  <path class="cls-5" d="M108.05,435.92h8.65l.44-16.69h-10.25l1.16,16.69ZM117.51,437.57h-10.22c-.43,0-.79-.33-.82-.77l-1.27-18.33c-.02-.23.06-.45.22-.62s.37-.26.6-.26h11.97c.22,0,.44.09.59.25.16.16.24.37.23.59l-.47,18.33c-.02.45-.38.8-.82.8"/>
  <path class="cls-4" d="M104.61,447.09c-.03,1.74,1.16,3.26,2.85,3.65,5.88,1.37,19.11,4.42,22.89,4.98,4.9.72,10.92-.78,13.52-3.64,2.59-2.86-5.8-9.71-9.78-12.2-5.92-3.7-11.6-11.01-13.98-11.34-2.38-.33-6.83,6.58-6.83,6.58l-7.27-3.06s-1.27,6.23-1.4,15.03"/>
  <path class="cls-5" d="M105.43,447.11c-.02,1.34.91,2.54,2.21,2.84,5.61,1.3,19.06,4.4,22.83,4.96,4.73.7,10.46-.81,12.79-3.38.15-.16.33-.44.26-.99-.38-2.71-5.97-7.52-9.86-9.96-3.02-1.89-5.89-4.61-8.42-7.02-2.11-2.01-4.3-4.08-5.23-4.21-1.1-.16-4.01,3.09-6.03,6.21-.21.33-.64.46-1.01.31l-6.33-2.66c-.35,2.08-1.1,7.28-1.2,13.89ZM132.9,456.72c-.9,0-1.8-.06-2.67-.19-3.83-.57-17.33-3.68-22.96-4.99-2.05-.48-3.52-2.35-3.48-4.46.13-8.77,1.4-15.11,1.42-15.18.05-.24.2-.45.42-.56.22-.11.47-.13.7-.03l6.64,2.79c1.44-2.14,4.81-6.71,7.26-6.37,1.39.19,3.15,1.8,6.14,4.64,2.47,2.35,5.28,5.02,8.16,6.82,2.58,1.61,10.06,7.11,10.62,11.13.13.9-.1,1.7-.66,2.32-2.25,2.48-6.99,4.09-11.58,4.09"/>
  <path class="cls-5" d="M132.82,453.35c-10.73,0-25.04-5.78-25.84-6.11-.42-.17-.62-.65-.45-1.07.17-.42.66-.63,1.07-.45.26.1,25.95,10.48,33.41,3.74.34-.3.85-.28,1.16.06.3.33.28.85-.06,1.16-2.15,1.94-5.49,2.66-9.29,2.66"/>
  <path class="cls-5" d="M121.48,442.26c-.22,0-.45-.09-.61-.27-.3-.34-.28-.85.06-1.16l5.2-4.69c.33-.3.85-.28,1.16.06.31.33.28.85-.06,1.16l-5.2,4.69c-.16.14-.35.21-.55.21"/>
  <path class="cls-5" d="M63.32,298.88s-3.17,57.32-4.83,77.1,3.88,51.59,3.88,51.59l15.78-.83s1.08-38.67,2.26-49.41c0,0,6.66-14.56,8.64-27.54,1.98-12.98,8.71-33.49,8.71-33.49,0,0,5.46,102.36,5.99,110.41,0,0,12.38.55,16.81-2.24,0,0,7.86-37.33,6.73-57.64s.11-70.76.11-70.76l-64.07,2.81"/>
  <path class="cls-3" d="M77.5,378.16h-4.82c-.46,0-.82-.37-.82-.82s.36-.82.82-.82h4.82c.45,0,.82.37.82.82s-.36.82-.82.82"/>
  <path class="cls-3" d="M111.85,407.93h-.02c-.45-.01-.81-.39-.8-.84.17-9.55,10.6-26.59,11.05-27.31.23-.39.74-.51,1.13-.27.39.24.51.74.27,1.13-.1.18-10.64,17.38-10.81,26.48-.01.45-.38.81-.82.81"/>
  <path class="cls-3" d="M132.39,207.21c1.15-.09,6.79,11.46,24.43,10.97,17.65-.48,31.8-20.22,31.8-20.22,0,0,6.09-10.28,10.72-13.99,4.63-3.71,5.35-4.2,5.35-4.2,0,0,1.45,1.93,0,4.2-1.45,2.28-5.45,6.53-5.45,6.53,0,0,4.41,2.42,2.42,7.47-2.29,5.8-8.73,5.33-8.73,5.33,0,0-13.08,57.92-67.15,30.4l6.61-26.48"/>
  <path class="cls-5" d="M126.73,233.25c15.66,7.83,29.3,9.13,40.55,3.85,18.96-8.9,24.78-33.74,24.84-33.99.09-.4.46-.67.86-.64.24.02,5.88.34,7.91-4.81,1.7-4.32-1.9-6.36-2.05-6.44-.22-.13-.38-.34-.42-.59-.04-.25.04-.51.21-.69.04-.04,3.97-4.22,5.36-6.4.64-1,.57-1.91.39-2.51-.72.55-2.06,1.61-4.53,3.59-4.46,3.58-10.47,13.67-10.53,13.77-.01.02-.02.04-.04.06-.59.82-14.6,20.08-32.45,20.57-14.36.41-20.92-6.9-23.71-10.02-.09-.09-.18-.2-.27-.3l-6.14,24.56ZM152.58,241.93c-8.27,0-17.35-2.51-27.18-7.51-.34-.17-.52-.56-.43-.93l6.61-26.47c.09-.35.38-.59.73-.62.64-.06,1.08.43,2.03,1.49,2.64,2.95,8.83,9.84,22.44,9.47,16.73-.46,30.54-19.04,31.14-19.86.45-.76,6.29-10.48,10.89-14.18,4.6-3.69,5.38-4.22,5.41-4.24.36-.24.85-.16,1.11.19.07.09,1.77,2.42.04,5.14-1.13,1.77-3.69,4.63-4.9,5.95,1.65,1.33,3.45,4.07,1.93,7.9-2.01,5.11-7.01,5.78-8.85,5.85-1.07,4.04-7.64,26.05-25.58,34.48-4.75,2.23-9.89,3.34-15.4,3.34"/>
  <path class="cls-4" d="M44.94,233.69s5.29-34.18,24-42.59c18.71-8.41,44.02-7.23,50.99-3.04s25.17,23.18,25.17,23.18l-16.07,22.44s3.67,60.41.77,76.35c0,0-17.88,2.08-25.47-.9-7.58-2.99-32.52-7.17-44.44-1.7l2.17-76.48-17.12,2.72"/>
  <path class="cls-5" d="M76.09,303.96c11.36,0,23.63,2.48,28.54,4.42,6.53,2.57,21.28,1.24,24.46.92,2.66-16.54-.85-74.96-.89-75.56-.02-.19.04-.37.15-.53l15.68-21.88c-2.91-3.01-18.34-18.84-24.53-22.56-6.51-3.92-31.61-5.29-50.23,3.09-16.2,7.28-22.21,34.92-23.33,40.84l15.98-2.54c.24-.04.49.03.67.19s.29.4.28.64l-2.13,75.2c4.2-1.61,9.66-2.23,15.34-2.23ZM117.19,311.58c-4.79,0-9.87-.38-13.16-1.68-7.82-3.08-32.47-6.92-43.8-1.71-.26.11-.56.09-.8-.06-.24-.16-.38-.43-.37-.71l2.14-75.49-16.15,2.56c-.26.05-.52-.04-.71-.22-.19-.19-.27-.45-.23-.71.22-1.42,5.58-34.72,24.47-43.21,18.53-8.33,44.17-7.56,51.76-2.99,6.99,4.2,24.59,22.54,25.34,23.32.28.29.31.73.07,1.05l-15.9,22.2c.3,5.09,3.55,60.8.74,76.26-.07.35-.35.63-.71.67-.42.05-6.3.72-12.7.72"/>
  <path class="cls-5" d="M76.32,292.51c-.39,0-.73-.28-.81-.68-.08-.45.22-.88.67-.95,28.23-4.99,36.47-24.51,36.56-24.7.17-.42.65-.62,1.07-.45.42.17.63.65.45,1.07-.08.2-8.63,20.55-37.79,25.7-.05.01-.09.02-.15.02"/>
  <path class="cls-5" d="M127.67,257.57h-36.4l11.4-40.66h36.4l-11.4,40.66"/>
  <path class="cls-3" d="M48.15,233.82l18.42-8.23s-2.59,31.22,34.68,16.8c0,0-1.37-4.01-1.18-8.7s2.99-.15,3.39,3.66c.39,3.81,9.14,2.27,14.4.76,5.26-1.5,12.16-.52,0,6.19s-14.83,3.71-14.83,3.71c0,0-15.53,21.73-34.85,17.11-23.77-5.68-20.03-31.31-20.03-31.31"/>
  <path class="cls-5" d="M48.91,234.38c-.16,1.55-.53,6.97,1.15,12.79,2.63,9.11,8.79,14.89,18.32,17.16,18.57,4.44,33.84-16.58,33.99-16.79.15-.2.38-.33.63-.34.25,0,.49.08.66.28,0,0,2.73,2.23,13.82-3.89,6.47-3.57,6.35-4.87,6.35-4.88-.24-.42-2.67-.68-5.73.2-2.5.71-10.91,2.88-14.13.7-.77-.52-1.22-1.27-1.32-2.17-.21-2-1.08-3.95-1.65-4.67-.05.2-.09.51-.11.97-.18,4.46,1.13,8.35,1.14,8.4.14.42-.07.87-.48,1.03-12.85,4.97-22.51,5.14-28.7.51-6.49-4.86-7.15-13.46-7.14-16.79l-16.8,7.51ZM73.57,266.58c-1.82,0-3.68-.2-5.58-.66-24.22-5.79-20.69-31.96-20.65-32.23.04-.28.22-.52.47-.63l18.43-8.23c.27-.12.57-.09.81.08.24.17.37.45.34.74-.01.11-.83,11.27,6.44,16.7,5.6,4.19,14.48,4.03,26.41-.46-.4-1.41-1.15-4.61-.99-8.24.03-.68.11-2.74,1.54-2.78h.04c1.83,0,3.22,4.15,3.45,6.39.04.42.23.72.6.97,1.95,1.32,7.81.49,12.76-.92,2.65-.76,6.9-1.18,7.69.76.71,1.71-1.47,3.85-7.07,6.94-9.37,5.17-13.45,4.74-15.02,4.08-2.45,3.16-14.47,17.49-29.67,17.49"/>
  <path class="cls-5" d="M97.32,175.53c-1.59,1.46-4.7,3.23-7.14,2.01-1.81-.91-2.82-3.28-2.76-5.99-.84.07-1.94.01-2.73-.68-1.21-1.07-.98-3.04-.93-4.33.22-5.96-3.24-6.88-2.4-10.93.67-3.18,3.17-5.07,3.64-5.43,2.35-1.79,3.95-1.21,7.92-2.25,6.67-1.75,6.88-4.63,11.28-4.64.25,0,6.23.07,8.27,4.2,1.65,3.36-.28,7.45-2.27,9.6-2.58,2.78-4.44,1.41-7.03,3.73-4.55,4.09-1.11,10.38-5.84,14.7"/>
  <path class="cls-3" d="M110.64,164.89l-.26-.23c-1.32-1.14-2.7-2.46-3.05-4.17-1.49-7.26-8.14-9.89-8.44-3.22-.08,1.68-6.22,1.59-5.49,3.35,1.9,4.6,1.94,3.37-.74,5.06-.3.01-.6.08-.89.21-1.38.64-1.86,2.51-1.09,4.17.47,1.01,1.3,1.7,2.19,1.95v7.27c0,2.73-1.65,5.18-4.17,6.22l-2.46,1s11.45,7.47,23.07-.73l-1.55-.69c-2.73-1.22-4.53-3.9-4.62-6.9v-1.42c.77.07,1.53.02,2.23-.19,3.25-.94,4.33-4.69,3.78-9.34l1.32-.71c.61-.33.71-1.18.18-1.64"/>
  <path class="cls-5" d="M88.13,186.63c3.18,1.56,11.13,4.41,19.47-.71l-.19-.08c-3-1.34-5-4.33-5.1-7.62l-.02-1.44c0-.23.09-.45.27-.61.17-.16.4-.24.63-.22.71.07,1.36.01,1.94-.16,3.66-1.06,3.45-6.27,3.19-8.46-.04-.33.13-.66.43-.82l1.32-.71c.07-.04.09-.09.09-.14s0-.1-.06-.16l-.27-.22c-1.39-1.2-2.91-2.64-3.31-4.63-.89-4.31-3.59-6.53-5.11-6.4-1.42.11-1.67,2.17-1.71,3.05-.06,1.4-1.79,1.88-3.46,2.35-.67.18-1.74.48-2.06.74.26.63.48,1.14.66,1.56.91,2.09,1.21,2.79-.63,3.78-.3.16-.68.36-1.13.65-.13.07-.27.12-.41.13-.21,0-.41.05-.58.14-.44.2-.76.62-.9,1.17-.16.6-.08,1.28.21,1.91.35.75.97,1.32,1.67,1.51.35.1.59.43.59.79v7.27c0,3.08-1.84,5.81-4.68,6.97l-.86.36ZM97.56,190.42c-6.72,0-11.7-3.17-11.78-3.22-.26-.17-.4-.46-.37-.77.03-.3.22-.56.51-.68l2.45-1c2.22-.91,3.66-3.05,3.66-5.46v-6.71c-.9-.42-1.65-1.19-2.1-2.17-.46-.97-.57-2.05-.31-3.02.27-1.03.91-1.82,1.8-2.24.3-.14.63-.23.97-.27.42-.26.77-.44,1.06-.6.17-.09.36-.19.47-.26-.07-.27-.31-.82-.57-1.41-.19-.45-.43-1-.71-1.67-.17-.42-.16-.83.03-1.21.43-.9,1.69-1.25,3.15-1.66.71-.2,2.04-.57,2.26-.88.2-4.02,2.52-4.52,3.22-4.57,2.49-.17,5.82,2.7,6.85,7.71.3,1.48,1.59,2.69,2.78,3.71l.26.23c.46.39.69.98.62,1.57-.06.6-.42,1.12-.94,1.41l-.84.45c.48,5.2-1.11,8.71-4.42,9.67-.52.15-1.06.23-1.64.24v.57c.09,2.64,1.71,5.06,4.14,6.15l1.55.7c.27.12.45.38.48.67.03.3-.1.58-.34.75-4.25,3.01-8.5,3.97-12.22,3.97"/>
  <path class="cls-5" d="M103.12,177.59s-.08,0-.13-.01c-4.85-.74-7.03-4.45-7.13-4.61-.22-.39-.09-.89.3-1.12.4-.22.9-.09,1.13.3.03.05,1.91,3.19,5.95,3.81.45.06.76.48.69.93-.06.41-.41.7-.81.7"/>
  <path class="cls-5" d="M365.11,364.53c1.69-1.69,2.65-3.6,2.65-5.65,0-6.71-10.4-12.15-23.22-12.15s-23.22,5.44-23.22,12.15c0,2.04.96,3.96,2.65,5.65-1.69,1.69-2.65,3.6-2.65,5.64,0,3.19,2.34,6.08,6.17,8.26-.08.36-.14.72-.14,1.1,0,4.97,7.7,8.99,17.19,8.99s17.19-4.03,17.19-8.99c0-.38-.05-.74-.14-1.1,3.83-2.17,6.17-5.07,6.17-8.26,0-2.04-.96-3.95-2.65-5.64"/>
  <path class="cls-3" d="M406.86,264.83c0-34.42-27.9-62.32-62.32-62.32s-62.09,27.54-62.32,61.9c-.11,17.49,6.98,33.33,18.48,44.71,8.3,8.21,14.35,18.42,17.29,29.72l.14.55c2.85,10.97,12.76,18.63,24.09,18.63h4.65c11.33,0,21.24-7.66,24.09-18.63l.08-.33c2.92-11.22,8.72-21.53,17.02-29.62,11.6-11.32,18.8-27.13,18.8-44.61"/>
  <path class="cls-5" d="M344.54,203.33c-33.68,0-61.28,27.41-61.5,61.08-.11,16.71,6.36,32.38,18.24,44.13,8.53,8.44,14.58,18.84,17.51,30.1l.14.55c2.76,10.6,12.34,18.01,23.3,18.01h4.65c10.96,0,20.54-7.41,23.29-18.01l.09-.33c3-11.56,8.96-21.93,17.24-30.01,11.97-11.68,18.56-27.31,18.56-44.02,0-33.91-27.59-61.51-61.51-61.51ZM346.86,358.84h-4.65c-11.71,0-21.94-7.91-24.89-19.24l-.14-.54c-2.85-10.97-8.76-21.12-17.07-29.35-12.19-12.06-18.84-28.16-18.72-45.31.11-16.83,6.72-32.6,18.6-44.41,11.89-11.81,27.7-18.31,44.54-18.31,34.82,0,63.15,28.32,63.15,63.15,0,17.16-6.77,33.21-19.05,45.19-8.06,7.86-13.87,17.98-16.8,29.24l-.09.33c-2.95,11.33-13.18,19.24-24.88,19.24"/>
  <path class="cls-5" d="M348.87,348.99c-.42,0-.78-.32-.82-.74-3.14-33.94,13.15-87.67,13.31-88.21.14-.43.59-.68,1.03-.54.44.13.68.59.55,1.03-.17.53-16.36,53.96-13.25,87.57.04.45-.29.85-.74.89-.03,0-.05,0-.08,0"/>
  <path class="cls-5" d="M341.17,347.55c-.44,0-.81-.36-.82-.81-1.18-64.85-13.96-83.37-14.09-83.55-.27-.37-.18-.88.19-1.15.36-.27.88-.18,1.14.18.54.74,13.21,18.95,14.4,84.49.01.45-.35.83-.81.83h-.02"/>
  <path class="cls-5" d="M349.81,253.4c-.66.47-1.95,3.34-1.82,6.33.08,1.7.59,3.56,1.38,5.04.76-1.59,1.28-3.36,1.45-4.89.34-2.97-.44-5.91-1-6.48ZM339.92,255.36c-.54.13-1.65,2.96-1.29,6.11.18,1.61.78,3.33,1.61,4.76,1.3-1.7,2.06-4.2,1.89-6.28-.21-2.5-1.71-4.59-2.21-4.59ZM344.34,271.01c-.07,0-.14,0-.21,0-1.58-.07-2.96-.97-4.08-2.26-1.07.81-2.27,1.24-3.54,1.27-3.27.05-6.42-2.54-7.66-6.34-.14-.43.09-.9.53-1.03.43-.14.89.09,1.04.53.99,3.03,3.49,5.21,5.98,5.21h.08c1.06-.02,1.93-.44,2.6-.95-1.14-1.79-1.86-3.96-2.07-5.77-.3-2.63.32-5.75,1.4-7.1.39-.49.84-.77,1.34-.82.35-.04.91.03,1.54.55,1.24,1.02,2.31,3.4,2.49,5.53.23,2.67-.79,5.77-2.54,7.81.88,1.02,1.91,1.7,2.97,1.74,1.6.08,3.08-1.17,4.23-2.93-1.26-1.93-1.99-4.52-2.08-6.62-.14-3.17,1.06-6.37,2.26-7.52.43-.42.88-.61,1.34-.57.42.04.8.26,1.14.66,1.08,1.31,1.68,4.76,1.35,7.69-.22,1.96-.93,4.27-2.03,6.26.67.76,1.41,1.22,2.22,1.21,1.6-.02,3.43-1.97,4.44-4.74.15-.43.63-.65,1.05-.49.42.16.64.63.49,1.05-1.28,3.5-3.62,5.79-5.96,5.82-1.23.01-2.27-.53-3.16-1.42-1.37,1.9-3.13,3.24-5.16,3.24"/>
  <path class="cls-2" d="M363.63,230.72c1.97,1.92,4.2,3.56,6.1,5.56,2.04,2.16,3.79,4.68,5.42,7.16,1.57,2.4,3.05,4.94,4.14,7.6.49,1.23.77,2.55,1.13,3.82.55,1.94,1.45,6.32,4.08,6.49,1.46.09,2.51-1.4,3.18-2.47,1.19-1.92,1.72-4.18,1.9-6.42.36-4.69-.86-9.4-2.7-13.68-1.91-4.43-4.61-8.57-7.98-12.04-1.39-1.43-2.95-2.82-4.66-3.97-.05-.04-.09-.08-.15-.12-1.97-1.49-4.13-3.03-6.66-3.22-1.92-.15-3.99.39-5.48,1.63-3.66,3.03-.95,7.09,1.71,9.67"/>
  <path class="cls-2" d="M358.22,220.7c.81-1.69.54-4.59-.76-6.22-.01-.05-.03-.11-.06-.16-2.28-3.74-8.04-2.83-8.87,1.54-.86,4.58,7.18,10.03,9.69,4.83"/>
  <path class="cls-5" d="M363.13,310.19c-.32,0-.62-.18-.76-.49-.18-.42.01-.9.43-1.08,12.13-5.26,21.72-15.38,26.32-27.76.16-.42.64-.64,1.06-.48.43.16.64.63.48,1.06-4.75,12.8-14.66,23.26-27.21,28.69-.1.05-.21.07-.32.07"/>
  <path class="cls-5" d="M306.98,298.21c-.22,0-.44-.09-.6-.27-8.53-9.3-13.23-21.38-13.23-34,0-9.63,2.72-18.97,7.88-27.05,5.02-7.85,12.09-14.16,20.46-18.23.41-.2.9-.03,1.1.38.2.41.03.9-.39,1.09-16.91,8.22-27.41,25.01-27.41,43.8,0,12.21,4.55,23.9,12.8,32.89.31.33.29.85-.05,1.16-.16.14-.36.21-.56.21"/>
  <path class="cls-5" d="M316.38,299.28c-.16,0-.33-.05-.47-.16-8.63-6.08-14.62-15.13-16.86-25.45-3.46-15.89,2.33-32.01,15.11-42.07.36-.28.88-.22,1.16.14.28.35.22.87-.14,1.15-12.28,9.67-17.85,25.16-14.53,40.42,2.16,9.93,7.92,18.61,16.21,24.46.37.26.46.78.2,1.15-.16.22-.41.35-.67.35"/>
  <path class="cls-3" d="M335.79,368.43c-5.92,0-9.94-.62-10.03-.64-.45-.07-.76-.49-.68-.94s.49-.75.94-.68c.2.03,20.29,3.13,36.81-4.83.41-.2.9-.03,1.1.39.2.41.02.9-.39,1.09-9.53,4.59-20.2,5.6-27.76,5.6"/>
  <path class="cls-3" d="M338.28,379.36c-4.24,0-7.16-.45-7.43-.49-.45-.07-.76-.49-.68-.94.07-.44.49-.75.94-.68.15.02,14.69,2.26,26.64-3.49.41-.19.9-.02,1.1.39.19.41.02.9-.39,1.09-7.01,3.38-14.69,4.13-20.18,4.13"/>
</svg>