<?xml version="1.0" encoding="UTF-8"?>
<svg id="Layer_1" data-name="Layer 1" xmlns="http://www.w3.org/2000/svg" viewBox="0 0 500 500">
  <defs>
    <style>
      .cls-1 {
        fill: #d9c4a1;
      }

      .cls-1, .cls-2, .cls-3, .cls-4, .cls-5 {
        stroke-width: 0px;
      }

      .cls-2 {
        fill: #d4d3d2;
      }

      .cls-3 {
        fill: #fff;
      }

      .cls-4 {
        fill: #7a5443;
      }

      .cls-5 {
        fill: #332d2a;
      }
    </style>
  </defs>
  <path class="cls-2" d="M472.97,107.29c-15.41-31.05-46.19-47.83-65.28-58.23C325.17,4.08,212.75,16.05,138.03,57.99,64.27,99.39,0,197.4,26.94,303.89c27.05,106.9,132.32,161.87,211.95,173.53,126.43,18.51,232.67-65.69,238.48-94.91,1.8-9.01,1.33-16.99,1.33-16.99-2.24-21.09-19.61-33.63-23.66-81.7-7.45-88.45,44.96-122.07,17.94-176.53"/>
  <path class="cls-1" d="M139.33,397.76c8.85-6.32,18.02-12.21,27.33-17.83,18.9-11.41,38.5-21.6,58.23-31.48,10.38-5.2,21.04-9.9,31.59-14.74,10.62-4.86,21.25-9.69,31.89-14.51,9.72-4.4,19.44-8.81,29.15-13.23,32.33-68.55,68.03-146.27,63.65-146.27l-331.2-9.38c-7.83,0-14.21,6.36-14.21,14.19v229.73c0,7.83,6.38,14.2,14.21,14.2h74.07c5.01-3.68,10.24-7.07,15.3-10.68"/>
  <path class="cls-5" d="M381.14,160.54h.03-.03ZM49.94,151.15c-7.35,0-13.35,5.99-13.35,13.36v229.73c0,7.37,6,13.36,13.38,13.36h73.8c2.77-2.03,5.63-3.98,8.41-5.89,2.2-1.51,4.47-3.07,6.68-4.64,8.18-5.84,17.14-11.68,27.38-17.86,19.97-12.05,40.67-22.69,58.29-31.51,8.05-4.03,16.39-7.82,24.45-11.48,2.39-1.09,4.78-2.17,7.17-3.27,10.55-4.84,21.11-9.62,31.89-14.51,9.39-4.24,19.08-8.64,28.88-13.1,55.15-116.93,63.9-141.27,63.83-144.82l-330.79-9.38ZM124.31,409.27H49.96c-8.29,0-15.04-6.74-15.04-15.03v-229.73c0-8.29,6.75-15.03,15.04-15.03l331.23,9.39c.38,0,.72.19.94.53.85,1.35,3.13,4.93-63.86,146.93l-.13.28-.28.13c-9.89,4.51-19.68,8.95-29.15,13.24-10.78,4.89-21.33,9.67-31.89,14.5-2.39,1.1-4.78,2.18-7.17,3.27-8.05,3.66-16.38,7.44-24.39,11.45-17.59,8.81-38.26,19.43-58.17,31.45-10.21,6.16-19.14,11.98-27.28,17.79l-.48-.68.48.68c-2.22,1.58-4.5,3.15-6.71,4.66-2.83,1.95-5.77,3.95-8.58,6.02l-.22.16"/>
  <path class="cls-3" d="M392.18,151.13H56.72c-7.4,0-13.41,5.99-13.41,13.39v229.73c0,7.4,6.01,13.39,13.41,13.39h335.45c7.41,0,13.41-5.99,13.41-13.39v-229.73c0-7.4-6-13.39-13.41-13.39"/>
  <path class="cls-5" d="M56.72,151.96c-6.93,0-12.57,5.64-12.57,12.56v229.73c0,6.93,5.64,12.56,12.57,12.56h335.45c6.93,0,12.57-5.63,12.57-12.56v-229.73c0-6.92-5.64-12.56-12.57-12.56H56.72ZM392.18,408.47H56.72c-7.85,0-14.24-6.38-14.24-14.22v-229.73c0-7.84,6.39-14.22,14.24-14.22h335.45c7.85,0,14.24,6.38,14.24,14.22v229.73c0,7.84-6.39,14.22-14.24,14.22"/>
  <path class="cls-1" d="M192.39,408.66H55.44c-5.52,0-10.02,4.48-10.02,10s4.49,10,10.02,10h141.03c5.53,0-4.09-20-4.09-20"/>
  <path class="cls-5" d="M55.44,409.49c-5.06,0-9.18,4.11-9.18,9.17s4.12,9.17,9.18,9.17h141.03c.38,0,.51-.14.6-.29,1.39-2.21-2.38-12.03-5.22-18.05H55.44ZM196.47,429.49H55.44c-5.98,0-10.84-4.86-10.84-10.83s4.86-10.83,10.84-10.83h137.47l.22.47c1.3,2.71,7.68,16.43,5.35,20.13-.44.7-1.14,1.07-2.02,1.07"/>
  <path class="cls-3" d="M469.74,408.66H146.48c-5.53,0-10.02,4.47-10.02,10s4.48,10,10.02,10h323.26c5.53,0,10.02-4.47,10.02-10s-4.48-10-10.02-10"/>
  <path class="cls-5" d="M146.47,409.49c-5.06,0-9.18,4.11-9.18,9.17s4.11,9.17,9.18,9.17h323.27c5.06,0,9.18-4.11,9.18-9.17s-4.12-9.17-9.18-9.17H146.47ZM469.74,429.49H146.47c-5.98,0-10.84-4.86-10.84-10.83s4.86-10.83,10.84-10.83h323.27c5.98,0,10.84,4.86,10.84,10.83s-4.86,10.83-10.84,10.83"/>
  <path class="cls-1" d="M382.64,263.73c-.46,0-.83-.37-.83-.83v-88.67c0-3.21-2.61-5.81-5.82-5.81h-42.01c-.46,0-.83-.38-.83-.83s.37-.83.83-.83h42.01c4.13,0,7.48,3.35,7.48,7.48v88.67c0,.46-.38.83-.83.83"/>
  <path class="cls-1" d="M64.37,206.36c-.46,0-.83-.37-.83-.83v-31.3c0-4.13,3.36-7.48,7.48-7.48h101.89c.46,0,.83.38.83.83s-.37.83-.83.83h-101.89c-3.21,0-5.82,2.6-5.82,5.81v31.3c0,.46-.38.83-.83.83"/>
  <path class="cls-1" d="M293.6,396.08H116.02c-.46,0-.83-.38-.83-.83s.37-.83.83-.83h177.58c.46,0,.83.38.83.83s-.37.83-.83.83"/>
  <path class="cls-4" d="M249.53,386.72h-53.07c-4.13,0-7.48-3.36-7.48-7.48v-165.31c0-4.13,3.36-7.48,7.48-7.48h16.99c.46,0,.84.38.84.83s-.38.83-.84.83h-16.99c-3.21,0-5.82,2.6-5.82,5.81v165.31c0,3.2,2.61,5.81,5.82,5.81h53.07c.46,0,.83.38.83.83s-.37.83-.83.83"/>
  <path class="cls-4" d="M368.61,259.35c-.46,0-.83-.38-.83-.83v-44.59c0-3.21-2.61-5.81-5.82-5.81l-57.58.13h0c-.46,0-.83-.38-.83-.83,0-.46.36-.83.83-.83l57.58-.13c4.13,0,7.49,3.35,7.49,7.48v44.59c0,.46-.38.83-.83.83"/>
  <path class="cls-2" d="M235.31,373.02l-16.08.04-.26-116.71,16.08-.04.27,116.71"/>
  <path class="cls-1" d="M235.31,373.02l-16.08.04-.17-75.3,16.08-.04.17,75.3"/>
  <path class="cls-2" d="M265.45,372.94l-16.08.05-.22-99.5,16.08-.05.22,99.5"/>
  <path class="cls-1" d="M265.45,372.94l-16.08.05-.13-57.01,16.08-.05.13,57.01"/>
  <path class="cls-2" d="M293.6,373.4l-16.08.04-.2-90.35,16.08-.04.2,90.35"/>
  <path class="cls-1" d="M293.6,373.4l-16.08.04-.09-41.95,16.08-.05.09,41.95"/>
  <path class="cls-2" d="M322.49,374.4l-16.08.05-.26-103.42,16.08-.04.27,103.42"/>
  <path class="cls-1" d="M322.49,374.4l-16.08.05-.22-97.35,16.08-.04.22,97.34"/>
  <path class="cls-2" d="M351.64,373.78l-16.08.04-.24-92.03,16.08-.04.25,92.03"/>
  <path class="cls-1" d="M351.64,373.78l-16.08.04-.16-16.16,16.08-.04.17,16.16"/>
  <path class="cls-5" d="M207.23,374.31c-2.78,0-5.06-2.38-5.09-5.31l.35-137.36c0-.46.38-.83.83-.83h0c.46,0,.83.38.83.84l-.35,137.35c.02,2.01,1.55,3.65,3.42,3.65h0l155.82-.42h0c.46,0,.83.38.83.83s-.37.83-.83.83l-155.83.42h-.01"/>
  <path class="cls-2" d="M351.69,243.12h-48.44v-9.11h48.44v9.11"/>
  <path class="cls-2" d="M351.69,229.28h-48.44v-9.11h48.44v9.11"/>
  <path class="cls-2" d="M128.91,217.13h-33.35c-2.08,0-3.78-1.7-3.78-3.78v-1.32c0-2.08,1.7-3.78,3.78-3.78h33.35c2.08,0,3.78,1.7,3.78,3.78v1.32c0,2.08-1.7,3.78-3.78,3.78"/>
  <path class="cls-2" d="M164.08,217.13h-16.55c-2.08,0-3.78-1.7-3.78-3.78v-1.32c0-2.08,1.7-3.78,3.78-3.78h16.55c2.08,0,3.78,1.7,3.78,3.78v1.32c0,2.08-1.7,3.78-3.78,3.78"/>
  <path class="cls-2" d="M164.08,236.84h-68.52c-2.08,0-3.78-1.7-3.78-3.78v-1.32c0-2.08,1.7-3.78,3.78-3.78h68.52c2.08,0,3.78,1.7,3.78,3.78v1.32c0,2.08-1.7,3.78-3.78,3.78"/>
  <path class="cls-2" d="M149.23,257.09h-53.67c-2.08,0-3.78-1.7-3.78-3.78v-1.32c0-2.08,1.7-3.78,3.78-3.78h53.67c2.08,0,3.78,1.7,3.78,3.78v1.32c0,2.08-1.7,3.78-3.78,3.78"/>
  <path class="cls-2" d="M149.23,276.21h-53.67c-2.08,0-3.78-1.7-3.78-3.78v-1.32c0-2.08,1.7-3.78,3.78-3.78h53.67c2.08,0,3.78,1.7,3.78,3.78v1.32c0,2.08-1.7,3.78-3.78,3.78"/>
  <path class="cls-4" d="M163.43,337.29c.34,2.69.24,4.96,0,7.56-.46,5.06-1.22,8.85-3.58,13.16-1.89,3.44-3.05,7.13-5.92,9.79-5.27,4.88-12.02,8.22-19.64,9.22-19.61,2.56-37.52-11.45-39.98-31.28-2.47-19.83,11.42-37.98,31.04-40.54,2.6-.34,5.18-.39,7.69-.17,1.02.09,1.85.97,2.84,1.15,3.98.7,7.21,1.69,10.66,3.64,5.86,3.3,10.96,8.41,14.22,14.46,2.07,3.84,2.1,8.43,2.67,13.03"/>
  <path class="cls-1" d="M130.46,341.16l22.59,27.42c8.79-7.68,13.68-19.58,12.12-32.09-.99-7.93-4.44-14.92-9.49-20.3l-25.22,24.97"/>
  <path class="cls-2" d="M133.04,305.02l-2.57,36.14,25.23-24.97c-5.86-6.26-13.87-10.36-22.66-11.17"/>
  <path class="cls-3" d="M140.64,339.69c.76,6.04-3.48,11.57-9.45,12.35-5.98.78-11.43-3.49-12.19-9.54-.75-6.04,3.48-11.57,9.46-12.35,5.98-.78,11.43,3.49,12.18,9.54"/>
  <path class="cls-3" d="M388.85,447.01l-2.31,16.22h-5.01l-.28-15.95,7.6-.27"/>
  <path class="cls-5" d="M382.35,462.4h3.47l2.07-14.52-5.79.2.25,14.32ZM386.54,464.07h-5.01c-.45,0-.82-.36-.83-.82l-.28-15.95c0-.45.35-.83.81-.85l7.6-.27c.24-.02.48.09.65.28.17.18.24.43.2.67l-2.31,16.22c-.06.41-.41.72-.83.72"/>
  <path class="cls-3" d="M386.74,478.74c-2.39.26-6.31.42-10.88-.36-1.5-.26-2.45-1.74-2.04-3.21,1.15-4.07,3.61-11.78,6.72-15.29l.68,1.98,1.09-1.81c.15-.25.41-.41.69-.44l2.26-.21c.47-.05.9.28.98.74l.3,1.71.86-2.2,1.6,16.29c.14,1.4-.87,2.64-2.27,2.79"/>
  <path class="cls-5" d="M380.26,461.61c-2.55,3.7-4.59,10.07-5.64,13.78-.13.47-.06.97.2,1.38.26.42.68.7,1.17.79,4.43.76,8.24.61,10.65.35.93-.1,1.62-.94,1.53-1.88l-1.32-13.4c-.12.05-.26.07-.4.06-.37-.04-.67-.32-.73-.68l-.3-1.71s-.05-.07-.08-.06l-2.26.21s-.05.02-.06.04l-1.08,1.81c-.17.28-.48.44-.8.4-.32-.04-.59-.26-.7-.56l-.18-.52ZM386.74,478.74h0,0ZM382.66,479.78c-2.03,0-4.38-.15-6.94-.58-.95-.17-1.79-.72-2.3-1.54-.51-.81-.66-1.8-.4-2.72,1.21-4.28,3.71-12.01,6.9-15.61.2-.22.49-.32.79-.27.29.06.53.27.62.55l.1.29.17-.27c.29-.48.78-.79,1.33-.84l2.25-.21c.59-.06,1.16.2,1.52.63.17-.27.49-.42.81-.38.39.05.68.36.72.74l1.6,16.29c.18,1.84-1.16,3.51-3.01,3.7-1.13.12-2.54.21-4.17.21"/>
  <path class="cls-5" d="M381.05,477.02c-1.79,0-3.81-.17-5.8-.7-.44-.11-.71-.57-.59-1.02.11-.45.57-.71,1.02-.59,5.44,1.43,11.23.01,11.3,0,.45-.11.9.16,1.01.6.11.44-.16.9-.61,1.01-.17.05-2.84.7-6.32.7"/>
  <path class="cls-5" d="M384.41,470.67h-5.37c-.46,0-.83-.37-.83-.83s.38-.84.83-.84h5.37c.46,0,.83.38.83.84s-.38.83-.83.83"/>
  <path class="cls-3" d="M431.33,448.46l2.08,18.9,7.96,1.67-.48-22.17-9.56,1.6"/>
  <path class="cls-5" d="M434.17,466.67l6.34,1.33-.44-20.16-7.83,1.31,1.93,17.52ZM441.37,469.86c-.05,0-.11,0-.17-.02l-7.96-1.67c-.35-.07-.61-.36-.66-.72l-2.08-18.9c-.05-.44.26-.84.69-.91l9.56-1.6c.24-.04.48.03.67.18.19.15.3.38.3.62l.48,22.17c0,.26-.1.49-.3.66-.15.13-.34.19-.53.19"/>
  <path class="cls-3" d="M430.05,477.28s-1.02-9.1,1.83-13.25l6.37,2.27v-1.36c0-.44.31-.8.71-.82l3.55-.2c1.32-.07,2.65.2,3.85.79,4.26,2.09,14.05,7.47,13.73,12.64,0,0-7.7,1.91-30.05-.06"/>
  <path class="cls-5" d="M430.82,476.51c17.95,1.54,26.19.53,28.43.15-.43-3.17-5.28-7.3-13.24-11.21-1.08-.53-2.28-.78-3.44-.71l-3.47.2v1.35c0,.27-.14.52-.36.68-.22.16-.5.2-.76.1l-5.73-2.04c-1.85,3.37-1.58,9.45-1.42,11.47ZM448.11,479.01c-4.52,0-10.46-.22-18.13-.9-.4-.04-.71-.34-.76-.74-.05-.38-1.02-9.45,1.97-13.81.21-.31.61-.44.96-.32l5.26,1.87v-.18c0-.88.65-1.6,1.49-1.65l3.56-.21c1.46-.08,2.93.22,4.27.88,5.44,2.67,14.53,7.97,14.2,13.43-.02.36-.28.67-.63.76-.21.05-3.62.86-12.2.86"/>
  <path class="cls-5" d="M440.89,476.2c-3.02,0-6.27-.15-9.58-.53-.46-.05-.78-.46-.73-.92s.46-.79.92-.73c13.47,1.56,25.85-.89,25.98-.91.45-.09.89.2.98.65.09.45-.2.89-.65.98-.09.02-7.4,1.47-16.92,1.47"/>
  <path class="cls-5" d="M448.47,471.4c-.17,0-.34-.05-.49-.16l-6.13-4.4c-.38-.27-.46-.79-.19-1.17.27-.37.79-.45,1.16-.19l6.13,4.41c.38.27.46.79.19,1.16-.16.22-.42.34-.67.34"/>
  <path class="cls-4" d="M433.81,325.81s11.42,72.51,8.99,124.7l-12.7.33s-13.62-73.6-20.41-86.76c0,0-18.46,67.1-19.17,86.2,0,0-8.21.82-11.48-.35-1.76-18.44-2.29-34.11-2.38-46.09-.26-34.28,3.03-49.85,4.82-57.24,1.65-6.78,3.42-12.3,4.72-16.03l4.32-12.31,43.29,7.55"/>
  <path class="cls-5" d="M409.69,363.24c.31,0,.59.17.73.45,6.5,12.59,18.88,78.29,20.36,86.29l11.21-.29c2.14-48.97-7.86-116.18-8.93-123.17l-42.01-7.33-4.08,11.65c-1.81,5.2-3.39,10.57-4.7,15.94-2.18,8.94-5.04,24.58-4.8,57.04.11,15.02.89,30.32,2.32,45.46,2.72.71,7.99.37,9.91.22,1.12-19.85,18.42-82.94,19.17-85.65.09-.33.38-.57.72-.61.03,0,.06,0,.09,0ZM430.1,451.67c-.4,0-.74-.29-.82-.68-.13-.7-12.49-67.25-19.4-84.45-3.2,11.83-17.91,66.95-18.53,83.77-.02.42-.34.76-.75.8-.34.04-8.44.83-11.85-.4-.3-.11-.52-.39-.55-.7-1.46-15.38-2.27-30.91-2.38-46.17-.24-32.64,2.65-48.41,4.85-57.44,1.32-5.43,2.91-10.85,4.73-16.1l4.32-12.32c.14-.39.53-.61.93-.54l43.29,7.55c.35.06.63.34.68.69.11.73,11.41,73.19,9,124.86-.02.44-.37.79-.81.8l-12.7.33h-.03"/>
  <path class="cls-5" d="M410.36,363.39c-.07,0-.15-.02-.21-.03-.44-.11-.71-.57-.59-1.02l1.96-7.55c.08-.31.32-.55.64-.61l4.85-1c.45-.1.9.19.99.65.09.45-.2.89-.65.98l-4.34.9-1.83,7.06c-.1.38-.44.63-.8.63"/>
  <path class="cls-5" d="M432.69,261.49c-7.43-.84-23.15-2.32-34.21-1.41-3.4.28-6.63,1.61-9.23,3.81-7.85,6.63-24.87,23.22-25.09,42.88l17.43-2.53s-6.16,22.03-5.73,25.57c.42,3.54,11.21,9.56,24.7,4.63,13.49-4.94,32.92-4.34,39.2,0l.6-27.18h26.53s-8.78-28.51-25.79-42.27c-2.41-1.95-5.34-3.15-8.42-3.49"/>
  <path class="cls-3" d="M466.9,307.26s2.07,9.48-7.36,12.33c-9.43,2.84-18.39-14.31-18.39-14.31l6.56-3.8,19.19,5.78"/>
  <path class="cls-5" d="M442.27,305.59c1.78,3.11,9.4,15.5,17.03,13.2,7.53-2.28,7.13-9.02,6.86-10.88l-18.34-5.53-5.55,3.21ZM457.37,320.73c-8.98,0-16.62-14.41-16.96-15.07-.21-.4-.07-.89.32-1.11l6.57-3.8c.2-.11.44-.14.66-.07l19.18,5.78c.29.09.51.33.57.62.02.1,2.13,10.27-7.93,13.3-.81.24-1.61.35-2.41.35"/>
  <path class="cls-1" d="M405.71,328.85h46.36c1.17,0,2.2-.8,2.48-1.94l9.36-37.7c.4-1.6-.82-3.16-2.48-3.16h-46.36c-1.18,0-2.2.8-2.48,1.94l-9.36,37.69c-.4,1.61.82,3.17,2.48,3.17"/>
  <path class="cls-5" d="M415.07,286.89c-.8,0-1.48.54-1.67,1.31l-9.36,37.69c-.13.52-.02,1.06.31,1.47.33.42.82.66,1.36.66h46.36c.8,0,1.48-.54,1.68-1.31l9.35-37.69c.14-.52.02-1.06-.31-1.47-.33-.42-.82-.66-1.36-.66h-46.36ZM452.07,329.69h-46.36c-1.05,0-2.03-.47-2.67-1.3s-.87-1.88-.62-2.9l9.36-37.69c.38-1.52,1.73-2.57,3.29-2.57h46.36c1.05,0,2.03.47,2.67,1.3s.87,1.89.62,2.9l-9.36,37.7c-.38,1.51-1.73,2.57-3.29,2.57"/>
  <path class="cls-3" d="M460.47,304.79l-1.36,3.77-11.15-5.3s-6.13,5.3,8.73,12.1c6.19,2.83,3.78-10.57,3.78-10.57"/>
  <path class="cls-5" d="M448.17,304.28c-.33.45-.76,1.27-.59,2.36.27,1.78,2.13,4.6,9.46,7.95,1.28.59,1.76.21,1.92.09,1.07-.83,1.27-3.62,1.1-6.3l-.16.46c-.08.22-.25.4-.47.48-.21.09-.46.08-.67-.02l-10.58-5.04ZM458.24,316.58c-.54,0-1.16-.13-1.9-.46-6.46-2.95-9.96-6.07-10.42-9.26-.37-2.58,1.41-4.16,1.49-4.22.25-.21.6-.26.9-.12l10.32,4.91,1.05-2.91c.13-.35.48-.58.85-.55.37.03.68.31.74.68.17.93,1.55,9.13-1.31,11.35-.39.3-.96.58-1.73.58"/>
  <path class="cls-3" d="M394.9,285.6s-20.84,11.68-25.14,15.35c-4.3,3.67-8.96,6.45-2.9,14.47,6.06,8.03,31.9-24.11,31.9-24.11,0,0,4.96.82,6.7-5.93,0,0,8.38.3,8.68-2.33l-11.82-2.11c-1.53-.28-3.09.22-4.18,1.34l-3.24,3.31"/>
  <path class="cls-5" d="M394.9,285.6h0,0ZM401.49,281.71c-1.03,0-2.02.41-2.76,1.16l-3.24,3.31c-.06.06-.12.11-.19.15-.21.12-20.82,11.69-25.01,15.26-.34.29-.67.57-1.01.84-3.99,3.33-6.88,5.73-1.77,12.5.48.64,1.11.94,1.97.96h.06c6.88,0,22.94-18.09,28.56-25.09.19-.23.48-.35.78-.3.17.03,4.24.57,5.76-5.32.09-.38.43-.65.83-.62,2.78.09,5.85-.26,7.17-.92l-10.48-1.88c-.22-.04-.45-.06-.68-.06ZM369.54,317.55h-.08c-1.38-.02-2.47-.56-3.27-1.61-6.07-8.04-1.95-11.46,2.04-14.78.33-.28.66-.55.99-.83,4.2-3.58,23.39-14.39,25.17-15.39l3.16-3.23c1.28-1.31,3.11-1.9,4.92-1.57l11.82,2.11c.43.08.73.48.68.91-.33,2.88-6.24,3.12-8.89,3.08-1.68,5.48-5.55,5.96-6.94,5.94-2.56,3.15-20.96,25.38-29.59,25.38"/>
  <path class="cls-5" d="M424.3,247.91c.38.65-.4,1.92-.41,1.92-.01,0,.38-3.71,2.44-4.64,1.19-.54,1.82.36,3.6.11,1.9-.26,3.98-1.67,4.76-3.71.95-2.48-.42-4.84-1.27-6.32s-1.94-3.13-3.83-3.84c-2.46-.93-3.48.5-6.3-.38-2.29-.71-2.12-1.81-4.16-2.39-1.7-.48-6.59-.21-7.69,2.39-.7,1.65.8,2.65.06,5.09-.45,1.47-1.16,1.65-1.67,2.78-1.28,2.81.32,7.74,3.36,9.4,4.14,2.24,10.2-1.95,11.09-.41"/>
  <path class="cls-3" d="M422.54,249.9l.96,7.88c.18,1.5,1.26,2.73,2.73,3.12l4.06,1.06-12.51,9.52-14.06-10.66,5.04-1.12c1.45-.32,2.56-1.48,2.82-2.94l2.1-11.61,8.85,4.76"/>
  <path class="cls-5" d="M405.65,261.23l12.13,9.19,10.65-8.09-2.4-.63c-1.81-.47-3.13-1.97-3.35-3.83l-.91-7.45-7.47-4.01-1.89,10.48c-.33,1.79-1.68,3.21-3.46,3.61l-3.29.73ZM417.78,272.3c-.18,0-.35-.05-.51-.17l-14.05-10.65c-.26-.2-.38-.52-.31-.84.07-.31.32-.56.63-.63l5.04-1.13c1.13-.25,1.98-1.15,2.19-2.28l2.1-11.61c.05-.26.21-.49.45-.6.24-.11.53-.11.76.02l8.86,4.76c.24.13.4.36.43.63l.96,7.89c.15,1.17.97,2.11,2.11,2.42l4.06,1.05c.31.08.54.33.6.65.06.31-.06.63-.31.82l-12.51,9.52c-.15.11-.33.17-.51.17"/>
  <path class="cls-3" d="M414.69,246.73s-3.11-1.17-1.94-3.74c1.17-2.57,3.07-.67,3.07-.67,0,0,1.77-6.33,5.49-3.83,3.71,2.5,7.24,3.41,7.24,3.41,0,0-1.31,6.37-3.66,10.62-1.42,2.56-3.21,4.34-5.33,3.47-5.8-2.35-4.86-9.25-4.86-9.25"/>
  <path class="cls-5" d="M415.52,246.85c-.04.27-.76,6.3,4.35,8.37,1.4.56,2.84-.48,4.3-3.11,1.8-3.25,2.99-7.85,3.41-9.64-1.27-.41-3.93-1.42-6.73-3.29-.63-.43-1.19-.54-1.7-.35-1.35.49-2.28,2.85-2.52,3.72-.08.28-.3.51-.59.58s-.59,0-.8-.21c-.17-.17-.64-.49-.97-.42-.35.06-.62.56-.75.85-.22.47-.25.89-.09,1.27.3.73,1.24,1.22,1.57,1.36.36.14.58.5.53.89ZM420.63,257.04c-.51,0-.97-.11-1.39-.28-5.25-2.14-5.49-7.66-5.42-9.52-.61-.33-1.52-.97-1.94-2-.33-.81-.29-1.7.11-2.6.47-1.04,1.14-1.65,1.97-1.8.53-.1,1.03.02,1.42.19.5-1.24,1.52-3.17,3.18-3.78.71-.26,1.84-.39,3.21.53,3.55,2.39,6.95,3.29,6.98,3.29.43.11.7.54.61.97-.06.27-1.36,6.55-3.75,10.85-1.78,3.21-3.55,4.13-4.99,4.13"/>
  <path class="cls-3" d="M336.81,430.39c.28.43,10.81,15.47,10.81,15.47,0,0-.27,3.83-2.99,4.58l-12.53-13.54,4.71-6.52"/>
  <path class="cls-5" d="M333.17,436.83l11.68,12.63c1.38-.71,1.79-2.67,1.9-3.39-1.42-2.03-7.83-11.18-9.96-14.24l-3.63,5.01ZM344.63,451.27c-.23,0-.45-.09-.61-.27l-12.52-13.54c-.28-.29-.3-.73-.07-1.05l4.71-6.52c.16-.22.43-.36.7-.34.28.01.53.15.68.38.26.4,7.88,11.29,10.79,15.45.11.16.16.34.15.54-.01.18-.34,4.43-3.6,5.32-.07.02-.15.03-.22.03"/>
  <path class="cls-3" d="M353.36,448.51s-.9,11.88-6.15,18.13c-5.25,6.25-13.68,4.25-13.68,4.25,0,0-.64-5.29.45-6.66s7.14-8.72,7.12-15.33l3.21-4.37,1.89,2.45.81-4.01,6.34,5.53"/>
  <path class="cls-5" d="M334.3,470.18c1.91.29,8.19.79,12.28-4.08,4.48-5.33,5.7-15.13,5.92-17.25l-4.94-4.31-.53,2.6c-.06.32-.31.57-.63.65s-.65-.04-.85-.3l-1.22-1.58-2.4,3.26c-.07,3.09-1.41,8.2-7.18,15.42l-.12.15c-.49.62-.56,3.18-.34,5.43ZM336.73,472.04c-1.91,0-3.25-.31-3.39-.34-.34-.08-.6-.36-.64-.71-.12-.94-.62-5.71.63-7.28l.11-.15c5.65-7.07,6.83-11.88,6.82-14.66,0-.18.06-.35.16-.49l3.21-4.36c.16-.21.4-.34.66-.34h.01c.26,0,.5.11.66.32l.78,1.02.45-2.22c.06-.29.27-.53.55-.62s.59-.04.81.16l6.34,5.53c.2.18.3.43.28.69-.04.49-.97,12.22-6.34,18.6-3.41,4.07-8.02,4.87-11.12,4.87"/>
  <path class="cls-3" d="M351.24,448.96s-1.36,19.74-16.03,19.31l16.03-19.31"/>
  <path class="cls-5" d="M335.68,469.11c-.16,0-.32,0-.49-.01-.46-.01-.82-.4-.8-.85.01-.45.38-.81.83-.81h.02c.15,0,.3.01.44.01,13.28,0,14.68-17.78,14.73-18.55.03-.46.43-.8.89-.77.46.03.8.43.77.89-.01.2-1.56,20.09-16.39,20.09"/>
  <path class="cls-5" d="M313.23,325.36s-12.4,36.43-12.46,60.42c-.06,23.99,33.92,55.81,33.92,55.81l7.02-6.08s-12.5-13.23-14.9-31.15c-2.39-17.91,4.88-51.73,4.88-51.73l2.71-23.89-21.17-3.39"/>
  <path class="cls-3" d="M331.5,443.3c.06.64-.6,9.66-3.41,15.32,0,0,1.29,4.15,5.25,3.41,0,0,6.08-11.56,7.36-19.05l-9.2.32"/>
  <path class="cls-5" d="M329,458.66c.33.78,1.42,2.83,3.8,2.61.99-1.94,5.48-10.93,6.89-17.42l-7.38.26c-.16,2.55-1.01,9.67-3.31,14.56ZM332.43,462.95c-3.02,0-4.66-2.57-5.13-4.08-.06-.2-.04-.43.05-.61,2.73-5.53,3.35-14.32,3.32-14.89-.02-.22.06-.45.21-.62.15-.16.36-.27.58-.28l9.2-.32c.25-.01.49.1.66.29s.24.44.19.69c-1.28,7.53-7.19,18.82-7.44,19.3-.12.22-.33.38-.58.43-.38.07-.73.1-1.07.1"/>
  <path class="cls-3" d="M335.55,457.7s1.01,11.82-.48,15.18c0,0-11.27,5.79-24.35,5.77-.93,0-1.69-.75-1.68-1.68.02-2.24.61-6.32,4.19-9.56,5.2-4.7,16.37-12.42,16.37-12.42l2.26,2.72-.95,4.31,4.65-4.32"/>
  <path class="cls-5" d="M329.44,456.11c-2.42,1.69-11.26,7.94-15.66,11.92-3.36,3.04-3.9,6.91-3.91,8.95,0,.22.08.43.24.59.17.17.42.26.66.25,11.6,0,21.85-4.68,23.64-5.54.86-2.46.67-8.97.43-12.78l-3.37,3.14c-.27.25-.67.3-.98.11-.32-.18-.48-.55-.4-.9l.85-3.91-1.51-1.82ZM310.78,479.48h-.06c-.68,0-1.31-.27-1.79-.75-.47-.47-.73-1.1-.72-1.77.02-2.31.63-6.7,4.46-10.17,5.18-4.68,15.99-12.17,16.45-12.49.35-.24.84-.18,1.11.16l2.26,2.72c.16.2.22.46.17.71l-.37,1.7,2.69-2.51c.23-.22.57-.29.86-.17.3.11.51.39.53.7.04.49,1.01,12.08-.55,15.59-.08.17-.21.31-.38.4-.47.24-11.57,5.86-24.67,5.86"/>
  <path class="cls-3" d="M334.2,469.38s-10.72,6.76-23.54,5.98l23.54-5.98"/>
  <path class="cls-5" d="M312.74,476.26c-.7,0-1.42-.02-2.14-.06-.46-.03-.81-.42-.78-.88.03-.46.43-.81.88-.78,12.42.73,22.94-5.79,23.04-5.86.39-.24.91-.13,1.15.26s.13.9-.26,1.15c-.42.27-9.94,6.18-21.9,6.18"/>
  <path class="cls-5" d="M351.26,325.36s7.85,52.58-10.56,122.08l-11.1-1.59s5.99-60.76-8.36-92.88l-3.2-29.04,33.22,1.42"/>
  <path class="cls-5" d="M347.7,244.69c1.49,2.98-.63,4.04.41,9.83.76,4.26,2.29,5.88,1.27,8-.91,1.91-3.12,2.59-4.58,3.05-6.61,2.06-12.98-1.29-16.89-3.34-3.17-1.67-7.51-3.94-7.21-6.26.29-2.29,4.76-1.96,6.86-5.79,1.69-3.08-.25-5.01,1.53-7.61,2.3-3.37,7.68-3.23,8.54-3.21,3.46.09,8.24,1.66,10.07,5.33"/>
  <path class="cls-3" d="M310.76,262.32l17.39,4.35c.32.07.64-.11.75-.41,1.18-3.33-.66-7.05-1.2-8.02-.08-.15-.22-.26-.39-.3-.86-.23-1.64-.54-2.34-.91-.87-.46-1.22-1.51-.82-2.4.63-1.44,1.32-3.38,1.71-4.17.1-.19.09-.43-.03-.6-.3-.44-.76-.78-.7-1.43.02-.25.19-.47.43-.54,2.18-.65,3.88-3.92,5.33-4.91.69-.48,1.16-.6,1.95-1.03.13-.07.29-.1.43-.07,3.71.8-1.98,5.41,2.89,8.1.24.14.39.41.33.68-.08.4-.06.94-.02,1.44,0,0,0,0,0,.02.05.5.64.74,1.03.43.73-.6,1.48-.77,1.93-.52.63.36.59,1.58.36,2.31-.44,1.45-1.96,2.12-2.82,2.39-.33.1-.52.45-.42.78.57,1.99,2.31,8.23,2.44,11.07.02.29.22.54.5.6l3.32.72c4.99,1.09,10.93,4.11,14.74,7.51l4.94,4.14c.38.34,2.11,1.36,1.75,1.72-10.33,10.49-30.62,3.93-38.13.6-7.29-3.22-14.54-18.29-17.22-15.28-1.77,1.98,1.36-6.35,1.85-6.25"/>
  <path class="cls-5" d="M328.34,265.86h0,0ZM309.73,267.34s.03,0,.05,0c1.76.04,3.65,2.29,6.85,6.26,2.88,3.56,6.45,7.99,9.83,9.49,2.59,1.15,25.34,10.77,36.77,0-.24-.2-.55-.41-.71-.54-.24-.17-.43-.3-.56-.42l-4.91-4.11c-3.74-3.33-9.52-6.27-14.39-7.33l-3.32-.72c-.65-.14-1.12-.7-1.16-1.37-.13-2.77-1.88-9.02-2.41-10.88-.22-.77.2-1.57.97-1.81.71-.22,1.94-.76,2.28-1.84.19-.6.11-1.24,0-1.35-.07-.03-.46.03-.98.44-.42.34-.99.43-1.49.22-.49-.21-.84-.67-.89-1.21-.07-.63-.07-1.14,0-1.55-3.07-1.77-2.48-4.32-2.09-6.02.15-.65.32-1.39.16-1.65-.07-.11-.26-.21-.54-.28-.3.16-.55.28-.79.39-.37.17-.66.31-1.03.56-.46.31-1.02.99-1.62,1.71-1.06,1.28-2.27,2.73-3.77,3.26.03.09.11.2.27.4.1.12.2.24.28.37.28.42.31.97.09,1.43-.19.39-.47,1.11-.78,1.88-.29.73-.61,1.56-.93,2.27-.22.5-.02,1.08.45,1.33.66.35,1.39.63,2.17.84.39.11.71.36.91.71.62,1.12,2.54,5.07,1.25,8.69-.25.7-.98,1.1-1.71.95l-16.9-4.22c-.44.81-1.2,2.76-1.6,4.1.09-.01.18-.02.27-.02ZM348.36,289.78c-10.45,0-20.84-4.4-22.57-5.17-3.75-1.66-7.31-6.07-10.45-9.97-2.13-2.63-4.53-5.6-5.6-5.64-.05,0-.11,0-.22.12-.66.73-1.19.65-1.52.44-.44-.27-1.09-.68.85-5.45.84-2.07,1.28-2.77,2.07-2.6,0,0,.02,0,.03.01l17.2,4.3c.93-2.92-.7-6.27-1.15-7.1-.87-.24-1.69-.56-2.44-.95-1.24-.66-1.76-2.18-1.19-3.48.3-.67.61-1.49.9-2.2.3-.77.56-1.44.78-1.88-.04-.05-.07-.09-.11-.14-.29-.35-.72-.88-.65-1.71.06-.59.47-1.1,1.03-1.27,1.1-.33,2.18-1.64,3.14-2.78.67-.81,1.31-1.58,1.96-2.03.48-.33.86-.51,1.26-.7.23-.1.47-.22.76-.37.31-.18.67-.23,1.01-.16.8.17,1.35.51,1.68,1.03.54.85.3,1.9.06,2.91-.39,1.66-.71,3.09,1.38,4.25.57.31.88.96.74,1.58-.03.12-.06.38-.03.84.92-.63,1.89-.77,2.58-.36,1.17.69,1,2.44.74,3.28-.53,1.71-2.15,2.52-3.19,2.88.71,2.49,2.24,8.08,2.42,10.93l3.18.69c5.13,1.13,11.2,4.22,15.12,7.7l4.92,4.11c.1.09.26.19.43.32,1,.71,1.6,1.18,1.66,1.83.03.3-.07.59-.28.8-4.41,4.47-10.46,5.94-16.49,5.94"/>
  <path class="cls-3" d="M332.73,258.12s-2.32.94-4.98-.06l4.98.06"/>
  <path class="cls-5" d="M330.32,259.35c-.85,0-1.83-.13-2.86-.52-.43-.16-.65-.64-.48-1.07s.64-.65,1.07-.48c2.31.86,4.36.07,4.38.07.43-.17.91.04,1.08.46.17.42-.03.91-.46,1.08-.07.03-1.17.46-2.72.46"/>
  <path class="cls-5" d="M345.14,243.15s1.12-6.77,6.49-4.94c5.38,1.83.17,7.4-3.9,7.83-4.06.43-2.59-2.89-2.59-2.89"/>
  <path class="cls-3" d="M242.44,217.54l-6.64-6.42c-.46-.45-1.18-.5-1.7-.13-.59.42-.73,1.24-.31,1.84l2.1,2.98-1.69,4.18c-.53,1.29-.19,2.77.84,3.7l2.73,2.47c1.36,1.23,3.35,1.51,5,.69l1.11-.55c1.71-.85,2.69-2.69,2.44-4.58l-.29-2.23c-.18-1.4-1.51-2.35-2.89-2.09l-.7.14"/>
  <path class="cls-5" d="M234.87,211.58c-.1,0-.2.03-.29.09-.22.16-.27.46-.11.68l2.11,2.98c.16.23.19.53.09.79l-1.69,4.19c-.39.96-.14,2.07.63,2.77l2.73,2.47c1.12,1.01,2.72,1.23,4.07.56l1.1-.55c1.4-.69,2.19-2.19,1.99-3.72l-.29-2.23c-.06-.45-.29-.84-.66-1.1-.36-.26-.81-.36-1.26-.28l-.7.14c-.27.05-.54-.03-.73-.22l-6.64-6.43c-.1-.09-.22-.14-.35-.14ZM240.77,228.16c-1.29,0-2.55-.47-3.55-1.38l-2.73-2.47c-1.29-1.16-1.71-3.02-1.06-4.63l1.52-3.77-1.84-2.61c-.68-.96-.45-2.31.51-2.99.84-.61,2.01-.53,2.76.2l6.34,6.13.28-.06c.89-.17,1.81.04,2.54.56.73.53,1.21,1.34,1.33,2.23l.3,2.23c.29,2.24-.87,4.43-2.9,5.44l-1.11.55c-.76.38-1.57.56-2.38.56"/>
  <path class="cls-3" d="M242.44,217.54l-2.48,1.83s.82,2.4,2.48,1.41v-3.24"/>
  <path class="cls-5" d="M241.66,221.85c-.27,0-.51-.06-.69-.13-1.21-.44-1.74-1.92-1.8-2.08-.11-.34,0-.72.29-.94l2.48-1.83c.37-.27.89-.19,1.16.18.28.37.2.89-.17,1.17l-1.93,1.42c.15.24.34.46.54.54.05.02.19.06.47-.1.4-.23.91-.1,1.14.3.23.4.1.91-.29,1.14-.44.26-.85.35-1.2.35"/>
  <path class="cls-3" d="M235.44,216.94l2.8,3.46-2.8-3.46"/>
  <path class="cls-5" d="M238.24,221.23c-.24,0-.48-.1-.65-.31l-2.8-3.46c-.29-.36-.23-.88.13-1.17.36-.29.88-.23,1.17.13l2.8,3.46c.29.35.23.88-.13,1.17-.16.12-.34.18-.53.18"/>
  <path class="cls-3" d="M234.59,219.66l2.26,2.73-2.26-2.73"/>
  <path class="cls-5" d="M236.84,223.22c-.24,0-.48-.1-.64-.3l-2.26-2.73c-.29-.35-.24-.88.11-1.17s.88-.24,1.17.11l2.25,2.73c.29.35.24.88-.11,1.17-.15.13-.34.19-.53.19"/>
  <path class="cls-3" d="M353.99,340.08s-5.92-4.44-9.32-5.18c-3.4-.74-6.75,1.53-6.75,1.53,0,0,3.66,2.03,5.43,2.27,1.77.23,6.39,8.73,11.9,6.01l-1.26-4.62"/>
  <path class="cls-5" d="M339.69,336.42c1.24.61,2.85,1.33,3.76,1.45.83.11,1.63.94,2.84,2.2,2.09,2.18,4.91,5.11,7.95,4.14l-.98-3.63c-1.11-.81-5.95-4.25-8.78-4.87-1.8-.39-3.61.18-4.8.71ZM353.04,346.06c-3.3,0-6.12-2.93-7.95-4.84-.66-.68-1.56-1.62-1.88-1.71-1.86-.24-5.32-2.15-5.71-2.36-.26-.14-.42-.4-.43-.69-.02-.29.13-.57.36-.73.15-.1,3.69-2.46,7.4-1.66,3.54.77,9.4,5.14,9.65,5.33.15.11.26.27.31.45l1.25,4.62c.1.39-.08.79-.44.96-.88.44-1.74.62-2.57.62"/>
  <path class="cls-1" d="M348.76,270.86l-2.87-1.1s-17.39,11.12-24.94-5.72l-3.99-1.15-8.05,22.81,40.49,10.78-.65-25.61"/>
  <path class="cls-4" d="M242.13,229.42c2.81-.89,5.63-1.77,8.44-2.65,11.84,13.77,23.42,20.84,32.21,24.77,10.82,4.85,29.45,10.34,29.45,10.34,0,0-.03,8.82,14.55,18.88,14.58,10.07,36.91.07,36.91.07,0,0,24.74,21.1,26.17,33.78,2.38,21.06-34.33,31.17-34.33,31.17l-1.55-5.7s14.77-12.01,11.57-24.19-11.45-17.57-11.45-17.57c-2.46,14.06-1.41,30.43-1.41,30.43-24.26,6.17-45.18-1.78-54.42-6.32-3.15-1.55-4.91-4.96-4.36-8.42,2.03-13.02,7.15-29.47,7.15-29.47-5.6-.29-11.65-1.36-17.79-3.74-29.97-11.63-39.58-45.53-41.15-51.38"/>
  <path class="cls-1" d="M325.18,322.26c-.1,0-.21-.02-.31-.06-18.58-7.61-21.3-28.55-21.32-28.77-.06-.45.27-.86.72-.92s.87.27.93.72c.03.2,2.65,20.19,20.3,27.42.43.18.63.66.45,1.09-.13.32-.44.52-.77.52"/>
  <path class="cls-3" d="M328.2,385.38h0c-.46,0-.83-.38-.83-.83.05-7.86-2.17-22.86-5.33-27.47-.26-.38-.16-.9.22-1.16.38-.26.9-.16,1.16.22,3.45,5.03,5.66,20.44,5.61,28.42,0,.46-.38.82-.83.82"/>
  <path class="cls-3" d="M330.39,431.22h-.05c-.46-.03-.81-.42-.79-.88.41-7.31-.77-19.4-.78-19.52-.05-.46.29-.86.74-.91.45-.04.86.29.91.75.01.12,1.2,12.33.79,19.78-.03.44-.39.79-.83.79"/>
  <path class="cls-5" d="M337.84,129.2c0,44.15-35.83,79.94-80.03,79.94s-80.03-35.79-80.03-79.94,35.83-79.94,80.03-79.94,80.03,35.79,80.03,79.94"/>
  <path class="cls-5" d="M257.82,50.09c-43.67,0-79.2,35.49-79.2,79.1s35.53,79.1,79.2,79.1,79.19-35.49,79.19-79.1-35.53-79.1-79.19-79.1ZM257.82,209.96c-44.59,0-80.86-36.23-80.86-80.77s36.27-80.77,80.86-80.77,80.86,36.23,80.86,80.77-36.28,80.77-80.86,80.77"/>
  <path class="cls-4" d="M327.99,129.2c0,44.15-35.83,79.94-80.03,79.94s-80.03-35.79-80.03-79.94,35.83-79.94,80.03-79.94,80.03,35.79,80.03,79.94"/>
  <path class="cls-5" d="M247.96,50.09c-43.67,0-79.2,35.49-79.2,79.1s35.53,79.1,79.2,79.1,79.19-35.49,79.19-79.1-35.53-79.1-79.19-79.1ZM247.96,209.96c-44.59,0-80.86-36.23-80.86-80.77s36.27-80.77,80.86-80.77,80.86,36.23,80.86,80.77-36.28,80.77-80.86,80.77"/>
  <path class="cls-3" d="M301.31,129.2c0,29.43-23.89,53.29-53.35,53.29s-53.35-23.86-53.35-53.29,23.88-53.29,53.35-53.29,53.35,23.86,53.35,53.29"/>
  <path class="cls-4" d="M274.64,129.2c0,14.71-11.94,26.65-26.68,26.65s-26.68-11.93-26.68-26.65,11.94-26.65,26.68-26.65,26.68,11.93,26.68,26.65"/>
  <path class="cls-3" d="M249.6,131.54l14.15-15.83,2.11,2.11-15.85,14.13c-.28.24-.65-.14-.41-.41"/>
  <path class="cls-5" d="M263.79,116.92l-7.21,8.07,8.09-7.2-.88-.87ZM249.6,131.54h0,0ZM249.82,132.86c-.29,0-.57-.11-.8-.33-.43-.43-.44-1.09-.04-1.54l14.15-15.83c.15-.17.37-.28.6-.28.23-.03.45.08.61.24l2.11,2.11c.16.17.25.39.24.61,0,.23-.1.45-.28.6l-15.85,14.13c-.21.19-.48.29-.74.29"/>
  <path class="cls-3" d="M263.73,117.83c-.82-.82-.82-2.14,0-2.96l5.83-5.82,2.97,2.96-5.83,5.82c-.82.82-2.15.82-2.97,0"/>
  <path class="cls-5" d="M269.57,110.22l-5.24,5.23c-.24.24-.38.56-.38.9s.14.65.38.89c.49.49,1.3.49,1.79,0l5.24-5.23-1.79-1.79ZM265.22,119.28c-.75,0-1.5-.29-2.07-.86-.56-.55-.86-1.29-.86-2.07s.3-1.52.86-2.07l5.83-5.82c.32-.33.85-.33,1.18,0l2.96,2.96c.16.16.24.36.24.59s-.08.43-.24.59l-5.82,5.82c-.57.57-1.32.86-2.08.86"/>
  <path class="cls-3" d="M267.97,113.6c-1.4-1.4-1.4-3.67,0-5.07l67.96-67.89c1.41-1.41,3.69-1.41,5.09,0,1.4,1.4,1.4,3.67,0,5.07l-67.96,67.89c-1.4,1.4-3.68,1.4-5.09,0"/>
  <path class="cls-5" d="M338.48,40.42c-.71,0-1.42.27-1.96.81l-67.96,67.89c-.52.52-.81,1.21-.81,1.95s.29,1.43.81,1.95c1.08,1.08,2.84,1.08,3.92,0l67.96-67.89c.52-.52.81-1.21.81-1.94s-.29-1.43-.81-1.95c-.54-.54-1.24-.81-1.96-.81ZM270.52,115.49c-1.14,0-2.27-.44-3.13-1.3s-1.3-1.95-1.3-3.13.46-2.29,1.3-3.13l67.96-67.89c1.73-1.72,4.54-1.72,6.27,0,.83.84,1.3,1.95,1.3,3.13s-.46,2.29-1.3,3.13l-67.96,67.89c-.86.86-2,1.3-3.14,1.3"/>
  <path class="cls-4" d="M316.08,60.47l-2.1-10.21c-.83-4.03.42-8.2,3.33-11.11l13.04-13.03c.47-.47,1.29-.22,1.42.43l3.12,15.14-18.81,18.79"/>
  <path class="cls-5" d="M330.95,26.72l-13.06,13.02c-2.72,2.72-3.88,6.59-3.1,10.35l1.79,8.71,17.4-17.38-3.03-14.69ZM316.08,61.31c-.08,0-.16-.01-.24-.04-.29-.08-.52-.33-.57-.63l-2.11-10.21c-.89-4.31.44-8.75,3.56-11.86l13.04-13.03c.44-.43,1.07-.59,1.66-.42.59.18,1.04.66,1.17,1.27l3.11,15.14c.06.28-.03.56-.22.76l-18.81,18.78c-.16.16-.38.24-.59.24"/>
  <path class="cls-4" d="M321.16,65.56l10.23,2.1c4.03.83,8.2-.42,11.11-3.33l13.04-13.03c.47-.47.23-1.29-.43-1.42l-15.16-3.11-18.81,18.79"/>
  <path class="cls-5" d="M322.84,65.05l8.71,1.79c3.77.78,7.65-.39,10.36-3.1l13.04-13.03-14.72-3.04-17.4,17.38ZM333.87,68.74c-.88,0-1.77-.09-2.65-.27l-10.23-2.11c-.3-.06-.54-.28-.63-.57s0-.61.21-.83l18.81-18.79c.2-.2.48-.28.75-.22l15.16,3.11c.6.13,1.09.57,1.27,1.16.18.59.02,1.22-.41,1.66l-13.04,13.03c-2.48,2.48-5.8,3.82-9.23,3.82"/>
  <path class="cls-3" d="M337.84,52.07l12.32,2.3-12.32-2.3"/>
  <path class="cls-5" d="M350.16,55.2s-.1,0-.15-.02l-12.32-2.3c-.45-.09-.75-.52-.66-.97.08-.45.52-.75.97-.66l12.32,2.3c.45.08.75.52.67.97-.07.4-.42.68-.82.68"/>
  <path class="cls-3" d="M332.84,57.07l12.32,2.3-12.32-2.3"/>
  <path class="cls-5" d="M345.16,60.2c-.05,0-.1,0-.16-.01l-12.31-2.3c-.45-.09-.76-.52-.67-.97.09-.45.53-.74.97-.66l12.32,2.3c.45.08.75.52.67.97-.08.4-.43.68-.82.68"/>
  <path class="cls-3" d="M314.08,65.01l2.54,2.54-2.54-2.54"/>
  <path class="cls-5" d="M316.63,68.38c-.21,0-.43-.08-.59-.24l-2.54-2.54c-.32-.33-.32-.85,0-1.18.32-.33.85-.33,1.18,0l2.54,2.54c.33.33.33.85,0,1.18-.16.16-.38.24-.59.24"/>
  <path class="cls-3" d="M317.03,62.07l2.54,2.54-2.54-2.54"/>
  <path class="cls-5" d="M319.56,65.44c-.21,0-.42-.08-.58-.24l-2.54-2.54c-.32-.33-.32-.85,0-1.18.32-.33.85-.33,1.18,0l2.54,2.54c.32.33.32.85,0,1.18-.16.16-.38.24-.59.24"/>
  <path class="cls-3" d="M319.96,59.14l2.54,2.54-2.54-2.54"/>
  <path class="cls-5" d="M322.5,62.51c-.2,0-.42-.08-.58-.24l-2.54-2.54c-.33-.32-.33-.85,0-1.18.33-.32.85-.32,1.18,0l2.54,2.54c.32.33.32.85,0,1.18-.16.16-.38.24-.59.24"/>
  <path class="cls-5" d="M165.8,68.84c-4.08,6.96-13.68,8.33-15.83,8.57-8.74.98-15.2-3.22-16.94-4.44-3.03,1.86-10.37,5.77-19.94,5.04-7.57-.58-20.33-4.35-22.8-13.2-2.96-10.59,10.38-22.88,21.82-27.22,9.59-3.64,24.22-4.1,31.22,3.27,2.57,2.71,2.97,5.27,6.01,6.15,5.45,1.59,9.46-5.11,16.53-4.78,4.23.21,7.55,2.85,9.59,4.9,5.22,1.72,8.41,5.18,8.02,7.96-.4,2.9-4.65,4.65-5.47,5-4.29,1.78-6.57-.02-9.11,1.84-2.26,1.65-1.34,3.95-3.08,6.91"/>
  <path class="cls-3" d="M160.19,76s21.46,6.85,31.89,0c4.91-3.22,23.16-25.95,27.13-28.06,2.41-1.28,6.15-3.2,8.71-4.51,1.79-.91,3.88-1.01,5.74-.27l10.67,4.23s-3.11,2.49-8.16,1.49c-3.26-.64-6.64-.31-9.64,1.11l-.2.09,9.58,2.98s-1.45,2.41-6.59,1.48c-2.71-.49-5.97.12-8.46.81l-.17.09s-9.16,25.39-22.59,33.34c-19.54,11.56-40.07,4.29-40.07,4.29l2.18-17.09"/>
  <path class="cls-5" d="M158.93,92.51c3.58,1.07,21.66,5.68,38.73-4.43,13.02-7.7,22.14-32.66,22.23-32.91l.11-.31.63-.31c2.42-.66,5.9-1.34,8.83-.82,2.41.44,3.88.09,4.72-.33l-10.15-3.16,2.14-1.01c3.09-1.46,6.6-1.87,10.16-1.17,2.72.53,4.81,0,6.07-.55l-9.05-3.59c-1.64-.66-3.48-.57-5.06.23-2.66,1.36-6.32,3.24-8.7,4.5-1.86.99-7.56,7.38-13.08,13.55-5.88,6.58-11.44,12.81-13.97,14.47-9.49,6.23-27.29,1.65-31.65.38l-1.96,15.43ZM173.41,96.15c-9.09,0-15.56-2.22-15.67-2.27l-.64-.22,2.39-18.76.95.31c.21.07,21.2,6.65,31.18.09,2.34-1.54,8.09-7.97,13.65-14.18,5.87-6.57,11.42-12.79,13.54-13.91,2.39-1.27,6.06-3.15,8.72-4.52,2-1.02,4.34-1.13,6.43-.3l11.99,4.76-1.12.9c-.14.11-3.46,2.72-8.84,1.66-2.47-.49-4.91-.38-7.18.3l8.33,2.59-.54.91c-.07.12-1.82,2.9-7.45,1.88-2.52-.45-5.6.12-7.83.71-1.22,3.27-10,25.83-22.81,33.42-8.77,5.19-17.78,6.63-25.1,6.63"/>
  <path class="cls-5" d="M114.89,118.57s18.67,12.66,44.7,8.93c0,0-3.52-6.79-9.54-9.23s-35.17.3-35.17.3"/>
  <path class="cls-5" d="M89.21,150.5c1.16-28.39,17.55-38.86,17.55-38.86l33.77,8.42,13.93,30.44h-65.24"/>
  <path class="cls-4" d="M159.46,73.33l-17.76-8.86c-4.5-2.24-9.95-1.23-13.32,2.49-7.75,8.54-21.09,25.05-27.8,43.84,0,0,12.06,15.38,28.01,14.3,15.95-1.07,25.35-2.09,30.99,2.38,0,0,4.7-23.56,5.65-44.38.19-4.11-2.09-7.95-5.78-9.79"/>
  <path class="cls-5" d="M131.19,121.67s-.06,0-.08,0c-.46-.04-.79-.45-.75-.91.64-6.82,2.83-11.71,6.51-14.54,2.85-2.19,5.88-2.63,8.8-3.05,2.86-.41,5.82-.84,8.73-2.95,3.09-2.23,5.3-5.73,6.57-10.4.13-.44.58-.71,1.03-.58.44.12.7.58.58,1.02-1.38,5.04-3.8,8.84-7.2,11.31-3.24,2.35-6.41,2.81-9.47,3.24-2.83.41-5.52.79-8.02,2.72-3.3,2.54-5.28,7.04-5.87,13.38-.04.43-.4.76-.82.76"/>
  <path class="cls-3" d="M103.27,149.53l37.49-76.56c1.52-3.09.24-6.83-2.85-8.36-2.88-1.42-6.36-.44-8.07,2.27-5.01,7.92-14.58,23.85-16.73,33.04-2.94,12.57-7.22,18.8-9.83,22.81-1.69,2.59-3.81,11.77-5.1,17.95-.65,3.14-3.87,5.03-6.93,4.06h-.01c-2.74-.86-5.72-.36-8.02,1.35l-4.04,2.99c-.44.32-.2,1.02.35,1.01l23.74-.56"/>
  <path class="cls-5" d="M88.55,145.15c-1.73,0-3.43.55-4.84,1.6l-3.34,2.48,22.38-.53,37.27-76.1c1.31-2.68.2-5.93-2.47-7.25-2.5-1.23-5.51-.39-7,1.97-5.31,8.4-14.53,23.83-16.63,32.79-2.87,12.27-6.96,18.51-9.67,22.64l-.28.43c-1.22,1.88-2.99,8.15-4.97,17.67-.36,1.72-1.44,3.22-2.96,4.11s-3.35,1.1-5.04.57c-.8-.25-1.63-.38-2.44-.38ZM79.51,150.92c-.59,0-1.12-.38-1.31-.94-.2-.57,0-1.2.48-1.57l4.03-2.99c2.51-1.86,5.79-2.42,8.77-1.48,1.24.39,2.59.24,3.7-.42,1.11-.65,1.91-1.75,2.17-3.02,1.43-6.88,3.49-15.61,5.21-18.24l.28-.43c2.64-4.03,6.64-10.11,9.44-22.1,2.15-9.19,11.47-24.81,16.84-33.3,1.94-3.08,5.88-4.19,9.15-2.57,3.49,1.72,4.94,5.97,3.23,9.47l-37.71,77.02-24.24.57h-.04"/>
  <path class="cls-3" d="M159.42,58.52s-1.84-2.1-.85-3.63c1.01-1.53,2.99.5,2.99.5,0,0,1.68-2.92,5.53-2.81,0,0,1.64,3.72,5.83,3.7,0,0-.96,2.18-2.37,4.6l-.46,2.6c-.07.39-.51.59-.85.39-.26-.16-.59-.08-.77.16-1.04,1.36-2.16,2.5-3.27,2.99-1.54.69-2.92-.02-3.96-1.34-2.45,2.96-6.06,8.01-4.38,10.19,0,0-5.51,1.59-10.95-5.89l13.51-11.46"/>
  <path class="cls-5" d="M147.05,70.1c3.57,4.57,7.01,5.14,8.62,5.08-.43-2.18,1.22-5.54,4.93-10.04l.66-.8.64.81c.93,1.19,1.93,1.56,2.97,1.1.85-.38,1.86-1.33,2.94-2.74.36-.47.97-.67,1.52-.51l.43-2.43.08-.13c.78-1.33,1.41-2.59,1.82-3.44-2.92-.48-4.48-2.61-5.06-3.6-2.97.15-4.29,2.36-4.31,2.39l-.55.95-.77-.79c-.36-.36-1.07-.85-1.45-.81-.05,0-.14.01-.25.19-.53.81.41,2.2.78,2.62l.55.64-.64.55-12.91,10.95ZM155.52,76.85c-2.18,0-6.27-.86-10.28-6.38l-.45-.63,13.51-11.46c-.58-.9-1.34-2.53-.41-3.95.46-.7,1.06-.9,1.48-.94.78-.08,1.53.31,2.07.69.85-.98,2.7-2.52,5.68-2.44l.53.02.21.48c.06.13,1.48,3.21,5.03,3.21h1.31s-.52,1.17-.52,1.17c-.04.09-.96,2.17-2.34,4.55l-.43,2.45c-.08.46-.38.84-.79,1.04-.35.16-.75.17-1.1.03-1.23,1.59-2.37,2.6-3.47,3.1-1.47.66-2.98.35-4.26-.83-3.22,4.06-4.66,7.24-3.76,8.41l.75.97-1.18.34c-.07.02-.65.18-1.58.18"/>
  <path class="cls-5" d="M161.24,66.51c-.24,0-.47-.1-.64-.3-.92-1.09-1.54-3.16-1.61-3.39-.13-.44.12-.9.56-1.03.44-.14.9.12,1.03.56.16.54.7,2.09,1.29,2.79.3.35.25.88-.1,1.18-.16.13-.35.19-.54.19"/>
  <path class="cls-4" d="M71.64,264.94c-.16,0-.32-.04-.46-.14-.39-.25-.49-.77-.24-1.15,1.22-1.86,2.49-3.71,3.79-5.52.27-.38.79-.46,1.16-.19s.46.79.19,1.16c-1.28,1.78-2.54,3.62-3.75,5.46-.16.24-.42.37-.69.37ZM64.84,276.4c-.13,0-.27-.03-.39-.1-.41-.22-.56-.72-.34-1.13,1.05-1.95,2.16-3.92,3.29-5.83.23-.4.74-.53,1.14-.29s.53.74.29,1.14c-1.12,1.89-2.21,3.83-3.25,5.77-.15.28-.44.44-.73.44ZM59.06,288.39c-.11,0-.23-.02-.34-.07-.42-.19-.6-.68-.42-1.1l1.68-3.69c.34-.76.71-1.55,1.1-2.38.2-.42.7-.59,1.11-.39.42.19.59.69.4,1.11-.39.82-.76,1.6-1.09,2.34l-1.68,3.69c-.14.31-.44.48-.76.48ZM53.79,300.61c-.1,0-.2-.02-.3-.06-.43-.17-.64-.65-.47-1.08.73-1.88,1.58-3.9,2.57-6.18.19-.42.68-.61,1.1-.43.42.19.61.68.43,1.1-.98,2.26-1.82,4.26-2.55,6.11-.13.33-.44.53-.78.53ZM49.77,313.29c-.06,0-.13,0-.18-.02-.45-.1-.73-.54-.64-.99.46-2.07,1.05-4.2,1.79-6.49.15-.44.61-.68,1.05-.54.44.15.68.61.54,1.05-.73,2.24-1.3,4.32-1.75,6.34-.08.39-.43.65-.81.65ZM69.65,325.95c-.32,0-.62-.18-.76-.49-.19-.42,0-.91.42-1.1.57-.26,1.15-.45,1.72-.58,1.66-.38,3.48-.28,5.36.3.44.14.69.6.55,1.04-.14.44-.6.68-1.04.55-1.6-.49-3.13-.59-4.51-.27-.47.1-.94.27-1.41.47-.11.05-.22.07-.34.07ZM48.72,326.52c-.42,0-.79-.33-.83-.76-.09-1.07-.14-2.16-.14-3.26,0-1.16.05-2.34.15-3.54.04-.46.45-.8.9-.76.46.04.8.44.76.9-.1,1.15-.15,2.29-.15,3.4,0,1.05.04,2.09.13,3.11.04.46-.3.86-.76.9-.02,0-.05,0-.07,0ZM86.52,333.73c-.26,0-.51-.12-.67-.34-1.28-1.74-2.82-3.35-4.44-4.66-.35-.29-.41-.81-.13-1.17.29-.36.81-.42,1.17-.13,1.73,1.4,3.36,3.11,4.73,4.96.28.37.2.89-.17,1.16-.15.11-.32.17-.49.17ZM61.52,336.1c-.1,0-.21-.02-.31-.06-.43-.17-.63-.66-.46-1.08.93-2.32,2.03-4.34,3.26-6.03.27-.37.79-.45,1.16-.18.38.27.45.79.18,1.17-1.15,1.57-2.18,3.47-3.06,5.66-.13.33-.44.52-.77.52ZM52.26,339.28c-.31,0-.6-.17-.75-.47-.68-1.4-1.27-2.84-1.76-4.27-.24-.69-.46-1.4-.65-2.09-.13-.44.14-.9.58-1.02.44-.13.9.13,1.03.57.18.67.4,1.33.62,1.99.47,1.37,1.04,2.74,1.69,4.09.2.41.03.91-.39,1.11-.11.06-.24.08-.36.08ZM91.1,346.06c-.43,0-.79-.33-.83-.76-.18-2.11-.66-4.29-1.39-6.27-.16-.43.07-.91.5-1.07s.91.06,1.07.49c.77,2.13,1.28,4.44,1.48,6.7.04.46-.3.86-.76.9-.02,0-.05,0-.07,0ZM59.72,350.26c-.23,0-.46-.09-.63-.28-.3-.35-.6-.69-.89-1.03-.18-.1-.32-.26-.38-.46-1.06-1.28-2.02-2.54-2.9-3.83-.26-.38-.16-.9.22-1.16.38-.26.9-.17,1.16.21.54.78,1.1,1.55,1.69,2.32.19-1.55.45-3.09.78-4.58.1-.45.54-.74.99-.63.45.09.73.54.64.99-.43,1.96-.74,4-.92,6.05.28.33.57.67.87,1.01.3.35.27.88-.07,1.18-.16.14-.36.21-.55.21ZM87.7,358.55c-.2,0-.4-.07-.56-.22-.34-.31-.36-.83-.05-1.18,1.32-1.43,2.26-3.28,2.79-5.49.1-.45.55-.73,1-.62s.72.56.61,1.01c-.59,2.49-1.67,4.59-3.18,6.24-.16.18-.39.27-.61.27ZM69.31,359.45c-.16,0-.32-.04-.46-.14-1.95-1.33-3.7-3.01-5.15-4.46-.32-.33-.32-.86,0-1.18.33-.32.85-.32,1.18,0,1.39,1.41,3.06,3.01,4.9,4.26.38.26.47.78.22,1.16-.16.23-.43.36-.69.36ZM78.3,362.26c-.88,0-1.55-.07-1.88-.1-.4-.04-.79-.09-1.17-.16-.45-.08-.76-.51-.68-.96s.51-.76.96-.68c.34.06.69.11,1.04.14.32.03.92.09,1.72.09,1.23,0,2.41-.14,3.52-.41.44-.1.9.17,1.01.61.11.45-.16.9-.61,1.01-1.23.3-2.55.46-3.91.46ZM59.47,362.29c-.38,0-.72-.26-.81-.65-.48-2.13-.8-4.39-.94-6.72-.03-.46.32-.85.78-.88.45-.03.85.32.89.78.14,2.24.44,4.41.91,6.46.1.44-.18.89-.63.99-.06.01-.13.02-.18.02ZM64.84,374.39c-.27,0-.52-.13-.68-.36-1.32-1.89-2.44-3.88-3.35-5.92-.19-.42,0-.91.42-1.1.42-.19.91,0,1.1.42.86,1.94,1.94,3.84,3.2,5.64.26.38.17.9-.21,1.16-.15.1-.31.15-.47.15ZM74.11,383.86c-.18,0-.35-.06-.5-.17-1.84-1.39-3.56-2.89-5.1-4.45-.32-.33-.32-.85,0-1.18.33-.32.86-.32,1.18.01,1.48,1.51,3.14,2.95,4.92,4.29.37.28.44.8.17,1.17-.17.22-.42.33-.67.33ZM85.63,390.47c-.11,0-.22-.03-.33-.07-2.1-.91-4.14-1.92-6.04-3.01-.4-.23-.54-.74-.31-1.14.22-.4.73-.54,1.13-.31,1.85,1.06,3.83,2.04,5.88,2.92.42.18.61.67.43,1.09-.14.32-.44.51-.77.51ZM98.3,394.53c-.06,0-.12,0-.18-.02-2.21-.49-4.4-1.08-6.5-1.74-.44-.14-.68-.61-.54-1.05.14-.44.61-.68,1.05-.54,2.05.66,4.19,1.23,6.35,1.71.45.1.73.55.64.99-.09.39-.43.65-.81.65ZM108.09,396.08h-.08c-1.09-.11-2.19-.24-3.28-.39-.46-.06-.78-.48-.71-.94.06-.45.49-.77.94-.71,1.06.15,2.14.27,3.21.38.46.05.79.45.75.91-.04.43-.41.75-.83.75"/>
  <path class="cls-3" d="M86.22,207.03l-3.95-2.78c-3.19-2.25-7.55-1.88-10.31.88l-13.85,13.84,16.36,11.52,4.04-5.72,7.71-17.74"/>
  <path class="cls-5" d="M59.39,218.87l14.88,10.47,3.51-4.98,7.41-17.04-3.4-2.39c-2.87-2.02-6.76-1.69-9.24.8l-13.15,13.14ZM74.46,231.33c-.17,0-.33-.05-.48-.15l-16.36-11.52c-.2-.15-.33-.37-.35-.61-.02-.24.07-.48.24-.66l13.85-13.84c3.06-3.06,7.84-3.47,11.38-.98l3.95,2.78c.32.22.44.65.28,1.01l-7.71,17.74s-.05.1-.08.15l-4.04,5.73c-.17.23-.42.35-.68.35"/>
  <path class="cls-1" d="M74.46,230.49c-.47.67-4.52-1.36-9.03-4.55-4.52-3.18-7.8-6.3-7.33-6.97.47-.67,4.52,1.37,9.03,4.55,4.52,3.18,7.8,6.3,7.33,6.96"/>
  <path class="cls-5" d="M59.59,220.03c1,1.09,3.06,2.95,6.32,5.24,3.26,2.3,5.7,3.61,7.07,4.19-1-1.1-3.06-2.95-6.32-5.24-3.26-2.29-5.7-3.61-7.07-4.18ZM74.14,231.46c-.67,0-1.65-.34-3.05-1.05-1.74-.88-3.92-2.22-6.14-3.78-.76-.53-7.35-5.23-7.71-7.27-.07-.41.06-.7.18-.86.55-.78,1.69-.63,4.06.57,1.74.88,3.92,2.22,6.14,3.78.76.53,7.35,5.23,7.71,7.27.07.41-.06.69-.18.86-.23.32-.55.48-1.01.48"/>
  <path class="cls-4" d="M66.64,224.24c-1.29-.91-2.54-1.72-3.68-2.41-1.12,1.41-2.24,2.99-3.33,4.78-3.78,6.22-5.4,12.18-6.15,16.38,1.58-.82,3.34-1.88,5.18-3.24,2.54-1.88,4.51-3.82,6-5.52-.71.85-1.62,2.13-2.3,3.86-.41,1.05-.64,2.02-.77,2.82,1.85-1.52,3.97-3.52,6.07-6.09,1.81-2.22,3.21-4.39,4.3-6.35-1.32-1.23-3.18-2.72-5.33-4.23"/>
  <path class="cls-3" d="M107.33,221.9l3.95,2.78c3.19,2.25,4.3,6.47,2.63,10l-8.4,17.68-16.36-11.52,4.04-5.73,14.13-13.22"/>
  <path class="cls-5" d="M90.32,240.65l14.87,10.47,7.97-16.79c1.51-3.17.52-6.94-2.35-8.96l-3.4-2.39-13.57,12.69-3.51,4.98ZM105.52,253.2c-.17,0-.34-.05-.48-.15l-16.36-11.52c-.18-.13-.3-.32-.34-.54-.04-.21.01-.44.14-.62l4.04-5.73s.07-.08.11-.13l14.13-13.22c.29-.27.72-.3,1.05-.07l3.95,2.79c3.53,2.49,4.76,7.13,2.9,11.04l-8.39,17.68c-.11.22-.31.38-.54.44-.07.02-.14.03-.21.03"/>
  <path class="cls-1" d="M89.16,240.85c-.47.67,2.81,3.79,7.33,6.96,4.52,3.18,8.56,5.22,9.03,4.55.47-.67-2.81-3.79-7.33-6.97-4.52-3.18-8.56-5.22-9.03-4.55"/>
  <path class="cls-5" d="M90.65,241.89c1,1.09,3.06,2.95,6.32,5.24,3.26,2.29,5.7,3.61,7.07,4.18-1-1.09-3.06-2.95-6.32-5.24-3.26-2.29-5.7-3.61-7.07-4.18ZM105.19,253.32c-.67,0-1.64-.34-3.04-1.05-1.74-.88-3.92-2.22-6.14-3.78s-4.22-3.16-5.63-4.51c-1.92-1.82-2.45-2.84-1.9-3.63.56-.78,1.69-.62,4.06.57,1.74.88,3.92,2.21,6.14,3.78.76.53,7.35,5.22,7.71,7.26.07.41-.06.69-.18.86-.22.32-.55.48-1.01.48"/>
  <path class="cls-4" d="M97.69,246.1c1.29.91,2.48,1.81,3.51,2.65-.95,1.53-2.07,3.13-3.39,4.74-4.6,5.65-9.67,9.18-13.38,11.29.24-1.76.65-3.78,1.31-5.96.92-3.02,2.09-5.53,3.19-7.5-.56.96-1.47,2.24-2.87,3.46-.85.74-1.69,1.28-2.4,1.67.81-2.25,1.98-4.92,3.7-7.76,1.48-2.45,3.06-4.49,4.55-6.18,1.6.83,3.64,2.08,5.78,3.59"/>
  <path class="cls-3" d="M124.73,198.6l3.26-23.39c.36-2.6-2.37-4.52-4.7-3.31l-20.95,10.92c-5.79,3.02-10.77,7.37-14.53,12.7-2.51,3.56-4.44,7.49-5.71,11.66l-5.57,17.3c-.51.71,3.02,4.07,7.89,7.5,4.86,3.42,9.21,5.61,9.72,4.9l14.44-11.06c3.5-2.59,6.57-5.73,9.08-9.29,3.76-5.33,6.19-11.47,7.09-17.93"/>
  <path class="cls-5" d="M77.2,224.97h0s0,0,0,0ZM77.33,224.69c.33.72,2.72,3.22,7.56,6.63s7.99,4.81,8.78,4.88l14.39-11.03c3.45-2.55,6.44-5.61,8.9-9.11,3.67-5.2,6.07-11.27,6.95-17.57l.82.11-.82-.11,3.25-23.39c.13-.91-.24-1.76-.99-2.29-.75-.53-1.69-.59-2.5-.17l-20.95,10.92c-5.65,2.94-10.56,7.24-14.23,12.44-2.46,3.49-4.34,7.34-5.59,11.43l-5.56,17.25ZM93.45,236.41h0ZM93.78,237.8c-2.07,0-6.31-2.65-9.84-5.13-.81-.57-7.9-5.61-8.27-7.78-.05-.31.01-.56.09-.73l5.55-17.22c1.29-4.24,3.25-8.25,5.82-11.89,3.82-5.41,8.95-9.9,14.82-12.96l20.95-10.92c1.36-.71,2.98-.6,4.23.28,1.24.89,1.89,2.37,1.68,3.88l-3.26,23.39c-.91,6.56-3.41,12.89-7.23,18.3-2.57,3.64-5.69,6.83-9.27,9.48l-14.38,11.01c-.22.2-.53.29-.91.29"/>
  <path class="cls-1" d="M93.44,236.54c-.47.67-4.52-1.37-9.03-4.55-4.52-3.18-7.8-6.3-7.33-6.97.47-.67,4.52,1.37,9.03,4.55,4.52,3.18,7.8,6.3,7.33,6.97"/>
  <path class="cls-5" d="M78.57,226.07c1,1.09,3.06,2.94,6.32,5.24,3.26,2.29,5.7,3.61,7.07,4.18-1-1.09-3.06-2.95-6.32-5.24-3.26-2.3-5.7-3.61-7.07-4.18ZM93.44,236.54h0,0ZM93.11,237.51c-.67,0-1.65-.35-3.05-1.05-1.74-.88-3.92-2.22-6.14-3.78-.76-.53-7.35-5.23-7.71-7.27-.07-.41.06-.69.18-.86.55-.78,1.69-.62,4.06.57,1.74.88,3.92,2.22,6.14,3.78,2.22,1.56,4.22,3.16,5.63,4.51,1.92,1.82,2.45,2.84,1.9,3.63-.23.32-.55.48-1.01.48"/>
  <path class="cls-4" d="M90.47,234.23c-1.3-1.17-3.05-2.57-5.05-3.97-2.03-1.43-3.97-2.63-5.53-3.46-2.27,2.43-4.65,5.39-6.86,8.94-6.36,10.18-8.21,20.12-8.8,26.19,5.97-8.4,9.35-12.36,10.16-11.9.52.3-.05,2.45-1.68,6.45,2.59-1.53,5.79-3.79,8.89-7.09,4.99-5.33,7.54-11.04,8.88-15.16"/>
  <path class="cls-5" d="M124.9,193.96c-.24,0-.49-.11-.66-.32-.74-.95-1.53-1.86-2.33-2.72-.32-.34-.3-.86.03-1.18.33-.31.86-.3,1.18.04.84.89,1.66,1.85,2.43,2.84.29.36.22.89-.15,1.17-.15.12-.33.18-.51.18"/>
  <path class="cls-5" d="M118.67,187.65c-.18,0-.36-.06-.52-.18-3.21-2.54-6.91-4.51-10.97-5.84-.44-.15-.67-.62-.53-1.05.15-.44.61-.68,1.05-.53,4.26,1.4,8.12,3.46,11.49,6.12.36.29.42.81.14,1.17-.17.21-.41.31-.66.31"/>
  <path class="cls-4" d="M112.23,210.53c-3.3,4.67-9.76,5.79-14.43,2.49s-5.8-9.74-2.5-14.42,9.76-5.79,14.43-2.49c4.68,3.29,5.8,9.74,2.5,14.42"/>
  <path class="cls-5" d="M112.23,210.53h0,0ZM103.78,195.06c-2.99,0-5.94,1.4-7.8,4.03-1.47,2.08-2.04,4.6-1.6,7.1.43,2.51,1.81,4.69,3.9,6.16,4.29,3.02,10.25,1.99,13.27-2.29,1.47-2.08,2.04-4.6,1.6-7.1-.44-2.51-1.82-4.69-3.9-6.15-1.66-1.17-3.58-1.73-5.47-1.73ZM103.75,215.74c-2.23,0-4.48-.66-6.43-2.04-2.44-1.72-4.07-4.29-4.58-7.23-.51-2.94.16-5.91,1.88-8.34,3.55-5.04,10.55-6.25,15.59-2.7,2.44,1.72,4.07,4.29,4.58,7.23.51,2.94-.16,5.91-1.88,8.35-2.18,3.08-5.65,4.73-9.16,4.73"/>
  <path class="cls-1" d="M97.3,204.12c-.4,0-.74-.29-.82-.69-.08-.45.22-.89.68-.96l13.01-2.25c.45-.08.89.22.96.68s-.23.89-.68.96l-13.01,2.25s-.1.01-.15.01"/>
  <path class="cls-1" d="M95.81,208.14c-.4,0-.75-.29-.82-.69-.08-.45.22-.89.68-.96l9.51-1.65c.45-.08.89.22.96.68s-.23.89-.68.96l-9.51,1.65s-.09.01-.14.01"/>
  <path class="cls-3" d="M70.61,248.71c-.17,0-.33-.05-.48-.15-.38-.27-.46-.79-.2-1.16l11.1-15.73c.26-.38.78-.47,1.16-.2.38.26.47.78.2,1.16l-11.1,15.73c-.16.23-.42.35-.68.35"/>
  <path class="cls-3" d="M80.14,238.87c-.17,0-.33-.05-.48-.15-.38-.27-.46-.79-.2-1.16l4.51-6.39c.27-.38.78-.46,1.16-.2.38.27.46.78.2,1.16l-4.51,6.39c-.16.23-.42.35-.68.35"/>
  <path class="cls-3" d="M58.37,234.79c-.16,0-.33-.05-.48-.15-.38-.27-.46-.79-.2-1.16l6.51-9.22c.27-.38.78-.47,1.16-.2.38.26.46.78.2,1.16l-6.51,9.22c-.16.23-.42.35-.68.35"/>
  <path class="cls-3" d="M61.93,233.04c-.17,0-.33-.05-.48-.16-.38-.26-.47-.78-.2-1.16l3.3-4.67c.27-.38.79-.47,1.16-.2s.46.79.2,1.16l-3.3,4.67c-.16.23-.42.35-.68.35"/>
  <path class="cls-3" d="M92.52,249.8c-.16,0-.33-.05-.47-.15-.38-.27-.47-.79-.2-1.16l1.88-2.66c.27-.38.78-.46,1.16-.2s.47.79.2,1.16l-1.88,2.66c-.16.23-.42.35-.68.35"/>
  <path class="cls-3" d="M89.31,259.76c-.17,0-.33-.05-.48-.15-.38-.27-.47-.79-.2-1.16l6.8-9.64c.27-.38.79-.46,1.16-.2s.46.79.2,1.16l-6.8,9.64c-.16.23-.42.35-.68.35"/>
  <path class="cls-5" d="M379.64,59.1c-.23,0-.46-.09-.63-.28l-2.85-3.21c-.31-.34-.28-.87.07-1.18s.87-.28,1.18.07l2.85,3.21c.3.34.27.87-.07,1.18-.16.14-.36.21-.55.21"/>
  <path class="cls-5" d="M386.29,66.58c-.23,0-.46-.09-.63-.28l-2.85-3.21c-.31-.34-.28-.87.07-1.18.34-.3.87-.27,1.18.07l2.85,3.21c.31.34.28.87-.07,1.17-.16.14-.35.21-.55.21"/>
  <path class="cls-5" d="M376.18,65.98c-.23,0-.46-.1-.63-.28-.3-.35-.28-.87.07-1.18l3.22-2.85c.34-.31.86-.28,1.17.07.3.34.27.87-.07,1.17l-3.22,2.85c-.16.14-.35.21-.55.21"/>
  <path class="cls-5" d="M383.68,59.34c-.23,0-.46-.09-.63-.28-.3-.34-.27-.87.07-1.18l3.22-2.85c.34-.3.87-.27,1.17.07s.28.87-.07,1.17l-3.21,2.85c-.16.15-.35.21-.55.21"/>
  <path class="cls-3" d="M448.96,175.89c-.84,0-1.67.21-2.42.62-1.17.64-2.02,1.7-2.38,2.98-.77,2.69.83,5.54,3.55,6.35,1.33.4,2.72.26,3.92-.4,1.17-.64,2.02-1.7,2.38-2.98.77-2.69-.83-5.54-3.55-6.35-.49-.15-1-.22-1.5-.22ZM449.22,187.74c-.66,0-1.32-.1-1.98-.29-3.59-1.08-5.69-4.85-4.68-8.41.49-1.71,1.62-3.13,3.18-3.98,1.59-.88,3.43-1.07,5.2-.54,3.59,1.08,5.69,4.84,4.68,8.41-.49,1.71-1.62,3.13-3.18,3.98-1,.55-2.1.83-3.22.83"/>
  <path class="cls-5" d="M442.21,151.18c-.35,0-.68-.23-.8-.59-10.01-32.66-32.96-55.49-50.45-68.9-.36-.28-.43-.8-.16-1.17s.8-.43,1.17-.15c17.69,13.55,40.9,36.65,51.03,69.72.14.44-.11.91-.55,1.04-.08.03-.16.04-.24.04"/>
  <path class="cls-5" d="M456.67,162.35c-.4,0-.75-.29-.82-.69-4.89-28.94-21.24-52.17-34.11-66.55-13.95-15.6-26.89-24.45-27.02-24.53-.38-.26-.48-.78-.22-1.16.26-.38.78-.48,1.16-.22.13.09,13.23,9.05,27.32,24.8,13.01,14.55,29.56,38.05,34.51,67.39.08.45-.23.88-.68.96-.05.01-.09.01-.14.01"/>
  <path class="cls-5" d="M253.53,460.52h-.02c-19.59-.47-40.13-5.34-59.39-14.07-.42-.19-.61-.68-.42-1.1.19-.42.68-.6,1.1-.41,19.06,8.64,39.38,13.46,58.74,13.93.46.01.82.39.81.85-.01.45-.38.81-.83.81"/>
  <path class="cls-5" d="M263.49,469.79c-32.85,0-62.24-8.02-87.38-23.84-.39-.24-.51-.76-.26-1.15.24-.39.76-.51,1.15-.26,25.51,16.06,55.45,23.97,89,23.57.44-.02.84.36.84.82s-.36.84-.82.84c-.84.01-1.69.02-2.53.02"/>
  <path class="cls-5" d="M278.22,466.09h0,0ZM282.21,463.94c-.56,0-1.11.14-1.61.41-.77.42-1.33,1.13-1.57,1.97-.51,1.79.55,3.68,2.36,4.22.88.27,1.81.17,2.6-.27.77-.42,1.33-1.13,1.57-1.97.51-1.79-.55-3.68-2.36-4.22-.33-.1-.66-.15-.99-.15ZM282.39,472.36c-.49,0-.98-.07-1.47-.22-2.68-.8-4.24-3.61-3.49-6.27.36-1.28,1.21-2.34,2.38-2.98,1.19-.66,2.57-.8,3.89-.4,2.68.8,4.24,3.61,3.48,6.28-.36,1.28-1.21,2.34-2.38,2.97-.74.41-1.57.62-2.41.62"/>
</svg>